<svg xmlns="http://www.w3.org/2000/svg" xmlns:ev="http://www.w3.org/2001/xml-events" xmlns:xlink="http://www.w3.org/1999/xlink" width="120mm" height="120mm" baseProfile="full" version="1.1" viewBox="0 0 120 120"><rect width="120" height="120" x="0" y="0" fill="#222"/><text fill="#FFF" alignment-baseline="middle" style="dominant-baseline:central;font-size:9px;font-family:Arial" x="60" y="60" text-anchor="middle">2026</text><text fill="#FFF" alignment-baseline="middle" style="dominant-baseline:central;font-size:6px;font-family:Arial" x="5" y="8" text-anchor="start">126 km</text><line x1="60" x2="60" y1="5" y2="0" stroke="#FFF" stroke-width=".3"/><path id="month1" fill="none" stroke="none" d="M 60.0 4.0 a56.0,56.0 0 0,1 27.7, 7.3"/><text fill="#FFF" style="font-size:5.625px;font-family:Arial" text-anchor="middle"><textPath startOffset="14.5" xlink:href="#month1">January</textPath></text><path fill="#ffe200" stroke="none" d="M 60.2 46.5 l 0.3 -16.1 a29.60759932872124,29.60759932872124 0 0,0 0.5,0.0 l -0.6 16.1"/><path fill="#ffe200" stroke="none" d="M 61.9 46.6 l 2.5 -17.7 a31.371012512126214,31.371012512126214 0 0,0 0.5,0.1 l -2.8 17.7"/><path fill="#ffe200" stroke="none" d="M 62.1 46.7 l 2.6 -16.5 a30.175711463430176,30.175711463430176 0 0,0 0.5,0.1 l -2.9 16.4"/><path fill="#ffe200" stroke="none" d="M 62.3 46.7 l 2.9 -16.6 a30.351507898855,30.351507898855 0 0,0 0.5,0.1 l -3.2 16.6"/><path fill="#4bddff" stroke="none" d="M 63.0 46.8 l 0.0 0.0 a13.5,13.5 0 0,0 0.2,0.1 l 0.0 0.0"/><path fill="#ffe200" stroke="none" d="M 63.2 46.9 l 4.1 -16.5 a30.530172139099154,30.530172139099154 0 0,0 0.5,0.1 l -4.3 16.5"/><path fill="#4bddff" stroke="none" d="M 63.4 46.9 l 0.0 0.0 a13.5,13.5 0 0,0 0.2,0.1 l 0.0 0.0"/><path fill="#72ff27" stroke="none" d="M 64.1 47.1 l 10.0 -31.3 a46.372499522032534,46.372499522032534 0 0,0 0.8,0.2 l -10.6 31.1"/><path fill="#ffe200" stroke="none" d="M 66.3 48.0 l 7.8 -14.9 a30.289850095239444,30.289850095239444 0 0,0 0.5,0.2 l -8.0 14.7"/><line x1="88" x2="90.5" y1="12.6" y2="8.3" stroke="#FFF" stroke-width=".3"/><path id="month2" fill="none" stroke="none" d="M 88.5 11.8 a56.0,56.0 0 0,1 18.6, 17.9"/><text fill="#FFF" style="font-size:5.625px;font-family:Arial" text-anchor="middle"><textPath startOffset="13" xlink:href="#month2">February</textPath></text><path fill="#ffe200" stroke="none" d="M 67.1 48.5 l 8.7 -14.1 a30.065300977886036,30.065300977886036 0 0,0 0.4,0.3 l -8.9 14.0"/><path fill="#46fff6" stroke="none" d="M 67.3 48.6 l 3.0 -4.6 a18.99901574106201,18.99901574106201 0 0,0 0.3,0.2 l -3.0 4.6"/><path fill="#ffe200" stroke="none" d="M 67.7 48.9 l 9.5 -13.9 a30.339749899095754,30.339749899095754 0 0,0 0.4,0.3 l -9.8 13.7"/><path fill="#ffe200" stroke="none" d="M 67.8 49.0 l 7.2 -10.1 a25.933941355161693,25.933941355161693 0 0,0 0.4,0.3 l -7.4 10.0"/><path fill="#3effb2" stroke="none" d="M 68.0 49.1 l 12.5 -16.8 a34.44157113218102,34.44157113218102 0 0,0 0.5,0.4 l -12.7 16.6"/><path fill="#46fff6" stroke="none" d="M 68.8 49.7 l 6.5 -7.7 a23.573737988854504,23.573737988854504 0 0,0 0.3,0.3 l -6.7 7.6"/><path fill="#46fff6" stroke="none" d="M 68.9 49.9 l 6.7 -7.6 a23.644285987409983,23.644285987409983 0 0,0 0.3,0.3 l -6.8 7.5"/><path fill="#46fff6" stroke="none" d="M 69.1 50.0 l 4.2 -4.5 a19.658897629989447,19.658897629989447 0 0,0 0.2,0.2 l -4.2 4.5"/><path fill="#ffe200" stroke="none" d="M 69.3 50.2 l 11.4 -12.1 a30.10143531860957,30.10143531860957 0 0,0 0.4,0.4 l -11.6 11.9"/><path fill="#ffe200" stroke="none" d="M 69.4 50.4 l 14.1 -14.4 a33.63629153891363,33.63629153891363 0 0,0 0.4,0.4 l -14.3 14.1"/><path fill="#46fff6" stroke="none" d="M 69.6 50.5 l 4.1 -4.0 a19.233888955764996,19.233888955764996 0 0,0 0.2,0.2 l -4.1 4.0"/><path fill="#46fff6" stroke="none" d="M 69.8 50.7 l 7.3 -6.9 a23.56886272066165,23.56886272066165 0 0,0 0.3,0.3 l -7.4 6.8"/><path fill="#ffda00" stroke="none" d="M 70.1 51.0 l 30.3 -26.9 a54.0,54.0 0 0,0 0.6,0.7 l -30.7 26.4"/><path fill="#ffe200" stroke="none" d="M 70.2 51.2 l 13.5 -11.6 a31.25543997790728,31.25543997790728 0 0,0 0.3,0.4 l -13.7 11.3"/><path fill="#ffe200" stroke="none" d="M 70.4 51.4 l 13.6 -11.3 a31.118932468507253,31.118932468507253 0 0,0 0.3,0.4 l -13.7 11.0"/><line x1="106.7" x2="111" y1="31" y2="28.4" stroke="#FFF" stroke-width=".3"/><path id="month3" fill="none" stroke="none" d="M 107.6 30.5 a56.0,56.0 0 0,1 8.4, 27.3"/><text fill="#FFF" style="font-size:5.625px;font-family:Arial" text-anchor="middle"><textPath startOffset="14.5" xlink:href="#month3">March</textPath></text><line x1="115" x2="120" y1="58.8" y2="58.7" stroke="#FFF" stroke-width=".3"/><path id="month4" fill="none" stroke="none" d="M 116.0 58.8 a56.0,56.0 0 0,1 -6.3, 26.9"/><text fill="#FFF" style="font-size:5.625px;font-family:Arial" text-anchor="middle"><textPath startOffset="14" xlink:href="#month4">April</textPath></text><line x1="108.4" x2="112.8" y1="86.1" y2="88.5" stroke="#FFF" stroke-width=".3"/><path id="month5" fill="none" stroke="none" d="M 109.3 86.6 a56.0,56.0 0 0,1 -19.6, 20.9"/><text fill="#FFF" style="font-size:5.625px;font-family:Arial" text-anchor="middle"><textPath startOffset="14.5" xlink:href="#month5">May</textPath></text><line x1="88.4" x2="91" y1="107.1" y2="111.4" stroke="#FFF" stroke-width=".3"/><path id="month6" fill="none" stroke="none" d="M 88.9 108.0 a56.0,56.0 0 0,1 -26.5, 8.0"/><text fill="#FFF" style="font-size:5.625px;font-family:Arial" text-anchor="middle"><textPath startOffset="14" xlink:href="#month6">June</textPath></text><line x1="61.4" x2="61.5" y1="115" y2="120" stroke="#FFF" stroke-width=".3"/><path id="month7" fill="none" stroke="none" d="M 61.4 116.0 a56.0,56.0 0 0,1 -27.8, -6.6"/><text fill="#FFF" style="font-size:5.625px;font-family:Arial" text-anchor="middle"><textPath startOffset="14.5" xlink:href="#month7">July</textPath></text><line x1="33.3" x2="30.8" y1="108.1" y2="112.4" stroke="#FFF" stroke-width=".3"/><path id="month8" fill="none" stroke="none" d="M 32.8 108.9 a56.0,56.0 0 0,1 -20.6, -19.8"/><text fill="#FFF" style="font-size:5.625px;font-family:Arial" text-anchor="middle"><textPath startOffset="14.5" xlink:href="#month8">August</textPath></text><line x1="12.5" x2="8.2" y1="87.8" y2="90.3" stroke="#FFF" stroke-width=".3"/><path id="month9" fill="none" stroke="none" d="M 11.7 88.3 a56.0,56.0 0 0,1 -7.6, -26.6"/><text fill="#FFF" style="font-size:5.625px;font-family:Arial" text-anchor="middle"><textPath startOffset="14" xlink:href="#month9">September</textPath></text><line x1="5" x2="0" y1="60.7" y2="60.8" stroke="#FFF" stroke-width=".3"/><path id="month10" fill="none" stroke="none" d="M 4.0 60.7 a56.0,56.0 0 0,1 6.9, -27.7"/><text fill="#FFF" style="font-size:5.625px;font-family:Arial" text-anchor="middle"><textPath startOffset="14.5" xlink:href="#month10">October</textPath></text><line x1="12.3" x2="8" y1="32.6" y2="30.1" stroke="#FFF" stroke-width=".3"/><path id="month11" fill="none" stroke="none" d="M 11.4 32.1 a56.0,56.0 0 0,1 19.3, -19.9"/><text fill="#FFF" style="font-size:5.625px;font-family:Arial" text-anchor="middle"><textPath startOffset="14" xlink:href="#month11">November</textPath></text><line x1="32" x2="29.5" y1="12.6" y2="8.3" stroke="#FFF" stroke-width=".3"/><path id="month12" fill="none" stroke="none" d="M 31.5 11.8 a56.0,56.0 0 0,1 27.5, -7.8"/><text fill="#FFF" style="font-size:5.625px;font-family:Arial" text-anchor="middle"><textPath startOffset="14.5" xlink:href="#month12">December</textPath></text></svg>