<?xml version="1.0" encoding="utf-8" ?>
<svg baseProfile="full" height="120mm" version="1.1" viewBox="0,0,120,120" width="120mm" xmlns="http://www.w3.org/2000/svg" xmlns:ev="http://www.w3.org/2001/xml-events" xmlns:xlink="http://www.w3.org/1999/xlink">
<defs />
<rect fill="#222222" height="120" width="120" x="0" y="0" />
<text alignment-baseline="middle" fill="#FFFFFF" style="dominant-baseline: central; font-size:9.0px; font-family:Arial;" text-anchor="middle" x="60.0" y="60.0">2026</text>
<text alignment-baseline="middle" fill="#FFFFFF" style="dominant-baseline: central; font-size:6.0px; font-family:Arial;" text-anchor="start" x="5" y="8">100 km</text>
<line stroke="#FFFFFF" stroke-width="0.3" x1="60.0" x2="60.0" y1="5.0" y2="0.0"></line>
<path d="M 60.0 4.0 a56.0,56.0 0 0,1 27.7, 7.3" fill="none" id="month1" stroke="none"></path>
<text fill="#FFFFFF" style="font-size:5.625px; font-family:Arial;" text-anchor="middle"><textPath startOffset="14.5" xlink:href="#month1">January</textPath></text>
<path d="M 60.2 46.5 l 0.3 -19.8 a33.345091863975014,33.345091863975014 0 0,0 0.6,0.0 l -0.7 19.8" fill="#ffe200" stroke="none"></path>
<path d="M 61.9 46.6 l 3.0 -21.8 a35.517674873065445,35.517674873065445 0 0,0 0.6,0.1 l -3.4 21.8" fill="#3effb2" stroke="none"></path>
<path d="M 62.1 46.7 l 3.2 -20.3 a34.04502468898853,34.04502468898853 0 0,0 0.6,0.1 l -3.5 20.2" fill="#3effb2" stroke="none"></path>
<path d="M 62.3 46.7 l 3.6 -20.5 a34.26161167623401,34.26161167623401 0 0,0 0.6,0.1 l -3.9 20.4" fill="#3effb2" stroke="none"></path>
<path d="M 63.0 46.8 l 0.0 0.0 a13.5,13.5 0 0,0 0.2,0.1 l 0.0 0.0" fill="#4bddff" stroke="none"></path>
<path d="M 63.2 46.9 l 5.0 -20.4 a34.48173189328773,34.48173189328773 0 0,0 0.6,0.1 l -5.4 20.3" fill="#3effb2" stroke="none"></path>
<path d="M 63.4 46.9 l 0.0 0.0 a13.5,13.5 0 0,0 0.2,0.1 l 0.0 0.0" fill="#4bddff" stroke="none"></path>
<path d="M 64.1 47.1 l 12.3 -38.6 a54.0,54.0 0 0,0 0.9,0.3 l -13.0 38.4" fill="#ffda00" stroke="none"></path>
<path d="M 66.3 48.0 l 9.6 -18.3 a34.185647235356726,34.185647235356726 0 0,0 0.5,0.3 l -9.9 18.2" fill="#3effb2" stroke="none"></path>
<line stroke="#FFFFFF" stroke-width="0.3" x1="88.0" x2="90.5" y1="12.6" y2="8.3"></line>
<path d="M 88.5 11.8 a56.0,56.0 0 0,1 18.6, 17.9" fill="none" id="month2" stroke="none"></path>
<text fill="#FFFFFF" style="font-size:5.625px; font-family:Arial;" text-anchor="middle"><textPath startOffset="13.0" xlink:href="#month2">February</textPath></text>
<path d="M 67.1 48.5 l 10.7 -17.4 a33.90899534137107,33.90899534137107 0 0,0 0.5,0.3 l -11.0 17.2" fill="#3effb2" stroke="none"></path>
<path d="M 67.3 48.6 l 3.6 -5.7 a20.274968157311605,20.274968157311605 0 0,0 0.3,0.2 l -3.7 5.6" fill="#46fff6" stroke="none"></path>
<path d="M 67.7 48.9 l 11.8 -17.1 a34.2471254340202,34.2471254340202 0 0,0 0.5,0.3 l -12.0 16.9" fill="#3effb2" stroke="none"></path>
<path d="M 67.8 49.0 l 8.9 -12.5 a28.819024479611954,28.819024479611954 0 0,0 0.4,0.3 l -9.1 12.3" fill="#ffe200" stroke="none"></path>
<path d="M 68.0 49.1 l 15.3 -20.7 a39.30070402875438,39.30070402875438 0 0,0 0.5,0.4 l -15.7 20.5" fill="#3effb2" stroke="none"></path>
<path d="M 68.8 49.7 l 8.1 -9.4 a25.91117634742554,25.91117634742554 0 0,0 0.3,0.3 l -8.2 9.3" fill="#ffe200" stroke="none"></path>
<path d="M 68.9 49.9 l 8.3 -9.4 a25.99809380070839,25.99809380070839 0 0,0 0.3,0.3 l -8.4 9.2" fill="#ffe200" stroke="none"></path>
<path d="M 69.1 50.0 l 5.1 -5.6 a21.087964336188996,21.087964336188996 0 0,0 0.3,0.2 l -5.2 5.5" fill="#46fff6" stroke="none"></path>
<path d="M 69.3 50.2 l 14.1 -14.9 a33.953514036954964,33.953514036954964 0 0,0 0.4,0.4 l -14.3 14.6" fill="#3effb2" stroke="none"></path>
<path d="M 69.4 50.4 l 17.4 -17.7 a38.30857309859891,38.30857309859891 0 0,0 0.5,0.5 l -17.7 17.4" fill="#3effb2" stroke="none"></path>
<path d="M 69.6 50.5 l 5.0 -5.0 a20.56433967860695,20.56433967860695 0 0,0 0.2,0.3 l -5.1 4.9" fill="#46fff6" stroke="none"></path>
<path d="M 69.8 50.7 l 9.0 -8.6 a25.90516985675152,25.90516985675152 0 0,0 0.3,0.3 l -9.1 8.4" fill="#ffe200" stroke="none"></path>
<line stroke="#FFFFFF" stroke-width="0.3" x1="106.7" x2="111.0" y1="31.0" y2="28.4"></line>
<path d="M 107.6 30.5 a56.0,56.0 0 0,1 8.4, 27.3" fill="none" id="month3" stroke="none"></path>
<text fill="#FFFFFF" style="font-size:5.625px; font-family:Arial;" text-anchor="middle"><textPath startOffset="14.5" xlink:href="#month3">March</textPath></text>
<line stroke="#FFFFFF" stroke-width="0.3" x1="115.0" x2="120.0" y1="58.8" y2="58.7"></line>
<path d="M 116.0 58.8 a56.0,56.0 0 0,1 -6.3, 26.9" fill="none" id="month4" stroke="none"></path>
<text fill="#FFFFFF" style="font-size:5.625px; font-family:Arial;" text-anchor="middle"><textPath startOffset="14.0" xlink:href="#month4">April</textPath></text>
<line stroke="#FFFFFF" stroke-width="0.3" x1="108.4" x2="112.8" y1="86.1" y2="88.5"></line>
<path d="M 109.3 86.6 a56.0,56.0 0 0,1 -19.6, 20.9" fill="none" id="month5" stroke="none"></path>
<text fill="#FFFFFF" style="font-size:5.625px; font-family:Arial;" text-anchor="middle"><textPath startOffset="14.5" xlink:href="#month5">May</textPath></text>
<line stroke="#FFFFFF" stroke-width="0.3" x1="88.4" x2="91.0" y1="107.1" y2="111.4"></line>
<path d="M 88.9 108.0 a56.0,56.0 0 0,1 -26.5, 8.0" fill="none" id="month6" stroke="none"></path>
<text fill="#FFFFFF" style="font-size:5.625px; font-family:Arial;" text-anchor="middle"><textPath startOffset="14.0" xlink:href="#month6">June</textPath></text>
<line stroke="#FFFFFF" stroke-width="0.3" x1="61.4" x2="61.5" y1="115.0" y2="120.0"></line>
<path d="M 61.4 116.0 a56.0,56.0 0 0,1 -27.8, -6.6" fill="none" id="month7" stroke="none"></path>
<text fill="#FFFFFF" style="font-size:5.625px; font-family:Arial;" text-anchor="middle"><textPath startOffset="14.5" xlink:href="#month7">July</textPath></text>
<line stroke="#FFFFFF" stroke-width="0.3" x1="33.3" x2="30.8" y1="108.1" y2="112.4"></line>
<path d="M 32.8 108.9 a56.0,56.0 0 0,1 -20.6, -19.8" fill="none" id="month8" stroke="none"></path>
<text fill="#FFFFFF" style="font-size:5.625px; font-family:Arial;" text-anchor="middle"><textPath startOffset="14.5" xlink:href="#month8">August</textPath></text>
<line stroke="#FFFFFF" stroke-width="0.3" x1="12.5" x2="8.2" y1="87.8" y2="90.3"></line>
<path d="M 11.7 88.3 a56.0,56.0 0 0,1 -7.6, -26.6" fill="none" id="month9" stroke="none"></path>
<text fill="#FFFFFF" style="font-size:5.625px; font-family:Arial;" text-anchor="middle"><textPath startOffset="14.0" xlink:href="#month9">September</textPath></text>
<line stroke="#FFFFFF" stroke-width="0.3" x1="5.0" x2="0.0" y1="60.7" y2="60.8"></line>
<path d="M 4.0 60.7 a56.0,56.0 0 0,1 6.9, -27.7" fill="none" id="month10" stroke="none"></path>
<text fill="#FFFFFF" style="font-size:5.625px; font-family:Arial;" text-anchor="middle"><textPath startOffset="14.5" xlink:href="#month10">October</textPath></text>
<line stroke="#FFFFFF" stroke-width="0.3" x1="12.3" x2="8.0" y1="32.6" y2="30.1"></line>
<path d="M 11.4 32.1 a56.0,56.0 0 0,1 19.3, -19.9" fill="none" id="month11" stroke="none"></path>
<text fill="#FFFFFF" style="font-size:5.625px; font-family:Arial;" text-anchor="middle"><textPath startOffset="14.0" xlink:href="#month11">November</textPath></text>
<line stroke="#FFFFFF" stroke-width="0.3" x1="32.0" x2="29.5" y1="12.6" y2="8.3"></line>
<path d="M 31.5 11.8 a56.0,56.0 0 0,1 27.5, -7.8" fill="none" id="month12" stroke="none"></path>
<text fill="#FFFFFF" style="font-size:5.625px; font-family:Arial;" text-anchor="middle"><textPath startOffset="14.5" xlink:href="#month12">December</textPath></text>
</svg>