<?xml version="1.0" encoding="utf-8" ?>
<svg baseProfile="full" height="120mm" version="1.1" viewBox="0,0,120,120" width="120mm" xmlns="http://www.w3.org/2000/svg" xmlns:ev="http://www.w3.org/2001/xml-events" xmlns:xlink="http://www.w3.org/1999/xlink">
<defs />
<rect fill="#222222" height="120" width="120" x="0" y="0" />
<text alignment-baseline="middle" fill="#FFFFFF" style="dominant-baseline: central; font-size:9.0px; font-family:Arial;" text-anchor="middle" x="60.0" y="60.0">2024</text>
<text alignment-baseline="middle" fill="#FFFFFF" style="dominant-baseline: central; font-size:6.0px; font-family:Arial;" text-anchor="start" x="5" y="8">419 km</text>
<line stroke="#FFFFFF" stroke-width="0.3" x1="60.0" x2="60.0" y1="5.0" y2="0.0"></line>
<path d="M 60.0 4.0 a56.0,56.0 0 0,1 27.6, 7.3" fill="none" id="month1" stroke="none"></path>
<text fill="#FFFFFF" style="font-size:5.625px; font-family:Arial;" text-anchor="middle"><textPath startOffset="14.4" xlink:href="#month1">January</textPath></text>
<line stroke="#FFFFFF" stroke-width="0.3" x1="87.9" x2="90.4" y1="12.6" y2="8.3"></line>
<path d="M 88.4 11.7 a56.0,56.0 0 0,1 19.1, 18.6" fill="none" id="month2" stroke="none"></path>
<text fill="#FFFFFF" style="font-size:5.625px; font-family:Arial;" text-anchor="middle"><textPath startOffset="13.5" xlink:href="#month2">February</textPath></text>
<line stroke="#FFFFFF" stroke-width="0.3" x1="107.2" x2="111.4" y1="31.7" y2="29.1"></line>
<path d="M 108.0 31.2 a56.0,56.0 0 0,1 8.0, 27.4" fill="none" id="month3" stroke="none"></path>
<text fill="#FFFFFF" style="font-size:5.625px; font-family:Arial;" text-anchor="middle"><textPath startOffset="14.4" xlink:href="#month3">March</textPath></text>
<line stroke="#FFFFFF" stroke-width="0.3" x1="115.0" x2="120.0" y1="59.5" y2="59.5"></line>
<path d="M 116.0 59.5 a56.0,56.0 0 0,1 -6.6, 26.8" fill="none" id="month4" stroke="none"></path>
<text fill="#FFFFFF" style="font-size:5.625px; font-family:Arial;" text-anchor="middle"><textPath startOffset="13.9" xlink:href="#month4">April</textPath></text>
<line stroke="#FFFFFF" stroke-width="0.3" x1="108.1" x2="112.5" y1="86.7" y2="89.1"></line>
<path d="M 109.0 87.2 a56.0,56.0 0 0,1 -19.7, 20.6" fill="none" id="month5" stroke="none"></path>
<text fill="#FFFFFF" style="font-size:5.625px; font-family:Arial;" text-anchor="middle"><textPath startOffset="14.4" xlink:href="#month5">May</textPath></text>
<line stroke="#FFFFFF" stroke-width="0.3" x1="87.9" x2="90.4" y1="107.4" y2="111.7"></line>
<path d="M 88.4 108.3 a56.0,56.0 0 0,1 -26.5, 7.7" fill="none" id="month6" stroke="none"></path>
<text fill="#FFFFFF" style="font-size:5.625px; font-family:Arial;" text-anchor="middle"><textPath startOffset="13.9" xlink:href="#month6">June</textPath></text>
<line stroke="#FFFFFF" stroke-width="0.3" x1="60.9" x2="61.0" y1="115.0" y2="120.0"></line>
<path d="M 61.0 116.0 a56.0,56.0 0 0,1 -27.7, -6.8" fill="none" id="month7" stroke="none"></path>
<text fill="#FFFFFF" style="font-size:5.625px; font-family:Arial;" text-anchor="middle"><textPath startOffset="14.4" xlink:href="#month7">July</textPath></text>
<line stroke="#FFFFFF" stroke-width="0.3" x1="32.9" x2="30.4" y1="107.9" y2="112.2"></line>
<path d="M 32.4 108.7 a56.0,56.0 0 0,1 -20.4, -19.9" fill="none" id="month8" stroke="none"></path>
<text fill="#FFFFFF" style="font-size:5.625px; font-family:Arial;" text-anchor="middle"><textPath startOffset="14.4" xlink:href="#month8">August</textPath></text>
<line stroke="#FFFFFF" stroke-width="0.3" x1="12.4" x2="8.0" y1="87.5" y2="90.0"></line>
<path d="M 11.5 88.0 a56.0,56.0 0 0,1 -7.5, -26.6" fill="none" id="month9" stroke="none"></path>
<text fill="#FFFFFF" style="font-size:5.625px; font-family:Arial;" text-anchor="middle"><textPath startOffset="13.9" xlink:href="#month9">September</textPath></text>
<line stroke="#FFFFFF" stroke-width="0.3" x1="5.0" x2="0.0" y1="60.5" y2="60.5"></line>
<path d="M 4.0 60.5 a56.0,56.0 0 0,1 7.0, -27.6" fill="none" id="month10" stroke="none"></path>
<text fill="#FFFFFF" style="font-size:5.625px; font-family:Arial;" text-anchor="middle"><textPath startOffset="14.4" xlink:href="#month10">October</textPath></text>
<path d="M 47.0 56.5 l -10.3 -2.8 a24.21386967858965,24.21386967858965 0 0,0 0.1,-0.4 l 10.3 3.0" fill="#46fff6" stroke="none"></path>
<path d="M 47.0 56.2 l -12.6 -3.7 a26.644726772858682,26.644726772858682 0 0,0 0.1,-0.4 l 12.6 3.9" fill="#ffe200" stroke="none"></path>
<path d="M 47.1 56.0 l -11.5 -3.6 a25.5507836857321,25.5507836857321 0 0,0 0.1,-0.4 l 11.4 3.8" fill="#46fff6" stroke="none"></path>
<path d="M 47.2 55.6 l -6.9 -2.4 a20.80194575137464,20.80194575137464 0 0,0 0.1,-0.3 l 6.9 2.5" fill="#46fff6" stroke="none"></path>
<path d="M 47.3 55.3 l -0.0 0.0 a13.5,13.5 0 0,0 0.1,-0.2 l -0.0 0.0" fill="#4bddff" stroke="none"></path>
<path d="M 47.4 55.1 l -5.6 -2.2 a19.514391190975566,19.514391190975566 0 0,0 0.1,-0.3 l 5.6 2.3" fill="#46fff6" stroke="none"></path>
<path d="M 47.5 54.9 l -9.3 -3.8 a23.5534479337906,23.5534479337906 0 0,0 0.2,-0.4 l 9.2 3.9" fill="#46fff6" stroke="none"></path>
<path d="M 47.6 54.7 l -0.0 0.0 a13.5,13.5 0 0,0 0.1,-0.2 l -0.0 0.0" fill="#4bddff" stroke="none"></path>
<path d="M 47.8 54.3 l -5.2 -2.4 a19.20216399297092,19.20216399297092 0 0,0 0.1,-0.3 l 5.1 2.5" fill="#46fff6" stroke="none"></path>
<path d="M 47.9 54.1 l -9.0 -4.4 a23.488974547928123,23.488974547928123 0 0,0 0.2,-0.4 l 8.9 4.5" fill="#46fff6" stroke="none"></path>
<path d="M 48.0 53.9 l -12.5 -6.4 a27.55118048863443,27.55118048863443 0 0,0 0.2,-0.4 l 12.4 6.6" fill="#ffe200" stroke="none"></path>
<path d="M 48.1 53.7 l -8.8 -4.7 a23.498540332180717,23.498540332180717 0 0,0 0.2,-0.4 l 8.7 4.8" fill="#46fff6" stroke="none"></path>
<line stroke="#FFFFFF" stroke-width="0.3" x1="12.4" x2="8.0" y1="32.5" y2="30.0"></line>
<path d="M 11.5 32.0 a56.0,56.0 0 0,1 19.3, -19.8" fill="none" id="month11" stroke="none"></path>
<text fill="#FFFFFF" style="font-size:5.625px; font-family:Arial;" text-anchor="middle"><textPath startOffset="13.9" xlink:href="#month11">November</textPath></text>
<path d="M 48.3 53.2 l -3.9 -2.3 a18.013328326058613,18.013328326058613 0 0,0 0.2,-0.3 l 3.9 2.3" fill="#46fff6" stroke="none"></path>
<path d="M 48.4 53.1 l -4.8 -2.9 a19.124489824839863,19.124489824839863 0 0,0 0.2,-0.3 l 4.8 3.0" fill="#46fff6" stroke="none"></path>
<path d="M 48.5 52.9 l -16.4 -10.3 a32.86038206450881,32.86038206450881 0 0,0 0.3,-0.5 l 16.2 10.5" fill="#ffe200" stroke="none"></path>
<path d="M 48.7 52.7 l -4.3 -2.8 a18.649835610226177,18.649835610226177 0 0,0 0.2,-0.3 l 4.3 2.9" fill="#46fff6" stroke="none"></path>
<path d="M 48.8 52.5 l -14.6 -9.8 a31.105251969842982,31.105251969842982 0 0,0 0.3,-0.4 l 14.4 10.1" fill="#ffe200" stroke="none"></path>
<path d="M 48.9 52.3 l -14.1 -9.9 a30.752657162292387,30.752657162292387 0 0,0 0.3,-0.4 l 14.0 10.1" fill="#ffe200" stroke="none"></path>
<path d="M 49.1 52.1 l -12.7 -9.2 a29.1968780114506,29.1968780114506 0 0,0 0.3,-0.4 l 12.6 9.4" fill="#ffe200" stroke="none"></path>
<path d="M 49.2 51.9 l -18.5 -13.9 a36.683634714585345,36.683634714585345 0 0,0 0.4,-0.5 l 18.3 14.2" fill="#3effb2" stroke="none"></path>
<path d="M 49.3 51.7 l -18.1 -14.1 a36.40737486537044,36.40737486537044 0 0,0 0.4,-0.5 l 17.8 14.4" fill="#3effb2" stroke="none"></path>
<path d="M 49.5 51.5 l -7.9 -6.4 a23.65101893316705,23.65101893316705 0 0,0 0.3,-0.3 l 7.8 6.5" fill="#46fff6" stroke="none"></path>
<path d="M 49.6 51.4 l -3.2 -2.7 a17.729607165126694,17.729607165126694 0 0,0 0.2,-0.2 l 3.2 2.8" fill="#46fff6" stroke="none"></path>
<path d="M 49.8 51.2 l -9.8 -8.5 a26.47330791905221,26.47330791905221 0 0,0 0.3,-0.3 l 9.7 8.6" fill="#ffe200" stroke="none"></path>
<path d="M 49.9 51.0 l -10.4 -9.3 a27.479054475369878,27.479054475369878 0 0,0 0.3,-0.3 l 10.3 9.5" fill="#ffe200" stroke="none"></path>
<path d="M 50.1 50.8 l -6.7 -6.2 a22.59266056346012,22.59266056346012 0 0,0 0.3,-0.3 l 6.6 6.3" fill="#46fff6" stroke="none"></path>
<path d="M 50.3 50.7 l -7.8 -7.5 a24.285995691854204,24.285995691854204 0 0,0 0.3,-0.3 l 7.7 7.6" fill="#46fff6" stroke="none"></path>
<path d="M 50.4 50.5 l -2.4 -2.4 a16.900062354741795,16.900062354741795 0 0,0 0.2,-0.2 l 2.4 2.4" fill="#4bddff" stroke="none"></path>
<path d="M 50.6 50.3 l -20.5 -21.1 a42.907899212062816,42.907899212062816 0 0,0 0.5,-0.5 l 20.2 21.4" fill="#72ff27" stroke="none"></path>
<path d="M 50.7 50.2 l -3.5 -3.7 a18.645244033784934,18.645244033784934 0 0,0 0.2,-0.2 l 3.5 3.8" fill="#46fff6" stroke="none"></path>
<path d="M 50.9 50.0 l -0.0 0.0 a13.5,13.5 0 0,0 0.2,-0.2 l -0.0 0.0" fill="#4bddff" stroke="none"></path>
<path d="M 51.1 49.9 l -0.0 0.0 a13.5,13.5 0 0,0 0.2,-0.2 l -0.0 0.0" fill="#4bddff" stroke="none"></path>
<path d="M 51.3 49.7 l -6.4 -7.6 a23.459703248115186,23.459703248115186 0 0,0 0.3,-0.3 l 6.3 7.7" fill="#46fff6" stroke="none"></path>
<path d="M 51.4 49.6 l -7.2 -8.8 a24.932068760274362,24.932068760274362 0 0,0 0.3,-0.3 l 7.1 9.0" fill="#46fff6" stroke="none"></path>
<path d="M 51.6 49.4 l -6.4 -8.1 a23.80101043024772,23.80101043024772 0 0,0 0.3,-0.3 l 6.3 8.2" fill="#46fff6" stroke="none"></path>
<path d="M 51.8 49.3 l -24.5 -32.0 a53.80868431494814,53.80868431494814 0 0,0 0.7,-0.6 l 23.9 32.4" fill="#ffda00" stroke="none"></path>
<path d="M 52.0 49.1 l -5.9 -8.0 a23.461233773595602,23.461233773595602 0 0,0 0.3,-0.2 l 5.8 8.1" fill="#46fff6" stroke="none"></path>
<path d="M 52.2 49.0 l -3.0 -4.3 a18.72693583130208,18.72693583130208 0 0,0 0.3,-0.2 l 3.0 4.3" fill="#46fff6" stroke="none"></path>
<path d="M 52.4 48.9 l -1.9 -2.7 a16.77666373788334,16.77666373788334 0 0,0 0.2,-0.2 l 1.8 2.7" fill="#4bddff" stroke="none"></path>
<path d="M 52.6 48.7 l -5.7 -8.6 a23.781113599002325,23.781113599002325 0 0,0 0.3,-0.2 l 5.5 8.7" fill="#46fff6" stroke="none"></path>
<path d="M 52.8 48.6 l -5.6 -8.8 a23.931487727453092,23.931487727453092 0 0,0 0.3,-0.2 l 5.4 8.9" fill="#46fff6" stroke="none"></path>
<path d="M 53.0 48.5 l -6.1 -10.0 a25.213111501615558,25.213111501615558 0 0,0 0.4,-0.2 l 5.9 10.1" fill="#46fff6" stroke="none"></path>
<line stroke="#FFFFFF" stroke-width="0.3" x1="32.1" x2="29.6" y1="12.6" y2="8.3"></line>
<path d="M 31.6 11.7 a56.0,56.0 0 0,1 27.5, -7.7" fill="none" id="month12" stroke="none"></path>
<text fill="#FFFFFF" style="font-size:5.625px; font-family:Arial;" text-anchor="middle"><textPath startOffset="14.4" xlink:href="#month12">December</textPath></text>
<path d="M 53.1 48.4 l -14.5 -24.6 a42.00814154526388,42.00814154526388 0 0,0 0.6,-0.4 l 14.0 24.8" fill="#72ff27" stroke="none"></path>
<path d="M 53.4 48.3 l -5.0 -8.8 a23.57870160421745,23.57870160421745 0 0,0 0.4,-0.2 l 4.8 8.9" fill="#46fff6" stroke="none"></path>
<path d="M 53.6 48.1 l -4.7 -8.7 a23.420483532679555,23.420483532679555 0 0,0 0.4,-0.2 l 4.6 8.8" fill="#46fff6" stroke="none"></path>
<path d="M 53.8 48.0 l -4.7 -8.9 a23.563205033728245,23.563205033728245 0 0,0 0.4,-0.2 l 4.5 9.0" fill="#46fff6" stroke="none"></path>
<path d="M 54.2 47.8 l -5.2 -10.9 a25.623866277421914,25.623866277421914 0 0,0 0.4,-0.2 l 5.0 11.0" fill="#46fff6" stroke="none"></path>
<path d="M 54.4 47.7 l -4.6 -10.1 a24.60434499178051,24.60434499178051 0 0,0 0.4,-0.2 l 4.4 10.2" fill="#46fff6" stroke="none"></path>
<path d="M 54.6 47.6 l -8.6 -19.6 a34.92831330423445,34.92831330423445 0 0,0 0.6,-0.2 l 8.2 19.8" fill="#3effb2" stroke="none"></path>
<path d="M 54.8 47.5 l -4.1 -9.8 a24.118403151748765,24.118403151748765 0 0,0 0.4,-0.2 l 3.9 9.9" fill="#46fff6" stroke="none"></path>
<path d="M 55.0 47.5 l -3.7 -9.3 a23.532403208434896,23.532403208434896 0 0,0 0.4,-0.1 l 3.5 9.4" fill="#46fff6" stroke="none"></path>
<path d="M 55.2 47.4 l -0.0 0.0 a13.5,13.5 0 0,0 0.2,-0.1 l -0.0 0.0" fill="#4bddff" stroke="none"></path>
<path d="M 55.7 47.2 l -3.3 -9.6 a23.655227878238197,23.655227878238197 0 0,0 0.4,-0.1 l 3.1 9.7" fill="#46fff6" stroke="none"></path>
<path d="M 55.9 47.1 l -4.9 -15.4 a29.70099484156227,29.70099484156227 0 0,0 0.5,-0.2 l 4.7 15.5" fill="#ffe200" stroke="none"></path>
<path d="M 56.1 47.1 l -5.9 -19.7 a34.053426676492265,34.053426676492265 0 0,0 0.6,-0.2 l 5.6 19.8" fill="#3effb2" stroke="none"></path>
<path d="M 56.6 46.9 l -2.5 -9.6 a23.46850376962757,23.46850376962757 0 0,0 0.4,-0.1 l 2.4 9.7" fill="#46fff6" stroke="none"></path>
<path d="M 56.8 46.9 l -2.4 -9.8 a23.56454424352361,23.56454424352361 0 0,0 0.4,-0.1 l 2.2 9.8" fill="#46fff6" stroke="none"></path>
<path d="M 57.5 46.7 l -3.0 -15.6 a29.36217476333541,29.36217476333541 0 0,0 0.5,-0.1 l 2.7 15.6" fill="#ffe200" stroke="none"></path>
<path d="M 57.7 46.7 l -3.4 -19.5 a33.24473527577801,33.24473527577801 0 0,0 0.6,-0.1 l 3.0 19.5" fill="#ffe200" stroke="none"></path>
<path d="M 57.9 46.7 l -0.8 -5.1 a18.63778272206791,18.63778272206791 0 0,0 0.3,-0.0 l 0.7 5.1" fill="#46fff6" stroke="none"></path>
<path d="M 58.2 46.6 l -2.2 -16.1 a29.7501629726206,29.7501629726206 0 0,0 0.5,-0.1 l 1.9 16.1" fill="#ffe200" stroke="none"></path>
<path d="M 58.4 46.6 l -1.3 -10.4 a23.9378011450598,23.9378011450598 0 0,0 0.4,-0.0 l 1.1 10.4" fill="#46fff6" stroke="none"></path>
<path d="M 58.6 46.6 l -1.1 -10.4 a23.954828241029418,23.954828241029418 0 0,0 0.4,-0.0 l 0.9 10.4" fill="#46fff6" stroke="none"></path>
<path d="M 58.8 46.5 l -0.9 -10.8 a24.379931693214672,24.379931693214672 0 0,0 0.4,-0.0 l 0.7 10.9" fill="#46fff6" stroke="none"></path>
<path d="M 59.1 46.5 l -0.7 -10.2 a23.744189671787314,23.744189671787314 0 0,0 0.4,-0.0 l 0.5 10.2" fill="#46fff6" stroke="none"></path>
<path d="M 59.3 46.5 l -2.1 -40.4 a54.0,54.0 0 0,0 0.9,-0.0 l 1.4 40.5" fill="#ffda00" stroke="none"></path>
<path d="M 59.5 46.5 l -0.2 -6.7 a20.242538688282977,20.242538688282977 0 0,0 0.3,-0.0 l 0.1 6.7" fill="#46fff6" stroke="none"></path>
<path d="M 59.8 46.5 l -0.2 -11.9 a25.403470608242163,25.403470608242163 0 0,0 0.4,-0.0 l 0.0 11.9" fill="#46fff6" stroke="none"></path>
</svg>