<svg xmlns="http://www.w3.org/2000/svg" width="1200" height="280" viewBox="0 0 1200 280"><style>.heatmap-cell{rx:3}.month-label,.year-label{font-family:Arial,sans-serif}.year-label{fill:#c9d1d9;font-size:28px;font-weight:700}.month-label{fill:#8b949e;font-size:14px;text-anchor:middle}</style><text x="25" y="40" class="year-label">2024 Activity Heatmap</text><text x="25" y="75" class="month-label">Jan</text><text x="119.5" y="75" class="month-label">Feb</text><text x="214" y="75" class="month-label">Mar</text><text x="308.5" y="75" class="month-label">Apr</text><text x="403" y="75" class="month-label">May</text><text x="497.5" y="75" class="month-label">Jun</text><text x="592" y="75" class="month-label">Jul</text><text x="686.5" y="75" class="month-label">Aug</text><text x="781" y="75" class="month-label">Sep</text><text x="875.5" y="75" class="month-label">Oct</text><text x="970" y="75" class="month-label">Nov</text><text x="1064.5" y="75" class="month-label">Dec</text><rect width="18" height="18" x="25" y="80" fill="#444" class="heatmap-cell"><title>2024-01-01: 0.0km (0 activities)</title></rect><rect width="18" height="18" x="25" y="101" fill="#444" class="heatmap-cell"><title>2024-01-02: 0.0km (0 activities)</title></rect><rect width="18" height="18" x="25" y="122" fill="#444" class="heatmap-cell"><title>2024-01-03: 0.0km (0 activities)</title></rect><rect width="18" height="18" x="25" y="143" fill="#444" class="heatmap-cell"><title>2024-01-04: 0.0km (0 activities)</title></rect><rect width="18" height="18" x="25" y="164" fill="#444" class="heatmap-cell"><title>2024-01-05: 0.0km (0 activities)</title></rect><rect width="18" height="18" x="25" y="185" fill="#444" class="heatmap-cell"><title>2024-01-06: 0.0km (0 activities)</title></rect><rect width="18" height="18" x="25" y="206" fill="#444" class="heatmap-cell"><title>2024-01-07: 0.0km (0 activities)</title></rect><rect width="18" height="18" x="46" y="80" fill="#444" class="heatmap-cell"><title>2024-01-08: 0.0km (0 activities)</title></rect><rect width="18" height="18" x="46" y="101" fill="#444" class="heatmap-cell"><title>2024-01-09: 0.0km (0 activities)</title></rect><rect width="18" height="18" x="46" y="122" fill="#444" class="heatmap-cell"><title>2024-01-10: 0.0km (0 activities)</title></rect><rect width="18" height="18" x="46" y="143" fill="#444" class="heatmap-cell"><title>2024-01-11: 0.0km (0 activities)</title></rect><rect width="18" height="18" x="46" y="164" fill="#444" class="heatmap-cell"><title>2024-01-12: 0.0km (0 activities)</title></rect><rect width="18" height="18" x="46" y="185" fill="#444" class="heatmap-cell"><title>2024-01-13: 0.0km (0 activities)</title></rect><rect width="18" height="18" x="46" y="206" fill="#444" class="heatmap-cell"><title>2024-01-14: 0.0km (0 activities)</title></rect><rect width="18" height="18" x="67" y="80" fill="#444" class="heatmap-cell"><title>2024-01-15: 0.0km (0 activities)</title></rect><rect width="18" height="18" x="67" y="101" fill="#444" class="heatmap-cell"><title>2024-01-16: 0.0km (0 activities)</title></rect><rect width="18" height="18" x="67" y="122" fill="#444" class="heatmap-cell"><title>2024-01-17: 0.0km (0 activities)</title></rect><rect width="18" height="18" x="67" y="143" fill="#444" class="heatmap-cell"><title>2024-01-18: 0.0km (0 activities)</title></rect><rect width="18" height="18" x="67" y="164" fill="#444" class="heatmap-cell"><title>2024-01-19: 0.0km (0 activities)</title></rect><rect width="18" height="18" x="67" y="185" fill="#444" class="heatmap-cell"><title>2024-01-20: 0.0km (0 activities)</title></rect><rect width="18" height="18" x="67" y="206" fill="#444" class="heatmap-cell"><title>2024-01-21: 0.0km (0 activities)</title></rect><rect width="18" height="18" x="88" y="80" fill="#444" class="heatmap-cell"><title>2024-01-22: 0.0km (0 activities)</title></rect><rect width="18" height="18" x="88" y="101" fill="#444" class="heatmap-cell"><title>2024-01-23: 0.0km (0 activities)</title></rect><rect width="18" height="18" x="88" y="122" fill="#444" class="heatmap-cell"><title>2024-01-24: 0.0km (0 activities)</title></rect><rect width="18" height="18" x="88" y="143" fill="#444" class="heatmap-cell"><title>2024-01-25: 0.0km (0 activities)</title></rect><rect width="18" height="18" x="88" y="164" fill="#444" class="heatmap-cell"><title>2024-01-26: 0.0km (0 activities)</title></rect><rect width="18" height="18" x="88" y="185" fill="#444" class="heatmap-cell"><title>2024-01-27: 0.0km (0 activities)</title></rect><rect width="18" height="18" x="88" y="206" fill="#444" class="heatmap-cell"><title>2024-01-28: 0.0km (0 activities)</title></rect><rect width="18" height="18" x="109" y="80" fill="#444" class="heatmap-cell"><title>2024-01-29: 0.0km (0 activities)</title></rect><rect width="18" height="18" x="109" y="101" fill="#444" class="heatmap-cell"><title>2024-01-30: 0.0km (0 activities)</title></rect><rect width="18" height="18" x="109" y="122" fill="#444" class="heatmap-cell"><title>2024-01-31: 0.0km (0 activities)</title></rect><rect width="18" height="18" x="109" y="143" fill="#444" class="heatmap-cell"><title>2024-02-01: 0.0km (0 activities)</title></rect><rect width="18" height="18" x="109" y="164" fill="#444" class="heatmap-cell"><title>2024-02-02: 0.0km (0 activities)</title></rect><rect width="18" height="18" x="109" y="185" fill="#444" class="heatmap-cell"><title>2024-02-03: 0.0km (0 activities)</title></rect><rect width="18" height="18" x="109" y="206" fill="#444" class="heatmap-cell"><title>2024-02-04: 0.0km (0 activities)</title></rect><rect width="18" height="18" x="130" y="80" fill="#444" class="heatmap-cell"><title>2024-02-05: 0.0km (0 activities)</title></rect><rect width="18" height="18" x="130" y="101" fill="#444" class="heatmap-cell"><title>2024-02-06: 0.0km (0 activities)</title></rect><rect width="18" height="18" x="130" y="122" fill="#444" class="heatmap-cell"><title>2024-02-07: 0.0km (0 activities)</title></rect><rect width="18" height="18" x="130" y="143" fill="#444" class="heatmap-cell"><title>2024-02-08: 0.0km (0 activities)</title></rect><rect width="18" height="18" x="130" y="164" fill="#444" class="heatmap-cell"><title>2024-02-09: 0.0km (0 activities)</title></rect><rect width="18" height="18" x="130" y="185" fill="#444" class="heatmap-cell"><title>2024-02-10: 0.0km (0 activities)</title></rect><rect width="18" height="18" x="130" y="206" fill="#444" class="heatmap-cell"><title>2024-02-11: 0.0km (0 activities)</title></rect><rect width="18" height="18" x="151" y="80" fill="#444" class="heatmap-cell"><title>2024-02-12: 0.0km (0 activities)</title></rect><rect width="18" height="18" x="151" y="101" fill="#444" class="heatmap-cell"><title>2024-02-13: 0.0km (0 activities)</title></rect><rect width="18" height="18" x="151" y="122" fill="#444" class="heatmap-cell"><title>2024-02-14: 0.0km (0 activities)</title></rect><rect width="18" height="18" x="151" y="143" fill="#444" class="heatmap-cell"><title>2024-02-15: 0.0km (0 activities)</title></rect><rect width="18" height="18" x="151" y="164" fill="#444" class="heatmap-cell"><title>2024-02-16: 0.0km (0 activities)</title></rect><rect width="18" height="18" x="151" y="185" fill="#444" class="heatmap-cell"><title>2024-02-17: 0.0km (0 activities)</title></rect><rect width="18" height="18" x="151" y="206" fill="#444" class="heatmap-cell"><title>2024-02-18: 0.0km (0 activities)</title></rect><rect width="18" height="18" x="172" y="80" fill="#444" class="heatmap-cell"><title>2024-02-19: 0.0km (0 activities)</title></rect><rect width="18" height="18" x="172" y="101" fill="#444" class="heatmap-cell"><title>2024-02-20: 0.0km (0 activities)</title></rect><rect width="18" height="18" x="172" y="122" fill="#444" class="heatmap-cell"><title>2024-02-21: 0.0km (0 activities)</title></rect><rect width="18" height="18" x="172" y="143" fill="#444" class="heatmap-cell"><title>2024-02-22: 0.0km (0 activities)</title></rect><rect width="18" height="18" x="172" y="164" fill="#444" class="heatmap-cell"><title>2024-02-23: 0.0km (0 activities)</title></rect><rect width="18" height="18" x="172" y="185" fill="#444" class="heatmap-cell"><title>2024-02-24: 0.0km (0 activities)</title></rect><rect width="18" height="18" x="172" y="206" fill="#444" class="heatmap-cell"><title>2024-02-25: 0.0km (0 activities)</title></rect><rect width="18" height="18" x="193" y="80" fill="#444" class="heatmap-cell"><title>2024-02-26: 0.0km (0 activities)</title></rect><rect width="18" height="18" x="193" y="101" fill="#444" class="heatmap-cell"><title>2024-02-27: 0.0km (0 activities)</title></rect><rect width="18" height="18" x="193" y="122" fill="#444" class="heatmap-cell"><title>2024-02-28: 0.0km (0 activities)</title></rect><rect width="18" height="18" x="193" y="143" fill="#444" class="heatmap-cell"><title>2024-02-29: 0.0km (0 activities)</title></rect><rect width="18" height="18" x="193" y="164" fill="#444" class="heatmap-cell"><title>2024-03-01: 0.0km (0 activities)</title></rect><rect width="18" height="18" x="193" y="185" fill="#444" class="heatmap-cell"><title>2024-03-02: 0.0km (0 activities)</title></rect><rect width="18" height="18" x="193" y="206" fill="#444" class="heatmap-cell"><title>2024-03-03: 0.0km (0 activities)</title></rect><rect width="18" height="18" x="214" y="80" fill="#444" class="heatmap-cell"><title>2024-03-04: 0.0km (0 activities)</title></rect><rect width="18" height="18" x="214" y="101" fill="#444" class="heatmap-cell"><title>2024-03-05: 0.0km (0 activities)</title></rect><rect width="18" height="18" x="214" y="122" fill="#444" class="heatmap-cell"><title>2024-03-06: 0.0km (0 activities)</title></rect><rect width="18" height="18" x="214" y="143" fill="#444" class="heatmap-cell"><title>2024-03-07: 0.0km (0 activities)</title></rect><rect width="18" height="18" x="214" y="164" fill="#444" class="heatmap-cell"><title>2024-03-08: 0.0km (0 activities)</title></rect><rect width="18" height="18" x="214" y="185" fill="#444" class="heatmap-cell"><title>2024-03-09: 0.0km (0 activities)</title></rect><rect width="18" height="18" x="214" y="206" fill="#444" class="heatmap-cell"><title>2024-03-10: 0.0km (0 activities)</title></rect><rect width="18" height="18" x="235" y="80" fill="#444" class="heatmap-cell"><title>2024-03-11: 0.0km (0 activities)</title></rect><rect width="18" height="18" x="235" y="101" fill="#444" class="heatmap-cell"><title>2024-03-12: 0.0km (0 activities)</title></rect><rect width="18" height="18" x="235" y="122" fill="#444" class="heatmap-cell"><title>2024-03-13: 0.0km (0 activities)</title></rect><rect width="18" height="18" x="235" y="143" fill="#444" class="heatmap-cell"><title>2024-03-14: 0.0km (0 activities)</title></rect><rect width="18" height="18" x="235" y="164" fill="#444" class="heatmap-cell"><title>2024-03-15: 0.0km (0 activities)</title></rect><rect width="18" height="18" x="235" y="185" fill="#444" class="heatmap-cell"><title>2024-03-16: 0.0km (0 activities)</title></rect><rect width="18" height="18" x="235" y="206" fill="#444" class="heatmap-cell"><title>2024-03-17: 0.0km (0 activities)</title></rect><rect width="18" height="18" x="256" y="80" fill="#444" class="heatmap-cell"><title>2024-03-18: 0.0km (0 activities)</title></rect><rect width="18" height="18" x="256" y="101" fill="#444" class="heatmap-cell"><title>2024-03-19: 0.0km (0 activities)</title></rect><rect width="18" height="18" x="256" y="122" fill="#444" class="heatmap-cell"><title>2024-03-20: 0.0km (0 activities)</title></rect><rect width="18" height="18" x="256" y="143" fill="#444" class="heatmap-cell"><title>2024-03-21: 0.0km (0 activities)</title></rect><rect width="18" height="18" x="256" y="164" fill="#444" class="heatmap-cell"><title>2024-03-22: 0.0km (0 activities)</title></rect><rect width="18" height="18" x="256" y="185" fill="#444" class="heatmap-cell"><title>2024-03-23: 0.0km (0 activities)</title></rect><rect width="18" height="18" x="256" y="206" fill="#444" class="heatmap-cell"><title>2024-03-24: 0.0km (0 activities)</title></rect><rect width="18" height="18" x="277" y="80" fill="#444" class="heatmap-cell"><title>2024-03-25: 0.0km (0 activities)</title></rect><rect width="18" height="18" x="277" y="101" fill="#444" class="heatmap-cell"><title>2024-03-26: 0.0km (0 activities)</title></rect><rect width="18" height="18" x="277" y="122" fill="#444" class="heatmap-cell"><title>2024-03-27: 0.0km (0 activities)</title></rect><rect width="18" height="18" x="277" y="143" fill="#444" class="heatmap-cell"><title>2024-03-28: 0.0km (0 activities)</title></rect><rect width="18" height="18" x="277" y="164" fill="#444" class="heatmap-cell"><title>2024-03-29: 0.0km (0 activities)</title></rect><rect width="18" height="18" x="277" y="185" fill="#444" class="heatmap-cell"><title>2024-03-30: 0.0km (0 activities)</title></rect><rect width="18" height="18" x="277" y="206" fill="#444" class="heatmap-cell"><title>2024-03-31: 0.0km (0 activities)</title></rect><rect width="18" height="18" x="298" y="80" fill="#444" class="heatmap-cell"><title>2024-04-01: 0.0km (0 activities)</title></rect><rect width="18" height="18" x="298" y="101" fill="#444" class="heatmap-cell"><title>2024-04-02: 0.0km (0 activities)</title></rect><rect width="18" height="18" x="298" y="122" fill="#444" class="heatmap-cell"><title>2024-04-03: 0.0km (0 activities)</title></rect><rect width="18" height="18" x="298" y="143" fill="#444" class="heatmap-cell"><title>2024-04-04: 0.0km (0 activities)</title></rect><rect width="18" height="18" x="298" y="164" fill="#444" class="heatmap-cell"><title>2024-04-05: 0.0km (0 activities)</title></rect><rect width="18" height="18" x="298" y="185" fill="#444" class="heatmap-cell"><title>2024-04-06: 0.0km (0 activities)</title></rect><rect width="18" height="18" x="298" y="206" fill="#444" class="heatmap-cell"><title>2024-04-07: 0.0km (0 activities)</title></rect><rect width="18" height="18" x="319" y="80" fill="#444" class="heatmap-cell"><title>2024-04-08: 0.0km (0 activities)</title></rect><rect width="18" height="18" x="319" y="101" fill="#444" class="heatmap-cell"><title>2024-04-09: 0.0km (0 activities)</title></rect><rect width="18" height="18" x="319" y="122" fill="#444" class="heatmap-cell"><title>2024-04-10: 0.0km (0 activities)</title></rect><rect width="18" height="18" x="319" y="143" fill="#444" class="heatmap-cell"><title>2024-04-11: 0.0km (0 activities)</title></rect><rect width="18" height="18" x="319" y="164" fill="#444" class="heatmap-cell"><title>2024-04-12: 0.0km (0 activities)</title></rect><rect width="18" height="18" x="319" y="185" fill="#444" class="heatmap-cell"><title>2024-04-13: 0.0km (0 activities)</title></rect><rect width="18" height="18" x="319" y="206" fill="#444" class="heatmap-cell"><title>2024-04-14: 0.0km (0 activities)</title></rect><rect width="18" height="18" x="340" y="80" fill="#444" class="heatmap-cell"><title>2024-04-15: 0.0km (0 activities)</title></rect><rect width="18" height="18" x="340" y="101" fill="#444" class="heatmap-cell"><title>2024-04-16: 0.0km (0 activities)</title></rect><rect width="18" height="18" x="340" y="122" fill="#444" class="heatmap-cell"><title>2024-04-17: 0.0km (0 activities)</title></rect><rect width="18" height="18" x="340" y="143" fill="#444" class="heatmap-cell"><title>2024-04-18: 0.0km (0 activities)</title></rect><rect width="18" height="18" x="340" y="164" fill="#444" class="heatmap-cell"><title>2024-04-19: 0.0km (0 activities)</title></rect><rect width="18" height="18" x="340" y="185" fill="#444" class="heatmap-cell"><title>2024-04-20: 0.0km (0 activities)</title></rect><rect width="18" height="18" x="340" y="206" fill="#444" class="heatmap-cell"><title>2024-04-21: 0.0km (0 activities)</title></rect><rect width="18" height="18" x="361" y="80" fill="#444" class="heatmap-cell"><title>2024-04-22: 0.0km (0 activities)</title></rect><rect width="18" height="18" x="361" y="101" fill="#444" class="heatmap-cell"><title>2024-04-23: 0.0km (0 activities)</title></rect><rect width="18" height="18" x="361" y="122" fill="#444" class="heatmap-cell"><title>2024-04-24: 0.0km (0 activities)</title></rect><rect width="18" height="18" x="361" y="143" fill="#444" class="heatmap-cell"><title>2024-04-25: 0.0km (0 activities)</title></rect><rect width="18" height="18" x="361" y="164" fill="#444" class="heatmap-cell"><title>2024-04-26: 0.0km (0 activities)</title></rect><rect width="18" height="18" x="361" y="185" fill="#444" class="heatmap-cell"><title>2024-04-27: 0.0km (0 activities)</title></rect><rect width="18" height="18" x="361" y="206" fill="#444" class="heatmap-cell"><title>2024-04-28: 0.0km (0 activities)</title></rect><rect width="18" height="18" x="382" y="80" fill="#444" class="heatmap-cell"><title>2024-04-29: 0.0km (0 activities)</title></rect><rect width="18" height="18" x="382" y="101" fill="#444" class="heatmap-cell"><title>2024-04-30: 0.0km (0 activities)</title></rect><rect width="18" height="18" x="382" y="122" fill="#444" class="heatmap-cell"><title>2024-05-01: 0.0km (0 activities)</title></rect><rect width="18" height="18" x="382" y="143" fill="#444" class="heatmap-cell"><title>2024-05-02: 0.0km (0 activities)</title></rect><rect width="18" height="18" x="382" y="164" fill="#444" class="heatmap-cell"><title>2024-05-03: 0.0km (0 activities)</title></rect><rect width="18" height="18" x="382" y="185" fill="#444" class="heatmap-cell"><title>2024-05-04: 0.0km (0 activities)</title></rect><rect width="18" height="18" x="382" y="206" fill="#444" class="heatmap-cell"><title>2024-05-05: 0.0km (0 activities)</title></rect><rect width="18" height="18" x="403" y="80" fill="#444" class="heatmap-cell"><title>2024-05-06: 0.0km (0 activities)</title></rect><rect width="18" height="18" x="403" y="101" fill="#444" class="heatmap-cell"><title>2024-05-07: 0.0km (0 activities)</title></rect><rect width="18" height="18" x="403" y="122" fill="#444" class="heatmap-cell"><title>2024-05-08: 0.0km (0 activities)</title></rect><rect width="18" height="18" x="403" y="143" fill="#444" class="heatmap-cell"><title>2024-05-09: 0.0km (0 activities)</title></rect><rect width="18" height="18" x="403" y="164" fill="#444" class="heatmap-cell"><title>2024-05-10: 0.0km (0 activities)</title></rect><rect width="18" height="18" x="403" y="185" fill="#444" class="heatmap-cell"><title>2024-05-11: 0.0km (0 activities)</title></rect><rect width="18" height="18" x="403" y="206" fill="#444" class="heatmap-cell"><title>2024-05-12: 0.0km (0 activities)</title></rect><rect width="18" height="18" x="424" y="80" fill="#444" class="heatmap-cell"><title>2024-05-13: 0.0km (0 activities)</title></rect><rect width="18" height="18" x="424" y="101" fill="#444" class="heatmap-cell"><title>2024-05-14: 0.0km (0 activities)</title></rect><rect width="18" height="18" x="424" y="122" fill="#444" class="heatmap-cell"><title>2024-05-15: 0.0km (0 activities)</title></rect><rect width="18" height="18" x="424" y="143" fill="#444" class="heatmap-cell"><title>2024-05-16: 0.0km (0 activities)</title></rect><rect width="18" height="18" x="424" y="164" fill="#444" class="heatmap-cell"><title>2024-05-17: 0.0km (0 activities)</title></rect><rect width="18" height="18" x="424" y="185" fill="#444" class="heatmap-cell"><title>2024-05-18: 0.0km (0 activities)</title></rect><rect width="18" height="18" x="424" y="206" fill="#444" class="heatmap-cell"><title>2024-05-19: 0.0km (0 activities)</title></rect><rect width="18" height="18" x="445" y="80" fill="#444" class="heatmap-cell"><title>2024-05-20: 0.0km (0 activities)</title></rect><rect width="18" height="18" x="445" y="101" fill="#444" class="heatmap-cell"><title>2024-05-21: 0.0km (0 activities)</title></rect><rect width="18" height="18" x="445" y="122" fill="#444" class="heatmap-cell"><title>2024-05-22: 0.0km (0 activities)</title></rect><rect width="18" height="18" x="445" y="143" fill="#444" class="heatmap-cell"><title>2024-05-23: 0.0km (0 activities)</title></rect><rect width="18" height="18" x="445" y="164" fill="#444" class="heatmap-cell"><title>2024-05-24: 0.0km (0 activities)</title></rect><rect width="18" height="18" x="445" y="185" fill="#444" class="heatmap-cell"><title>2024-05-25: 0.0km (0 activities)</title></rect><rect width="18" height="18" x="445" y="206" fill="#444" class="heatmap-cell"><title>2024-05-26: 0.0km (0 activities)</title></rect><rect width="18" height="18" x="466" y="80" fill="#444" class="heatmap-cell"><title>2024-05-27: 0.0km (0 activities)</title></rect><rect width="18" height="18" x="466" y="101" fill="#444" class="heatmap-cell"><title>2024-05-28: 0.0km (0 activities)</title></rect><rect width="18" height="18" x="466" y="122" fill="#444" class="heatmap-cell"><title>2024-05-29: 0.0km (0 activities)</title></rect><rect width="18" height="18" x="466" y="143" fill="#444" class="heatmap-cell"><title>2024-05-30: 0.0km (0 activities)</title></rect><rect width="18" height="18" x="466" y="164" fill="#444" class="heatmap-cell"><title>2024-05-31: 0.0km (0 activities)</title></rect><rect width="18" height="18" x="466" y="185" fill="#444" class="heatmap-cell"><title>2024-06-01: 0.0km (0 activities)</title></rect><rect width="18" height="18" x="466" y="206" fill="#444" class="heatmap-cell"><title>2024-06-02: 0.0km (0 activities)</title></rect><rect width="18" height="18" x="487" y="80" fill="#444" class="heatmap-cell"><title>2024-06-03: 0.0km (0 activities)</title></rect><rect width="18" height="18" x="487" y="101" fill="#444" class="heatmap-cell"><title>2024-06-04: 0.0km (0 activities)</title></rect><rect width="18" height="18" x="487" y="122" fill="#444" class="heatmap-cell"><title>2024-06-05: 0.0km (0 activities)</title></rect><rect width="18" height="18" x="487" y="143" fill="#444" class="heatmap-cell"><title>2024-06-06: 0.0km (0 activities)</title></rect><rect width="18" height="18" x="487" y="164" fill="#444" class="heatmap-cell"><title>2024-06-07: 0.0km (0 activities)</title></rect><rect width="18" height="18" x="487" y="185" fill="#444" class="heatmap-cell"><title>2024-06-08: 0.0km (0 activities)</title></rect><rect width="18" height="18" x="487" y="206" fill="#444" class="heatmap-cell"><title>2024-06-09: 0.0km (0 activities)</title></rect><rect width="18" height="18" x="508" y="80" fill="#444" class="heatmap-cell"><title>2024-06-10: 0.0km (0 activities)</title></rect><rect width="18" height="18" x="508" y="101" fill="#444" class="heatmap-cell"><title>2024-06-11: 0.0km (0 activities)</title></rect><rect width="18" height="18" x="508" y="122" fill="#444" class="heatmap-cell"><title>2024-06-12: 0.0km (0 activities)</title></rect><rect width="18" height="18" x="508" y="143" fill="#444" class="heatmap-cell"><title>2024-06-13: 0.0km (0 activities)</title></rect><rect width="18" height="18" x="508" y="164" fill="#444" class="heatmap-cell"><title>2024-06-14: 0.0km (0 activities)</title></rect><rect width="18" height="18" x="508" y="185" fill="#444" class="heatmap-cell"><title>2024-06-15: 0.0km (0 activities)</title></rect><rect width="18" height="18" x="508" y="206" fill="#444" class="heatmap-cell"><title>2024-06-16: 0.0km (0 activities)</title></rect><rect width="18" height="18" x="529" y="80" fill="#444" class="heatmap-cell"><title>2024-06-17: 0.0km (0 activities)</title></rect><rect width="18" height="18" x="529" y="101" fill="#444" class="heatmap-cell"><title>2024-06-18: 0.0km (0 activities)</title></rect><rect width="18" height="18" x="529" y="122" fill="#444" class="heatmap-cell"><title>2024-06-19: 0.0km (0 activities)</title></rect><rect width="18" height="18" x="529" y="143" fill="#444" class="heatmap-cell"><title>2024-06-20: 0.0km (0 activities)</title></rect><rect width="18" height="18" x="529" y="164" fill="#444" class="heatmap-cell"><title>2024-06-21: 0.0km (0 activities)</title></rect><rect width="18" height="18" x="529" y="185" fill="#444" class="heatmap-cell"><title>2024-06-22: 0.0km (0 activities)</title></rect><rect width="18" height="18" x="529" y="206" fill="#444" class="heatmap-cell"><title>2024-06-23: 0.0km (0 activities)</title></rect><rect width="18" height="18" x="550" y="80" fill="#444" class="heatmap-cell"><title>2024-06-24: 0.0km (0 activities)</title></rect><rect width="18" height="18" x="550" y="101" fill="#444" class="heatmap-cell"><title>2024-06-25: 0.0km (0 activities)</title></rect><rect width="18" height="18" x="550" y="122" fill="#444" class="heatmap-cell"><title>2024-06-26: 0.0km (0 activities)</title></rect><rect width="18" height="18" x="550" y="143" fill="#444" class="heatmap-cell"><title>2024-06-27: 0.0km (0 activities)</title></rect><rect width="18" height="18" x="550" y="164" fill="#444" class="heatmap-cell"><title>2024-06-28: 0.0km (0 activities)</title></rect><rect width="18" height="18" x="550" y="185" fill="#444" class="heatmap-cell"><title>2024-06-29: 0.0km (0 activities)</title></rect><rect width="18" height="18" x="550" y="206" fill="#444" class="heatmap-cell"><title>2024-06-30: 0.0km (0 activities)</title></rect><rect width="18" height="18" x="571" y="80" fill="#444" class="heatmap-cell"><title>2024-07-01: 0.0km (0 activities)</title></rect><rect width="18" height="18" x="571" y="101" fill="#444" class="heatmap-cell"><title>2024-07-02: 0.0km (0 activities)</title></rect><rect width="18" height="18" x="571" y="122" fill="#444" class="heatmap-cell"><title>2024-07-03: 0.0km (0 activities)</title></rect><rect width="18" height="18" x="571" y="143" fill="#444" class="heatmap-cell"><title>2024-07-04: 0.0km (0 activities)</title></rect><rect width="18" height="18" x="571" y="164" fill="#444" class="heatmap-cell"><title>2024-07-05: 0.0km (0 activities)</title></rect><rect width="18" height="18" x="571" y="185" fill="#444" class="heatmap-cell"><title>2024-07-06: 0.0km (0 activities)</title></rect><rect width="18" height="18" x="571" y="206" fill="#444" class="heatmap-cell"><title>2024-07-07: 0.0km (0 activities)</title></rect><rect width="18" height="18" x="592" y="80" fill="#444" class="heatmap-cell"><title>2024-07-08: 0.0km (0 activities)</title></rect><rect width="18" height="18" x="592" y="101" fill="#444" class="heatmap-cell"><title>2024-07-09: 0.0km (0 activities)</title></rect><rect width="18" height="18" x="592" y="122" fill="#444" class="heatmap-cell"><title>2024-07-10: 0.0km (0 activities)</title></rect><rect width="18" height="18" x="592" y="143" fill="#444" class="heatmap-cell"><title>2024-07-11: 0.0km (0 activities)</title></rect><rect width="18" height="18" x="592" y="164" fill="#444" class="heatmap-cell"><title>2024-07-12: 0.0km (0 activities)</title></rect><rect width="18" height="18" x="592" y="185" fill="#444" class="heatmap-cell"><title>2024-07-13: 0.0km (0 activities)</title></rect><rect width="18" height="18" x="592" y="206" fill="#444" class="heatmap-cell"><title>2024-07-14: 0.0km (0 activities)</title></rect><rect width="18" height="18" x="613" y="80" fill="#444" class="heatmap-cell"><title>2024-07-15: 0.0km (0 activities)</title></rect><rect width="18" height="18" x="613" y="101" fill="#444" class="heatmap-cell"><title>2024-07-16: 0.0km (0 activities)</title></rect><rect width="18" height="18" x="613" y="122" fill="#444" class="heatmap-cell"><title>2024-07-17: 0.0km (0 activities)</title></rect><rect width="18" height="18" x="613" y="143" fill="#444" class="heatmap-cell"><title>2024-07-18: 0.0km (0 activities)</title></rect><rect width="18" height="18" x="613" y="164" fill="#444" class="heatmap-cell"><title>2024-07-19: 0.0km (0 activities)</title></rect><rect width="18" height="18" x="613" y="185" fill="#444" class="heatmap-cell"><title>2024-07-20: 0.0km (0 activities)</title></rect><rect width="18" height="18" x="613" y="206" fill="#444" class="heatmap-cell"><title>2024-07-21: 0.0km (0 activities)</title></rect><rect width="18" height="18" x="634" y="80" fill="#444" class="heatmap-cell"><title>2024-07-22: 0.0km (0 activities)</title></rect><rect width="18" height="18" x="634" y="101" fill="#444" class="heatmap-cell"><title>2024-07-23: 0.0km (0 activities)</title></rect><rect width="18" height="18" x="634" y="122" fill="#444" class="heatmap-cell"><title>2024-07-24: 0.0km (0 activities)</title></rect><rect width="18" height="18" x="634" y="143" fill="#444" class="heatmap-cell"><title>2024-07-25: 0.0km (0 activities)</title></rect><rect width="18" height="18" x="634" y="164" fill="#444" class="heatmap-cell"><title>2024-07-26: 0.0km (0 activities)</title></rect><rect width="18" height="18" x="634" y="185" fill="#444" class="heatmap-cell"><title>2024-07-27: 0.0km (0 activities)</title></rect><rect width="18" height="18" x="634" y="206" fill="#444" class="heatmap-cell"><title>2024-07-28: 0.0km (0 activities)</title></rect><rect width="18" height="18" x="655" y="80" fill="#444" class="heatmap-cell"><title>2024-07-29: 0.0km (0 activities)</title></rect><rect width="18" height="18" x="655" y="101" fill="#444" class="heatmap-cell"><title>2024-07-30: 0.0km (0 activities)</title></rect><rect width="18" height="18" x="655" y="122" fill="#444" class="heatmap-cell"><title>2024-07-31: 0.0km (0 activities)</title></rect><rect width="18" height="18" x="655" y="143" fill="#444" class="heatmap-cell"><title>2024-08-01: 0.0km (0 activities)</title></rect><rect width="18" height="18" x="655" y="164" fill="#444" class="heatmap-cell"><title>2024-08-02: 0.0km (0 activities)</title></rect><rect width="18" height="18" x="655" y="185" fill="#444" class="heatmap-cell"><title>2024-08-03: 0.0km (0 activities)</title></rect><rect width="18" height="18" x="655" y="206" fill="#444" class="heatmap-cell"><title>2024-08-04: 0.0km (0 activities)</title></rect><rect width="18" height="18" x="676" y="80" fill="#444" class="heatmap-cell"><title>2024-08-05: 0.0km (0 activities)</title></rect><rect width="18" height="18" x="676" y="101" fill="#444" class="heatmap-cell"><title>2024-08-06: 0.0km (0 activities)</title></rect><rect width="18" height="18" x="676" y="122" fill="#444" class="heatmap-cell"><title>2024-08-07: 0.0km (0 activities)</title></rect><rect width="18" height="18" x="676" y="143" fill="#444" class="heatmap-cell"><title>2024-08-08: 0.0km (0 activities)</title></rect><rect width="18" height="18" x="676" y="164" fill="#444" class="heatmap-cell"><title>2024-08-09: 0.0km (0 activities)</title></rect><rect width="18" height="18" x="676" y="185" fill="#444" class="heatmap-cell"><title>2024-08-10: 0.0km (0 activities)</title></rect><rect width="18" height="18" x="676" y="206" fill="#444" class="heatmap-cell"><title>2024-08-11: 0.0km (0 activities)</title></rect><rect width="18" height="18" x="697" y="80" fill="#444" class="heatmap-cell"><title>2024-08-12: 0.0km (0 activities)</title></rect><rect width="18" height="18" x="697" y="101" fill="#444" class="heatmap-cell"><title>2024-08-13: 0.0km (0 activities)</title></rect><rect width="18" height="18" x="697" y="122" fill="#444" class="heatmap-cell"><title>2024-08-14: 0.0km (0 activities)</title></rect><rect width="18" height="18" x="697" y="143" fill="#444" class="heatmap-cell"><title>2024-08-15: 0.0km (0 activities)</title></rect><rect width="18" height="18" x="697" y="164" fill="#444" class="heatmap-cell"><title>2024-08-16: 0.0km (0 activities)</title></rect><rect width="18" height="18" x="697" y="185" fill="#444" class="heatmap-cell"><title>2024-08-17: 0.0km (0 activities)</title></rect><rect width="18" height="18" x="697" y="206" fill="#444" class="heatmap-cell"><title>2024-08-18: 0.0km (0 activities)</title></rect><rect width="18" height="18" x="718" y="80" fill="#444" class="heatmap-cell"><title>2024-08-19: 0.0km (0 activities)</title></rect><rect width="18" height="18" x="718" y="101" fill="#444" class="heatmap-cell"><title>2024-08-20: 0.0km (0 activities)</title></rect><rect width="18" height="18" x="718" y="122" fill="#444" class="heatmap-cell"><title>2024-08-21: 0.0km (0 activities)</title></rect><rect width="18" height="18" x="718" y="143" fill="#444" class="heatmap-cell"><title>2024-08-22: 0.0km (0 activities)</title></rect><rect width="18" height="18" x="718" y="164" fill="#444" class="heatmap-cell"><title>2024-08-23: 0.0km (0 activities)</title></rect><rect width="18" height="18" x="718" y="185" fill="#444" class="heatmap-cell"><title>2024-08-24: 0.0km (0 activities)</title></rect><rect width="18" height="18" x="718" y="206" fill="#444" class="heatmap-cell"><title>2024-08-25: 0.0km (0 activities)</title></rect><rect width="18" height="18" x="739" y="80" fill="#444" class="heatmap-cell"><title>2024-08-26: 0.0km (0 activities)</title></rect><rect width="18" height="18" x="739" y="101" fill="#444" class="heatmap-cell"><title>2024-08-27: 0.0km (0 activities)</title></rect><rect width="18" height="18" x="739" y="122" fill="#444" class="heatmap-cell"><title>2024-08-28: 0.0km (0 activities)</title></rect><rect width="18" height="18" x="739" y="143" fill="#444" class="heatmap-cell"><title>2024-08-29: 0.0km (0 activities)</title></rect><rect width="18" height="18" x="739" y="164" fill="#444" class="heatmap-cell"><title>2024-08-30: 0.0km (0 activities)</title></rect><rect width="18" height="18" x="739" y="185" fill="#444" class="heatmap-cell"><title>2024-08-31: 0.0km (0 activities)</title></rect><rect width="18" height="18" x="739" y="206" fill="#444" class="heatmap-cell"><title>2024-09-01: 0.0km (0 activities)</title></rect><rect width="18" height="18" x="760" y="80" fill="#444" class="heatmap-cell"><title>2024-09-02: 0.0km (0 activities)</title></rect><rect width="18" height="18" x="760" y="101" fill="#444" class="heatmap-cell"><title>2024-09-03: 0.0km (0 activities)</title></rect><rect width="18" height="18" x="760" y="122" fill="#444" class="heatmap-cell"><title>2024-09-04: 0.0km (0 activities)</title></rect><rect width="18" height="18" x="760" y="143" fill="#444" class="heatmap-cell"><title>2024-09-05: 0.0km (0 activities)</title></rect><rect width="18" height="18" x="760" y="164" fill="#444" class="heatmap-cell"><title>2024-09-06: 0.0km (0 activities)</title></rect><rect width="18" height="18" x="760" y="185" fill="#444" class="heatmap-cell"><title>2024-09-07: 0.0km (0 activities)</title></rect><rect width="18" height="18" x="760" y="206" fill="#444" class="heatmap-cell"><title>2024-09-08: 0.0km (0 activities)</title></rect><rect width="18" height="18" x="781" y="80" fill="#444" class="heatmap-cell"><title>2024-09-09: 0.0km (0 activities)</title></rect><rect width="18" height="18" x="781" y="101" fill="#444" class="heatmap-cell"><title>2024-09-10: 0.0km (0 activities)</title></rect><rect width="18" height="18" x="781" y="122" fill="#444" class="heatmap-cell"><title>2024-09-11: 0.0km (0 activities)</title></rect><rect width="18" height="18" x="781" y="143" fill="#444" class="heatmap-cell"><title>2024-09-12: 0.0km (0 activities)</title></rect><rect width="18" height="18" x="781" y="164" fill="#444" class="heatmap-cell"><title>2024-09-13: 0.0km (0 activities)</title></rect><rect width="18" height="18" x="781" y="185" fill="#444" class="heatmap-cell"><title>2024-09-14: 0.0km (0 activities)</title></rect><rect width="18" height="18" x="781" y="206" fill="#444" class="heatmap-cell"><title>2024-09-15: 0.0km (0 activities)</title></rect><rect width="18" height="18" x="802" y="80" fill="#444" class="heatmap-cell"><title>2024-09-16: 0.0km (0 activities)</title></rect><rect width="18" height="18" x="802" y="101" fill="#444" class="heatmap-cell"><title>2024-09-17: 0.0km (0 activities)</title></rect><rect width="18" height="18" x="802" y="122" fill="#444" class="heatmap-cell"><title>2024-09-18: 0.0km (0 activities)</title></rect><rect width="18" height="18" x="802" y="143" fill="#444" class="heatmap-cell"><title>2024-09-19: 0.0km (0 activities)</title></rect><rect width="18" height="18" x="802" y="164" fill="#444" class="heatmap-cell"><title>2024-09-20: 0.0km (0 activities)</title></rect><rect width="18" height="18" x="802" y="185" fill="#444" class="heatmap-cell"><title>2024-09-21: 0.0km (0 activities)</title></rect><rect width="18" height="18" x="802" y="206" fill="#444" class="heatmap-cell"><title>2024-09-22: 0.0km (0 activities)</title></rect><rect width="18" height="18" x="823" y="80" fill="#444" class="heatmap-cell"><title>2024-09-23: 0.0km (0 activities)</title></rect><rect width="18" height="18" x="823" y="101" fill="#444" class="heatmap-cell"><title>2024-09-24: 0.0km (0 activities)</title></rect><rect width="18" height="18" x="823" y="122" fill="#444" class="heatmap-cell"><title>2024-09-25: 0.0km (0 activities)</title></rect><rect width="18" height="18" x="823" y="143" fill="#444" class="heatmap-cell"><title>2024-09-26: 0.0km (0 activities)</title></rect><rect width="18" height="18" x="823" y="164" fill="#444" class="heatmap-cell"><title>2024-09-27: 0.0km (0 activities)</title></rect><rect width="18" height="18" x="823" y="185" fill="#444" class="heatmap-cell"><title>2024-09-28: 0.0km (0 activities)</title></rect><rect width="18" height="18" x="823" y="206" fill="#444" class="heatmap-cell"><title>2024-09-29: 0.0km (0 activities)</title></rect><rect width="18" height="18" x="844" y="80" fill="#444" class="heatmap-cell"><title>2024-09-30: 0.0km (0 activities)</title></rect><rect width="18" height="18" x="844" y="101" fill="#444" class="heatmap-cell"><title>2024-10-01: 0.0km (0 activities)</title></rect><rect width="18" height="18" x="844" y="122" fill="#444" class="heatmap-cell"><title>2024-10-02: 0.0km (0 activities)</title></rect><rect width="18" height="18" x="844" y="143" fill="#444" class="heatmap-cell"><title>2024-10-03: 0.0km (0 activities)</title></rect><rect width="18" height="18" x="844" y="164" fill="#444" class="heatmap-cell"><title>2024-10-04: 0.0km (0 activities)</title></rect><rect width="18" height="18" x="844" y="185" fill="#444" class="heatmap-cell"><title>2024-10-05: 0.0km (0 activities)</title></rect><rect width="18" height="18" x="844" y="206" fill="#444" class="heatmap-cell"><title>2024-10-06: 0.0km (0 activities)</title></rect><rect width="18" height="18" x="865" y="80" fill="#444" class="heatmap-cell"><title>2024-10-07: 0.0km (0 activities)</title></rect><rect width="18" height="18" x="865" y="101" fill="#444" class="heatmap-cell"><title>2024-10-08: 0.0km (0 activities)</title></rect><rect width="18" height="18" x="865" y="122" fill="#444" class="heatmap-cell"><title>2024-10-09: 0.0km (0 activities)</title></rect><rect width="18" height="18" x="865" y="143" fill="#444" class="heatmap-cell"><title>2024-10-10: 0.0km (0 activities)</title></rect><rect width="18" height="18" x="865" y="164" fill="#444" class="heatmap-cell"><title>2024-10-11: 0.0km (0 activities)</title></rect><rect width="18" height="18" x="865" y="185" fill="#444" class="heatmap-cell"><title>2024-10-12: 0.0km (0 activities)</title></rect><rect width="18" height="18" x="865" y="206" fill="#444" class="heatmap-cell"><title>2024-10-13: 0.0km (0 activities)</title></rect><rect width="18" height="18" x="886" y="80" fill="#444" class="heatmap-cell"><title>2024-10-14: 0.0km (0 activities)</title></rect><rect width="18" height="18" x="886" y="101" fill="#444" class="heatmap-cell"><title>2024-10-15: 0.0km (0 activities)</title></rect><rect width="18" height="18" x="886" y="122" fill="#444" class="heatmap-cell"><title>2024-10-16: 0.0km (0 activities)</title></rect><rect width="18" height="18" x="886" y="143" fill="#444" class="heatmap-cell"><title>2024-10-17: 0.0km (0 activities)</title></rect><rect width="18" height="18" x="886" y="164" fill="#ffeb00" class="heatmap-cell"><title>2024-10-18: 5.6km (2 activities)</title></rect><rect width="18" height="18" x="886" y="185" fill="#ffeb00" class="heatmap-cell"><title>2024-10-19: 6.9km (3 activities)</title></rect><rect width="18" height="18" x="886" y="206" fill="#ffeb00" class="heatmap-cell"><title>2024-10-20: 6.3km (2 activities)</title></rect><rect width="18" height="18" x="907" y="80" fill="#444" class="heatmap-cell"><title>2024-10-21: 0.0km (1 activities)</title></rect><rect width="18" height="18" x="907" y="101" fill="#ffef00" class="heatmap-cell"><title>2024-10-22: 3.8km (1 activities)</title></rect><rect width="18" height="18" x="907" y="122" fill="#444" class="heatmap-cell"><title>2024-10-23: 0.0km (1 activities)</title></rect><rect width="18" height="18" x="907" y="143" fill="#ffef00" class="heatmap-cell"><title>2024-10-24: 3.1km (2 activities)</title></rect><rect width="18" height="18" x="907" y="164" fill="#ffeb00" class="heatmap-cell"><title>2024-10-25: 5.3km (3 activities)</title></rect><rect width="18" height="18" x="907" y="185" fill="#444" class="heatmap-cell"><title>2024-10-26: 0.0km (2 activities)</title></rect><rect width="18" height="18" x="907" y="206" fill="#f4ea5c" class="heatmap-cell"><title>2024-10-27: 1.2km (1 activities)</title></rect><rect width="18" height="18" x="928" y="80" fill="#f4ea5c" class="heatmap-cell"><title>2024-10-28: 1.8km (1 activities)</title></rect><rect width="18" height="18" x="928" y="101" fill="red" class="heatmap-cell"><title>2024-10-29: 10.4km (3 activities)</title></rect><rect width="18" height="18" x="928" y="122" fill="#fff300" class="heatmap-cell"><title>2024-10-30: 2.1km (3 activities)</title></rect><rect width="18" height="18" x="928" y="143" fill="#ffeb00" class="heatmap-cell"><title>2024-10-31: 5.2km (2 activities)</title></rect><rect width="18" height="18" x="928" y="164" fill="#fff300" class="heatmap-cell"><title>2024-11-01: 2.4km (2 activities)</title></rect><rect width="18" height="18" x="928" y="185" fill="#fff300" class="heatmap-cell"><title>2024-11-02: 2.9km (3 activities)</title></rect><rect width="18" height="18" x="928" y="206" fill="#444" class="heatmap-cell"><title>2024-11-03: 0.0km (0 activities)</title></rect><rect width="18" height="18" x="949" y="80" fill="red" class="heatmap-cell"><title>2024-11-04: 10.1km (2 activities)</title></rect><rect width="18" height="18" x="949" y="101" fill="red" class="heatmap-cell"><title>2024-11-05: 7.9km (3 activities)</title></rect><rect width="18" height="18" x="949" y="122" fill="red" class="heatmap-cell"><title>2024-11-06: 11.3km (4 activities)</title></rect><rect width="18" height="18" x="949" y="143" fill="#ffe900" class="heatmap-cell"><title>2024-11-07: 4.5km (3 activities)</title></rect><rect width="18" height="18" x="949" y="164" fill="red" class="heatmap-cell"><title>2024-11-08: 9.4km (6 activities)</title></rect><rect width="18" height="18" x="949" y="185" fill="red" class="heatmap-cell"><title>2024-11-09: 20.0km (8 activities)</title></rect><rect width="18" height="18" x="949" y="206" fill="#444" class="heatmap-cell"><title>2024-11-10: 0.0km (1 activities)</title></rect><rect width="18" height="18" x="970" y="80" fill="#ffeb00" class="heatmap-cell"><title>2024-11-11: 5.3km (3 activities)</title></rect><rect width="18" height="18" x="970" y="101" fill="#ffeb00" class="heatmap-cell"><title>2024-11-12: 6.8km (6 activities)</title></rect><rect width="18" height="18" x="970" y="122" fill="#fff300" class="heatmap-cell"><title>2024-11-13: 2.1km (1 activities)</title></rect><rect width="18" height="18" x="970" y="143" fill="red" class="heatmap-cell"><title>2024-11-14: 9.1km (4 activities)</title></rect><rect width="18" height="18" x="970" y="164" fill="#ffef00" class="heatmap-cell"><title>2024-11-15: 3.0km (1 activities)</title></rect><rect width="18" height="18" x="970" y="185" fill="#ffeb00" class="heatmap-cell"><title>2024-11-16: 5.6km (2 activities)</title></rect><rect width="18" height="18" x="970" y="206" fill="red" class="heatmap-cell"><title>2024-11-17: 17.1km (3 activities)</title></rect><rect width="18" height="18" x="991" y="80" fill="#444" class="heatmap-cell"><title>2024-11-18: 0.0km (2 activities)</title></rect><rect width="18" height="18" x="991" y="101" fill="#fff300" class="heatmap-cell"><title>2024-11-19: 2.7km (3 activities)</title></rect><rect width="18" height="18" x="991" y="122" fill="#444" class="heatmap-cell"><title>2024-11-20: 0.0km (2 activities)</title></rect><rect width="18" height="18" x="991" y="143" fill="#444" class="heatmap-cell"><title>2024-11-21: 0.0km (1 activities)</title></rect><rect width="18" height="18" x="991" y="164" fill="#ffeb00" class="heatmap-cell"><title>2024-11-22: 5.2km (2 activities)</title></rect><rect width="18" height="18" x="991" y="185" fill="red" class="heatmap-cell"><title>2024-11-23: 11.4km (3 activities)</title></rect><rect width="18" height="18" x="991" y="206" fill="red" class="heatmap-cell"><title>2024-11-24: 21.1km (1 activities)</title></rect><rect width="18" height="18" x="1012" y="80" fill="#444" class="heatmap-cell"><title>2024-11-25: 0.0km (1 activities)</title></rect><rect width="18" height="18" x="1012" y="101" fill="#ffeb00" class="heatmap-cell"><title>2024-11-26: 5.2km (1 activities)</title></rect><rect width="18" height="18" x="1012" y="122" fill="#fff300" class="heatmap-cell"><title>2024-11-27: 2.7km (3 activities)</title></rect><rect width="18" height="18" x="1012" y="143" fill="red" class="heatmap-cell"><title>2024-11-28: 7.1km (2 activities)</title></rect><rect width="18" height="18" x="1012" y="164" fill="#ffeb00" class="heatmap-cell"><title>2024-11-29: 5.5km (1 activities)</title></rect><rect width="18" height="18" x="1012" y="185" fill="#ffeb00" class="heatmap-cell"><title>2024-11-30: 6.1km (1 activities)</title></rect><rect width="18" height="18" x="1012" y="206" fill="red" class="heatmap-cell"><title>2024-12-01: 11.3km (2 activities)</title></rect><rect width="18" height="18" x="1033" y="80" fill="red" class="heatmap-cell"><title>2024-12-02: 8.8km (3 activities)</title></rect><rect width="18" height="18" x="1033" y="101" fill="#ffeb00" class="heatmap-cell"><title>2024-12-03: 5.2km (1 activities)</title></rect><rect width="18" height="18" x="1033" y="122" fill="#ffeb00" class="heatmap-cell"><title>2024-12-04: 5.3km (2 activities)</title></rect><rect width="18" height="18" x="1033" y="143" fill="#444" class="heatmap-cell"><title>2024-12-05: 0.0km (1 activities)</title></rect><rect width="18" height="18" x="1033" y="164" fill="#ffeb00" class="heatmap-cell"><title>2024-12-06: 6.3km (2 activities)</title></rect><rect width="18" height="18" x="1033" y="185" fill="#ffeb00" class="heatmap-cell"><title>2024-12-07: 5.8km (1 activities)</title></rect><rect width="18" height="18" x="1033" y="206" fill="#444" class="heatmap-cell"><title>2024-12-08: 0.0km (0 activities)</title></rect><rect width="18" height="18" x="1054" y="80" fill="red" class="heatmap-cell"><title>2024-12-09: 11.2km (1 activities)</title></rect><rect width="18" height="18" x="1054" y="101" fill="#ffeb00" class="heatmap-cell"><title>2024-12-10: 5.6km (2 activities)</title></rect><rect width="18" height="18" x="1054" y="122" fill="#ffeb00" class="heatmap-cell"><title>2024-12-11: 5.2km (3 activities)</title></rect><rect width="18" height="18" x="1054" y="143" fill="#444" class="heatmap-cell"><title>2024-12-12: 0.0km (0 activities)</title></rect><rect width="18" height="18" x="1054" y="164" fill="#444" class="heatmap-cell"><title>2024-12-13: 0.0km (0 activities)</title></rect><rect width="18" height="18" x="1054" y="185" fill="red" class="heatmap-cell"><title>2024-12-14: 10.8km (3 activities)</title></rect><rect width="18" height="18" x="1054" y="206" fill="red" class="heatmap-cell"><title>2024-12-15: 13.7km (2 activities)</title></rect><rect width="18" height="18" x="1075" y="80" fill="#444" class="heatmap-cell"><title>2024-12-16: 0.0km (0 activities)</title></rect><rect width="18" height="18" x="1075" y="101" fill="#ffeb00" class="heatmap-cell"><title>2024-12-17: 5.2km (3 activities)</title></rect><rect width="18" height="18" x="1075" y="122" fill="#f4ec5e" class="heatmap-cell"><title>2024-12-18: 0.0km (3 activities)</title></rect><rect width="18" height="18" x="1075" y="143" fill="#ffeb00" class="heatmap-cell"><title>2024-12-19: 5.2km (1 activities)</title></rect><rect width="18" height="18" x="1075" y="164" fill="#444" class="heatmap-cell"><title>2024-12-20: 0.0km (0 activities)</title></rect><rect width="18" height="18" x="1075" y="185" fill="red" class="heatmap-cell"><title>2024-12-21: 8.3km (1 activities)</title></rect><rect width="18" height="18" x="1075" y="206" fill="#444" class="heatmap-cell"><title>2024-12-22: 0.0km (0 activities)</title></rect><rect width="18" height="18" x="1096" y="80" fill="red" class="heatmap-cell"><title>2024-12-23: 10.3km (1 activities)</title></rect><rect width="18" height="18" x="1096" y="101" fill="red" class="heatmap-cell"><title>2024-12-24: 8.1km (2 activities)</title></rect><rect width="18" height="18" x="1096" y="122" fill="red" class="heatmap-cell"><title>2024-12-25: 8.5km (2 activities)</title></rect><rect width="18" height="18" x="1096" y="143" fill="#ffeb00" class="heatmap-cell"><title>2024-12-26: 5.5km (1 activities)</title></rect><rect width="18" height="18" x="1096" y="164" fill="#444" class="heatmap-cell"><title>2024-12-27: 0.0km (0 activities)</title></rect><rect width="18" height="18" x="1096" y="185" fill="red" class="heatmap-cell"><title>2024-12-28: 11.0km (2 activities)</title></rect><rect width="18" height="18" x="1096" y="206" fill="red" class="heatmap-cell"><title>2024-12-29: 21.2km (1 activities)</title></rect><rect width="18" height="18" x="1117" y="80" fill="#444" class="heatmap-cell"><title>2024-12-30: 0.0km (0 activities)</title></rect><rect width="18" height="18" x="1117" y="101" fill="red" class="heatmap-cell"><title>2024-12-31: 9.7km (2 activities)</title></rect></svg>