<?xml version="1.0" encoding="utf-8" ?>
<svg baseProfile="full" height="120" version="1.1" viewBox="0,0,670.1428571428572,120" width="670.1428571428572" xmlns="http://www.w3.org/2000/svg">
<defs />
<rect fill="#222222" height="120" width="670.1428571428572" x="0" y="0" />
<text fill="#FFFFFF" style="font-size:11px; font-family:Arial; font-weight:bold;" text-anchor="start" x="10" y="12">419 km</text>
<text fill="#8b949e" style="font-size:9px; font-family:Arial;" text-anchor="start" x="10.0" y="25">Jan</text>
<text fill="#8b949e" style="font-size:9px; font-family:Arial;" text-anchor="start" x="59.1" y="25">Feb</text>
<text fill="#8b949e" style="font-size:9px; font-family:Arial;" text-anchor="start" x="108.3" y="25">Mar</text>
<text fill="#8b949e" style="font-size:9px; font-family:Arial;" text-anchor="start" x="169.7" y="25">Apr</text>
<text fill="#8b949e" style="font-size:9px; font-family:Arial;" text-anchor="start" x="218.9" y="25">May</text>
<text fill="#8b949e" style="font-size:9px; font-family:Arial;" text-anchor="start" x="268.0" y="25">Jun</text>
<text fill="#8b949e" style="font-size:9px; font-family:Arial;" text-anchor="start" x="329.4" y="25">Jul</text>
<text fill="#8b949e" style="font-size:9px; font-family:Arial;" text-anchor="start" x="378.6" y="25">Aug</text>
<text fill="#8b949e" style="font-size:9px; font-family:Arial;" text-anchor="start" x="427.7" y="25">Sep</text>
<text fill="#8b949e" style="font-size:9px; font-family:Arial;" text-anchor="start" x="489.1" y="25">Oct</text>
<text fill="#8b949e" style="font-size:9px; font-family:Arial;" text-anchor="start" x="538.3" y="25">Nov</text>
<text fill="#8b949e" style="font-size:9px; font-family:Arial;" text-anchor="start" x="587.4" y="25">Dec</text>
<rect x="10.0" y="27.0" width="11.3" height="11.3" fill="#444444" rx="1.1">
<title>2024-01-01</title>
</rect>
<rect x="10.0" y="39.3" width="11.3" height="11.3" fill="#444444" rx="1.1">
<title>2024-01-02</title>
</rect>
<rect x="10.0" y="51.6" width="11.3" height="11.3" fill="#444444" rx="1.1">
<title>2024-01-03</title>
</rect>
<rect x="10.0" y="63.9" width="11.3" height="11.3" fill="#444444" rx="1.1">
<title>2024-01-04</title>
</rect>
<rect x="10.0" y="76.1" width="11.3" height="11.3" fill="#444444" rx="1.1">
<title>2024-01-05</title>
</rect>
<rect x="10.0" y="88.4" width="11.3" height="11.3" fill="#444444" rx="1.1">
<title>2024-01-06</title>
</rect>
<rect x="10.0" y="100.7" width="11.3" height="11.3" fill="#444444" rx="1.1">
<title>2024-01-07</title>
</rect>
<rect x="22.3" y="27.0" width="11.3" height="11.3" fill="#444444" rx="1.1">
<title>2024-01-08</title>
</rect>
<rect x="22.3" y="39.3" width="11.3" height="11.3" fill="#444444" rx="1.1">
<title>2024-01-09</title>
</rect>
<rect x="22.3" y="51.6" width="11.3" height="11.3" fill="#444444" rx="1.1">
<title>2024-01-10</title>
</rect>
<rect x="22.3" y="63.9" width="11.3" height="11.3" fill="#444444" rx="1.1">
<title>2024-01-11</title>
</rect>
<rect x="22.3" y="76.1" width="11.3" height="11.3" fill="#444444" rx="1.1">
<title>2024-01-12</title>
</rect>
<rect x="22.3" y="88.4" width="11.3" height="11.3" fill="#444444" rx="1.1">
<title>2024-01-13</title>
</rect>
<rect x="22.3" y="100.7" width="11.3" height="11.3" fill="#444444" rx="1.1">
<title>2024-01-14</title>
</rect>
<rect x="34.6" y="27.0" width="11.3" height="11.3" fill="#444444" rx="1.1">
<title>2024-01-15</title>
</rect>
<rect x="34.6" y="39.3" width="11.3" height="11.3" fill="#444444" rx="1.1">
<title>2024-01-16</title>
</rect>
<rect x="34.6" y="51.6" width="11.3" height="11.3" fill="#444444" rx="1.1">
<title>2024-01-17</title>
</rect>
<rect x="34.6" y="63.9" width="11.3" height="11.3" fill="#444444" rx="1.1">
<title>2024-01-18</title>
</rect>
<rect x="34.6" y="76.1" width="11.3" height="11.3" fill="#444444" rx="1.1">
<title>2024-01-19</title>
</rect>
<rect x="34.6" y="88.4" width="11.3" height="11.3" fill="#444444" rx="1.1">
<title>2024-01-20</title>
</rect>
<rect x="34.6" y="100.7" width="11.3" height="11.3" fill="#444444" rx="1.1">
<title>2024-01-21</title>
</rect>
<rect x="46.9" y="27.0" width="11.3" height="11.3" fill="#444444" rx="1.1">
<title>2024-01-22</title>
</rect>
<rect x="46.9" y="39.3" width="11.3" height="11.3" fill="#444444" rx="1.1">
<title>2024-01-23</title>
</rect>
<rect x="46.9" y="51.6" width="11.3" height="11.3" fill="#444444" rx="1.1">
<title>2024-01-24</title>
</rect>
<rect x="46.9" y="63.9" width="11.3" height="11.3" fill="#444444" rx="1.1">
<title>2024-01-25</title>
</rect>
<rect x="46.9" y="76.1" width="11.3" height="11.3" fill="#444444" rx="1.1">
<title>2024-01-26</title>
</rect>
<rect x="46.9" y="88.4" width="11.3" height="11.3" fill="#444444" rx="1.1">
<title>2024-01-27</title>
</rect>
<rect x="46.9" y="100.7" width="11.3" height="11.3" fill="#444444" rx="1.1">
<title>2024-01-28</title>
</rect>
<rect x="59.1" y="27.0" width="11.3" height="11.3" fill="#444444" rx="1.1">
<title>2024-01-29</title>
</rect>
<rect x="59.1" y="39.3" width="11.3" height="11.3" fill="#444444" rx="1.1">
<title>2024-01-30</title>
</rect>
<rect x="59.1" y="51.6" width="11.3" height="11.3" fill="#444444" rx="1.1">
<title>2024-01-31</title>
</rect>
<rect x="59.1" y="63.9" width="11.3" height="11.3" fill="#444444" rx="1.1">
<title>2024-02-01</title>
</rect>
<rect x="59.1" y="76.1" width="11.3" height="11.3" fill="#444444" rx="1.1">
<title>2024-02-02</title>
</rect>
<rect x="59.1" y="88.4" width="11.3" height="11.3" fill="#444444" rx="1.1">
<title>2024-02-03</title>
</rect>
<rect x="59.1" y="100.7" width="11.3" height="11.3" fill="#444444" rx="1.1">
<title>2024-02-04</title>
</rect>
<rect x="71.4" y="27.0" width="11.3" height="11.3" fill="#444444" rx="1.1">
<title>2024-02-05</title>
</rect>
<rect x="71.4" y="39.3" width="11.3" height="11.3" fill="#444444" rx="1.1">
<title>2024-02-06</title>
</rect>
<rect x="71.4" y="51.6" width="11.3" height="11.3" fill="#444444" rx="1.1">
<title>2024-02-07</title>
</rect>
<rect x="71.4" y="63.9" width="11.3" height="11.3" fill="#444444" rx="1.1">
<title>2024-02-08</title>
</rect>
<rect x="71.4" y="76.1" width="11.3" height="11.3" fill="#444444" rx="1.1">
<title>2024-02-09</title>
</rect>
<rect x="71.4" y="88.4" width="11.3" height="11.3" fill="#444444" rx="1.1">
<title>2024-02-10</title>
</rect>
<rect x="71.4" y="100.7" width="11.3" height="11.3" fill="#444444" rx="1.1">
<title>2024-02-11</title>
</rect>
<rect x="83.7" y="27.0" width="11.3" height="11.3" fill="#444444" rx="1.1">
<title>2024-02-12</title>
</rect>
<rect x="83.7" y="39.3" width="11.3" height="11.3" fill="#444444" rx="1.1">
<title>2024-02-13</title>
</rect>
<rect x="83.7" y="51.6" width="11.3" height="11.3" fill="#444444" rx="1.1">
<title>2024-02-14</title>
</rect>
<rect x="83.7" y="63.9" width="11.3" height="11.3" fill="#444444" rx="1.1">
<title>2024-02-15</title>
</rect>
<rect x="83.7" y="76.1" width="11.3" height="11.3" fill="#444444" rx="1.1">
<title>2024-02-16</title>
</rect>
<rect x="83.7" y="88.4" width="11.3" height="11.3" fill="#444444" rx="1.1">
<title>2024-02-17</title>
</rect>
<rect x="83.7" y="100.7" width="11.3" height="11.3" fill="#444444" rx="1.1">
<title>2024-02-18</title>
</rect>
<rect x="96.0" y="27.0" width="11.3" height="11.3" fill="#444444" rx="1.1">
<title>2024-02-19</title>
</rect>
<rect x="96.0" y="39.3" width="11.3" height="11.3" fill="#444444" rx="1.1">
<title>2024-02-20</title>
</rect>
<rect x="96.0" y="51.6" width="11.3" height="11.3" fill="#444444" rx="1.1">
<title>2024-02-21</title>
</rect>
<rect x="96.0" y="63.9" width="11.3" height="11.3" fill="#444444" rx="1.1">
<title>2024-02-22</title>
</rect>
<rect x="96.0" y="76.1" width="11.3" height="11.3" fill="#444444" rx="1.1">
<title>2024-02-23</title>
</rect>
<rect x="96.0" y="88.4" width="11.3" height="11.3" fill="#444444" rx="1.1">
<title>2024-02-24</title>
</rect>
<rect x="96.0" y="100.7" width="11.3" height="11.3" fill="#444444" rx="1.1">
<title>2024-02-25</title>
</rect>
<rect x="108.3" y="27.0" width="11.3" height="11.3" fill="#444444" rx="1.1">
<title>2024-02-26</title>
</rect>
<rect x="108.3" y="39.3" width="11.3" height="11.3" fill="#444444" rx="1.1">
<title>2024-02-27</title>
</rect>
<rect x="108.3" y="51.6" width="11.3" height="11.3" fill="#444444" rx="1.1">
<title>2024-02-28</title>
</rect>
<rect x="108.3" y="63.9" width="11.3" height="11.3" fill="#444444" rx="1.1">
<title>2024-02-29</title>
</rect>
<rect x="108.3" y="76.1" width="11.3" height="11.3" fill="#444444" rx="1.1">
<title>2024-03-01</title>
</rect>
<rect x="108.3" y="88.4" width="11.3" height="11.3" fill="#444444" rx="1.1">
<title>2024-03-02</title>
</rect>
<rect x="108.3" y="100.7" width="11.3" height="11.3" fill="#444444" rx="1.1">
<title>2024-03-03</title>
</rect>
<rect x="120.6" y="27.0" width="11.3" height="11.3" fill="#444444" rx="1.1">
<title>2024-03-04</title>
</rect>
<rect x="120.6" y="39.3" width="11.3" height="11.3" fill="#444444" rx="1.1">
<title>2024-03-05</title>
</rect>
<rect x="120.6" y="51.6" width="11.3" height="11.3" fill="#444444" rx="1.1">
<title>2024-03-06</title>
</rect>
<rect x="120.6" y="63.9" width="11.3" height="11.3" fill="#444444" rx="1.1">
<title>2024-03-07</title>
</rect>
<rect x="120.6" y="76.1" width="11.3" height="11.3" fill="#444444" rx="1.1">
<title>2024-03-08</title>
</rect>
<rect x="120.6" y="88.4" width="11.3" height="11.3" fill="#444444" rx="1.1">
<title>2024-03-09</title>
</rect>
<rect x="120.6" y="100.7" width="11.3" height="11.3" fill="#444444" rx="1.1">
<title>2024-03-10</title>
</rect>
<rect x="132.9" y="27.0" width="11.3" height="11.3" fill="#444444" rx="1.1">
<title>2024-03-11</title>
</rect>
<rect x="132.9" y="39.3" width="11.3" height="11.3" fill="#444444" rx="1.1">
<title>2024-03-12</title>
</rect>
<rect x="132.9" y="51.6" width="11.3" height="11.3" fill="#444444" rx="1.1">
<title>2024-03-13</title>
</rect>
<rect x="132.9" y="63.9" width="11.3" height="11.3" fill="#444444" rx="1.1">
<title>2024-03-14</title>
</rect>
<rect x="132.9" y="76.1" width="11.3" height="11.3" fill="#444444" rx="1.1">
<title>2024-03-15</title>
</rect>
<rect x="132.9" y="88.4" width="11.3" height="11.3" fill="#444444" rx="1.1">
<title>2024-03-16</title>
</rect>
<rect x="132.9" y="100.7" width="11.3" height="11.3" fill="#444444" rx="1.1">
<title>2024-03-17</title>
</rect>
<rect x="145.1" y="27.0" width="11.3" height="11.3" fill="#444444" rx="1.1">
<title>2024-03-18</title>
</rect>
<rect x="145.1" y="39.3" width="11.3" height="11.3" fill="#444444" rx="1.1">
<title>2024-03-19</title>
</rect>
<rect x="145.1" y="51.6" width="11.3" height="11.3" fill="#444444" rx="1.1">
<title>2024-03-20</title>
</rect>
<rect x="145.1" y="63.9" width="11.3" height="11.3" fill="#444444" rx="1.1">
<title>2024-03-21</title>
</rect>
<rect x="145.1" y="76.1" width="11.3" height="11.3" fill="#444444" rx="1.1">
<title>2024-03-22</title>
</rect>
<rect x="145.1" y="88.4" width="11.3" height="11.3" fill="#444444" rx="1.1">
<title>2024-03-23</title>
</rect>
<rect x="145.1" y="100.7" width="11.3" height="11.3" fill="#444444" rx="1.1">
<title>2024-03-24</title>
</rect>
<rect x="157.4" y="27.0" width="11.3" height="11.3" fill="#444444" rx="1.1">
<title>2024-03-25</title>
</rect>
<rect x="157.4" y="39.3" width="11.3" height="11.3" fill="#444444" rx="1.1">
<title>2024-03-26</title>
</rect>
<rect x="157.4" y="51.6" width="11.3" height="11.3" fill="#444444" rx="1.1">
<title>2024-03-27</title>
</rect>
<rect x="157.4" y="63.9" width="11.3" height="11.3" fill="#444444" rx="1.1">
<title>2024-03-28</title>
</rect>
<rect x="157.4" y="76.1" width="11.3" height="11.3" fill="#444444" rx="1.1">
<title>2024-03-29</title>
</rect>
<rect x="157.4" y="88.4" width="11.3" height="11.3" fill="#444444" rx="1.1">
<title>2024-03-30</title>
</rect>
<rect x="157.4" y="100.7" width="11.3" height="11.3" fill="#444444" rx="1.1">
<title>2024-03-31</title>
</rect>
<rect x="169.7" y="27.0" width="11.3" height="11.3" fill="#444444" rx="1.1">
<title>2024-04-01</title>
</rect>
<rect x="169.7" y="39.3" width="11.3" height="11.3" fill="#444444" rx="1.1">
<title>2024-04-02</title>
</rect>
<rect x="169.7" y="51.6" width="11.3" height="11.3" fill="#444444" rx="1.1">
<title>2024-04-03</title>
</rect>
<rect x="169.7" y="63.9" width="11.3" height="11.3" fill="#444444" rx="1.1">
<title>2024-04-04</title>
</rect>
<rect x="169.7" y="76.1" width="11.3" height="11.3" fill="#444444" rx="1.1">
<title>2024-04-05</title>
</rect>
<rect x="169.7" y="88.4" width="11.3" height="11.3" fill="#444444" rx="1.1">
<title>2024-04-06</title>
</rect>
<rect x="169.7" y="100.7" width="11.3" height="11.3" fill="#444444" rx="1.1">
<title>2024-04-07</title>
</rect>
<rect x="182.0" y="27.0" width="11.3" height="11.3" fill="#444444" rx="1.1">
<title>2024-04-08</title>
</rect>
<rect x="182.0" y="39.3" width="11.3" height="11.3" fill="#444444" rx="1.1">
<title>2024-04-09</title>
</rect>
<rect x="182.0" y="51.6" width="11.3" height="11.3" fill="#444444" rx="1.1">
<title>2024-04-10</title>
</rect>
<rect x="182.0" y="63.9" width="11.3" height="11.3" fill="#444444" rx="1.1">
<title>2024-04-11</title>
</rect>
<rect x="182.0" y="76.1" width="11.3" height="11.3" fill="#444444" rx="1.1">
<title>2024-04-12</title>
</rect>
<rect x="182.0" y="88.4" width="11.3" height="11.3" fill="#444444" rx="1.1">
<title>2024-04-13</title>
</rect>
<rect x="182.0" y="100.7" width="11.3" height="11.3" fill="#444444" rx="1.1">
<title>2024-04-14</title>
</rect>
<rect x="194.3" y="27.0" width="11.3" height="11.3" fill="#444444" rx="1.1">
<title>2024-04-15</title>
</rect>
<rect x="194.3" y="39.3" width="11.3" height="11.3" fill="#444444" rx="1.1">
<title>2024-04-16</title>
</rect>
<rect x="194.3" y="51.6" width="11.3" height="11.3" fill="#444444" rx="1.1">
<title>2024-04-17</title>
</rect>
<rect x="194.3" y="63.9" width="11.3" height="11.3" fill="#444444" rx="1.1">
<title>2024-04-18</title>
</rect>
<rect x="194.3" y="76.1" width="11.3" height="11.3" fill="#444444" rx="1.1">
<title>2024-04-19</title>
</rect>
<rect x="194.3" y="88.4" width="11.3" height="11.3" fill="#444444" rx="1.1">
<title>2024-04-20</title>
</rect>
<rect x="194.3" y="100.7" width="11.3" height="11.3" fill="#444444" rx="1.1">
<title>2024-04-21</title>
</rect>
<rect x="206.6" y="27.0" width="11.3" height="11.3" fill="#444444" rx="1.1">
<title>2024-04-22</title>
</rect>
<rect x="206.6" y="39.3" width="11.3" height="11.3" fill="#444444" rx="1.1">
<title>2024-04-23</title>
</rect>
<rect x="206.6" y="51.6" width="11.3" height="11.3" fill="#444444" rx="1.1">
<title>2024-04-24</title>
</rect>
<rect x="206.6" y="63.9" width="11.3" height="11.3" fill="#444444" rx="1.1">
<title>2024-04-25</title>
</rect>
<rect x="206.6" y="76.1" width="11.3" height="11.3" fill="#444444" rx="1.1">
<title>2024-04-26</title>
</rect>
<rect x="206.6" y="88.4" width="11.3" height="11.3" fill="#444444" rx="1.1">
<title>2024-04-27</title>
</rect>
<rect x="206.6" y="100.7" width="11.3" height="11.3" fill="#444444" rx="1.1">
<title>2024-04-28</title>
</rect>
<rect x="218.9" y="27.0" width="11.3" height="11.3" fill="#444444" rx="1.1">
<title>2024-04-29</title>
</rect>
<rect x="218.9" y="39.3" width="11.3" height="11.3" fill="#444444" rx="1.1">
<title>2024-04-30</title>
</rect>
<rect x="218.9" y="51.6" width="11.3" height="11.3" fill="#444444" rx="1.1">
<title>2024-05-01</title>
</rect>
<rect x="218.9" y="63.9" width="11.3" height="11.3" fill="#444444" rx="1.1">
<title>2024-05-02</title>
</rect>
<rect x="218.9" y="76.1" width="11.3" height="11.3" fill="#444444" rx="1.1">
<title>2024-05-03</title>
</rect>
<rect x="218.9" y="88.4" width="11.3" height="11.3" fill="#444444" rx="1.1">
<title>2024-05-04</title>
</rect>
<rect x="218.9" y="100.7" width="11.3" height="11.3" fill="#444444" rx="1.1">
<title>2024-05-05</title>
</rect>
<rect x="231.1" y="27.0" width="11.3" height="11.3" fill="#444444" rx="1.1">
<title>2024-05-06</title>
</rect>
<rect x="231.1" y="39.3" width="11.3" height="11.3" fill="#444444" rx="1.1">
<title>2024-05-07</title>
</rect>
<rect x="231.1" y="51.6" width="11.3" height="11.3" fill="#444444" rx="1.1">
<title>2024-05-08</title>
</rect>
<rect x="231.1" y="63.9" width="11.3" height="11.3" fill="#444444" rx="1.1">
<title>2024-05-09</title>
</rect>
<rect x="231.1" y="76.1" width="11.3" height="11.3" fill="#444444" rx="1.1">
<title>2024-05-10</title>
</rect>
<rect x="231.1" y="88.4" width="11.3" height="11.3" fill="#444444" rx="1.1">
<title>2024-05-11</title>
</rect>
<rect x="231.1" y="100.7" width="11.3" height="11.3" fill="#444444" rx="1.1">
<title>2024-05-12</title>
</rect>
<rect x="243.4" y="27.0" width="11.3" height="11.3" fill="#444444" rx="1.1">
<title>2024-05-13</title>
</rect>
<rect x="243.4" y="39.3" width="11.3" height="11.3" fill="#444444" rx="1.1">
<title>2024-05-14</title>
</rect>
<rect x="243.4" y="51.6" width="11.3" height="11.3" fill="#444444" rx="1.1">
<title>2024-05-15</title>
</rect>
<rect x="243.4" y="63.9" width="11.3" height="11.3" fill="#444444" rx="1.1">
<title>2024-05-16</title>
</rect>
<rect x="243.4" y="76.1" width="11.3" height="11.3" fill="#444444" rx="1.1">
<title>2024-05-17</title>
</rect>
<rect x="243.4" y="88.4" width="11.3" height="11.3" fill="#444444" rx="1.1">
<title>2024-05-18</title>
</rect>
<rect x="243.4" y="100.7" width="11.3" height="11.3" fill="#444444" rx="1.1">
<title>2024-05-19</title>
</rect>
<rect x="255.7" y="27.0" width="11.3" height="11.3" fill="#444444" rx="1.1">
<title>2024-05-20</title>
</rect>
<rect x="255.7" y="39.3" width="11.3" height="11.3" fill="#444444" rx="1.1">
<title>2024-05-21</title>
</rect>
<rect x="255.7" y="51.6" width="11.3" height="11.3" fill="#444444" rx="1.1">
<title>2024-05-22</title>
</rect>
<rect x="255.7" y="63.9" width="11.3" height="11.3" fill="#444444" rx="1.1">
<title>2024-05-23</title>
</rect>
<rect x="255.7" y="76.1" width="11.3" height="11.3" fill="#444444" rx="1.1">
<title>2024-05-24</title>
</rect>
<rect x="255.7" y="88.4" width="11.3" height="11.3" fill="#444444" rx="1.1">
<title>2024-05-25</title>
</rect>
<rect x="255.7" y="100.7" width="11.3" height="11.3" fill="#444444" rx="1.1">
<title>2024-05-26</title>
</rect>
<rect x="268.0" y="27.0" width="11.3" height="11.3" fill="#444444" rx="1.1">
<title>2024-05-27</title>
</rect>
<rect x="268.0" y="39.3" width="11.3" height="11.3" fill="#444444" rx="1.1">
<title>2024-05-28</title>
</rect>
<rect x="268.0" y="51.6" width="11.3" height="11.3" fill="#444444" rx="1.1">
<title>2024-05-29</title>
</rect>
<rect x="268.0" y="63.9" width="11.3" height="11.3" fill="#444444" rx="1.1">
<title>2024-05-30</title>
</rect>
<rect x="268.0" y="76.1" width="11.3" height="11.3" fill="#444444" rx="1.1">
<title>2024-05-31</title>
</rect>
<rect x="268.0" y="88.4" width="11.3" height="11.3" fill="#444444" rx="1.1">
<title>2024-06-01</title>
</rect>
<rect x="268.0" y="100.7" width="11.3" height="11.3" fill="#444444" rx="1.1">
<title>2024-06-02</title>
</rect>
<rect x="280.3" y="27.0" width="11.3" height="11.3" fill="#444444" rx="1.1">
<title>2024-06-03</title>
</rect>
<rect x="280.3" y="39.3" width="11.3" height="11.3" fill="#444444" rx="1.1">
<title>2024-06-04</title>
</rect>
<rect x="280.3" y="51.6" width="11.3" height="11.3" fill="#444444" rx="1.1">
<title>2024-06-05</title>
</rect>
<rect x="280.3" y="63.9" width="11.3" height="11.3" fill="#444444" rx="1.1">
<title>2024-06-06</title>
</rect>
<rect x="280.3" y="76.1" width="11.3" height="11.3" fill="#444444" rx="1.1">
<title>2024-06-07</title>
</rect>
<rect x="280.3" y="88.4" width="11.3" height="11.3" fill="#444444" rx="1.1">
<title>2024-06-08</title>
</rect>
<rect x="280.3" y="100.7" width="11.3" height="11.3" fill="#444444" rx="1.1">
<title>2024-06-09</title>
</rect>
<rect x="292.6" y="27.0" width="11.3" height="11.3" fill="#444444" rx="1.1">
<title>2024-06-10</title>
</rect>
<rect x="292.6" y="39.3" width="11.3" height="11.3" fill="#444444" rx="1.1">
<title>2024-06-11</title>
</rect>
<rect x="292.6" y="51.6" width="11.3" height="11.3" fill="#444444" rx="1.1">
<title>2024-06-12</title>
</rect>
<rect x="292.6" y="63.9" width="11.3" height="11.3" fill="#444444" rx="1.1">
<title>2024-06-13</title>
</rect>
<rect x="292.6" y="76.1" width="11.3" height="11.3" fill="#444444" rx="1.1">
<title>2024-06-14</title>
</rect>
<rect x="292.6" y="88.4" width="11.3" height="11.3" fill="#444444" rx="1.1">
<title>2024-06-15</title>
</rect>
<rect x="292.6" y="100.7" width="11.3" height="11.3" fill="#444444" rx="1.1">
<title>2024-06-16</title>
</rect>
<rect x="304.9" y="27.0" width="11.3" height="11.3" fill="#444444" rx="1.1">
<title>2024-06-17</title>
</rect>
<rect x="304.9" y="39.3" width="11.3" height="11.3" fill="#444444" rx="1.1">
<title>2024-06-18</title>
</rect>
<rect x="304.9" y="51.6" width="11.3" height="11.3" fill="#444444" rx="1.1">
<title>2024-06-19</title>
</rect>
<rect x="304.9" y="63.9" width="11.3" height="11.3" fill="#444444" rx="1.1">
<title>2024-06-20</title>
</rect>
<rect x="304.9" y="76.1" width="11.3" height="11.3" fill="#444444" rx="1.1">
<title>2024-06-21</title>
</rect>
<rect x="304.9" y="88.4" width="11.3" height="11.3" fill="#444444" rx="1.1">
<title>2024-06-22</title>
</rect>
<rect x="304.9" y="100.7" width="11.3" height="11.3" fill="#444444" rx="1.1">
<title>2024-06-23</title>
</rect>
<rect x="317.1" y="27.0" width="11.3" height="11.3" fill="#444444" rx="1.1">
<title>2024-06-24</title>
</rect>
<rect x="317.1" y="39.3" width="11.3" height="11.3" fill="#444444" rx="1.1">
<title>2024-06-25</title>
</rect>
<rect x="317.1" y="51.6" width="11.3" height="11.3" fill="#444444" rx="1.1">
<title>2024-06-26</title>
</rect>
<rect x="317.1" y="63.9" width="11.3" height="11.3" fill="#444444" rx="1.1">
<title>2024-06-27</title>
</rect>
<rect x="317.1" y="76.1" width="11.3" height="11.3" fill="#444444" rx="1.1">
<title>2024-06-28</title>
</rect>
<rect x="317.1" y="88.4" width="11.3" height="11.3" fill="#444444" rx="1.1">
<title>2024-06-29</title>
</rect>
<rect x="317.1" y="100.7" width="11.3" height="11.3" fill="#444444" rx="1.1">
<title>2024-06-30</title>
</rect>
<rect x="329.4" y="27.0" width="11.3" height="11.3" fill="#444444" rx="1.1">
<title>2024-07-01</title>
</rect>
<rect x="329.4" y="39.3" width="11.3" height="11.3" fill="#444444" rx="1.1">
<title>2024-07-02</title>
</rect>
<rect x="329.4" y="51.6" width="11.3" height="11.3" fill="#444444" rx="1.1">
<title>2024-07-03</title>
</rect>
<rect x="329.4" y="63.9" width="11.3" height="11.3" fill="#444444" rx="1.1">
<title>2024-07-04</title>
</rect>
<rect x="329.4" y="76.1" width="11.3" height="11.3" fill="#444444" rx="1.1">
<title>2024-07-05</title>
</rect>
<rect x="329.4" y="88.4" width="11.3" height="11.3" fill="#444444" rx="1.1">
<title>2024-07-06</title>
</rect>
<rect x="329.4" y="100.7" width="11.3" height="11.3" fill="#444444" rx="1.1">
<title>2024-07-07</title>
</rect>
<rect x="341.7" y="27.0" width="11.3" height="11.3" fill="#444444" rx="1.1">
<title>2024-07-08</title>
</rect>
<rect x="341.7" y="39.3" width="11.3" height="11.3" fill="#444444" rx="1.1">
<title>2024-07-09</title>
</rect>
<rect x="341.7" y="51.6" width="11.3" height="11.3" fill="#444444" rx="1.1">
<title>2024-07-10</title>
</rect>
<rect x="341.7" y="63.9" width="11.3" height="11.3" fill="#444444" rx="1.1">
<title>2024-07-11</title>
</rect>
<rect x="341.7" y="76.1" width="11.3" height="11.3" fill="#444444" rx="1.1">
<title>2024-07-12</title>
</rect>
<rect x="341.7" y="88.4" width="11.3" height="11.3" fill="#444444" rx="1.1">
<title>2024-07-13</title>
</rect>
<rect x="341.7" y="100.7" width="11.3" height="11.3" fill="#444444" rx="1.1">
<title>2024-07-14</title>
</rect>
<rect x="354.0" y="27.0" width="11.3" height="11.3" fill="#444444" rx="1.1">
<title>2024-07-15</title>
</rect>
<rect x="354.0" y="39.3" width="11.3" height="11.3" fill="#444444" rx="1.1">
<title>2024-07-16</title>
</rect>
<rect x="354.0" y="51.6" width="11.3" height="11.3" fill="#444444" rx="1.1">
<title>2024-07-17</title>
</rect>
<rect x="354.0" y="63.9" width="11.3" height="11.3" fill="#444444" rx="1.1">
<title>2024-07-18</title>
</rect>
<rect x="354.0" y="76.1" width="11.3" height="11.3" fill="#444444" rx="1.1">
<title>2024-07-19</title>
</rect>
<rect x="354.0" y="88.4" width="11.3" height="11.3" fill="#444444" rx="1.1">
<title>2024-07-20</title>
</rect>
<rect x="354.0" y="100.7" width="11.3" height="11.3" fill="#444444" rx="1.1">
<title>2024-07-21</title>
</rect>
<rect x="366.3" y="27.0" width="11.3" height="11.3" fill="#444444" rx="1.1">
<title>2024-07-22</title>
</rect>
<rect x="366.3" y="39.3" width="11.3" height="11.3" fill="#444444" rx="1.1">
<title>2024-07-23</title>
</rect>
<rect x="366.3" y="51.6" width="11.3" height="11.3" fill="#444444" rx="1.1">
<title>2024-07-24</title>
</rect>
<rect x="366.3" y="63.9" width="11.3" height="11.3" fill="#444444" rx="1.1">
<title>2024-07-25</title>
</rect>
<rect x="366.3" y="76.1" width="11.3" height="11.3" fill="#444444" rx="1.1">
<title>2024-07-26</title>
</rect>
<rect x="366.3" y="88.4" width="11.3" height="11.3" fill="#444444" rx="1.1">
<title>2024-07-27</title>
</rect>
<rect x="366.3" y="100.7" width="11.3" height="11.3" fill="#444444" rx="1.1">
<title>2024-07-28</title>
</rect>
<rect x="378.6" y="27.0" width="11.3" height="11.3" fill="#444444" rx="1.1">
<title>2024-07-29</title>
</rect>
<rect x="378.6" y="39.3" width="11.3" height="11.3" fill="#444444" rx="1.1">
<title>2024-07-30</title>
</rect>
<rect x="378.6" y="51.6" width="11.3" height="11.3" fill="#444444" rx="1.1">
<title>2024-07-31</title>
</rect>
<rect x="378.6" y="63.9" width="11.3" height="11.3" fill="#444444" rx="1.1">
<title>2024-08-01</title>
</rect>
<rect x="378.6" y="76.1" width="11.3" height="11.3" fill="#444444" rx="1.1">
<title>2024-08-02</title>
</rect>
<rect x="378.6" y="88.4" width="11.3" height="11.3" fill="#444444" rx="1.1">
<title>2024-08-03</title>
</rect>
<rect x="378.6" y="100.7" width="11.3" height="11.3" fill="#444444" rx="1.1">
<title>2024-08-04</title>
</rect>
<rect x="390.9" y="27.0" width="11.3" height="11.3" fill="#444444" rx="1.1">
<title>2024-08-05</title>
</rect>
<rect x="390.9" y="39.3" width="11.3" height="11.3" fill="#444444" rx="1.1">
<title>2024-08-06</title>
</rect>
<rect x="390.9" y="51.6" width="11.3" height="11.3" fill="#444444" rx="1.1">
<title>2024-08-07</title>
</rect>
<rect x="390.9" y="63.9" width="11.3" height="11.3" fill="#444444" rx="1.1">
<title>2024-08-08</title>
</rect>
<rect x="390.9" y="76.1" width="11.3" height="11.3" fill="#444444" rx="1.1">
<title>2024-08-09</title>
</rect>
<rect x="390.9" y="88.4" width="11.3" height="11.3" fill="#444444" rx="1.1">
<title>2024-08-10</title>
</rect>
<rect x="390.9" y="100.7" width="11.3" height="11.3" fill="#444444" rx="1.1">
<title>2024-08-11</title>
</rect>
<rect x="403.1" y="27.0" width="11.3" height="11.3" fill="#444444" rx="1.1">
<title>2024-08-12</title>
</rect>
<rect x="403.1" y="39.3" width="11.3" height="11.3" fill="#444444" rx="1.1">
<title>2024-08-13</title>
</rect>
<rect x="403.1" y="51.6" width="11.3" height="11.3" fill="#444444" rx="1.1">
<title>2024-08-14</title>
</rect>
<rect x="403.1" y="63.9" width="11.3" height="11.3" fill="#444444" rx="1.1">
<title>2024-08-15</title>
</rect>
<rect x="403.1" y="76.1" width="11.3" height="11.3" fill="#444444" rx="1.1">
<title>2024-08-16</title>
</rect>
<rect x="403.1" y="88.4" width="11.3" height="11.3" fill="#444444" rx="1.1">
<title>2024-08-17</title>
</rect>
<rect x="403.1" y="100.7" width="11.3" height="11.3" fill="#444444" rx="1.1">
<title>2024-08-18</title>
</rect>
<rect x="415.4" y="27.0" width="11.3" height="11.3" fill="#444444" rx="1.1">
<title>2024-08-19</title>
</rect>
<rect x="415.4" y="39.3" width="11.3" height="11.3" fill="#444444" rx="1.1">
<title>2024-08-20</title>
</rect>
<rect x="415.4" y="51.6" width="11.3" height="11.3" fill="#444444" rx="1.1">
<title>2024-08-21</title>
</rect>
<rect x="415.4" y="63.9" width="11.3" height="11.3" fill="#444444" rx="1.1">
<title>2024-08-22</title>
</rect>
<rect x="415.4" y="76.1" width="11.3" height="11.3" fill="#444444" rx="1.1">
<title>2024-08-23</title>
</rect>
<rect x="415.4" y="88.4" width="11.3" height="11.3" fill="#444444" rx="1.1">
<title>2024-08-24</title>
</rect>
<rect x="415.4" y="100.7" width="11.3" height="11.3" fill="#444444" rx="1.1">
<title>2024-08-25</title>
</rect>
<rect x="427.7" y="27.0" width="11.3" height="11.3" fill="#444444" rx="1.1">
<title>2024-08-26</title>
</rect>
<rect x="427.7" y="39.3" width="11.3" height="11.3" fill="#444444" rx="1.1">
<title>2024-08-27</title>
</rect>
<rect x="427.7" y="51.6" width="11.3" height="11.3" fill="#444444" rx="1.1">
<title>2024-08-28</title>
</rect>
<rect x="427.7" y="63.9" width="11.3" height="11.3" fill="#444444" rx="1.1">
<title>2024-08-29</title>
</rect>
<rect x="427.7" y="76.1" width="11.3" height="11.3" fill="#444444" rx="1.1">
<title>2024-08-30</title>
</rect>
<rect x="427.7" y="88.4" width="11.3" height="11.3" fill="#444444" rx="1.1">
<title>2024-08-31</title>
</rect>
<rect x="427.7" y="100.7" width="11.3" height="11.3" fill="#444444" rx="1.1">
<title>2024-09-01</title>
</rect>
<rect x="440.0" y="27.0" width="11.3" height="11.3" fill="#444444" rx="1.1">
<title>2024-09-02</title>
</rect>
<rect x="440.0" y="39.3" width="11.3" height="11.3" fill="#444444" rx="1.1">
<title>2024-09-03</title>
</rect>
<rect x="440.0" y="51.6" width="11.3" height="11.3" fill="#444444" rx="1.1">
<title>2024-09-04</title>
</rect>
<rect x="440.0" y="63.9" width="11.3" height="11.3" fill="#444444" rx="1.1">
<title>2024-09-05</title>
</rect>
<rect x="440.0" y="76.1" width="11.3" height="11.3" fill="#444444" rx="1.1">
<title>2024-09-06</title>
</rect>
<rect x="440.0" y="88.4" width="11.3" height="11.3" fill="#444444" rx="1.1">
<title>2024-09-07</title>
</rect>
<rect x="440.0" y="100.7" width="11.3" height="11.3" fill="#444444" rx="1.1">
<title>2024-09-08</title>
</rect>
<rect x="452.3" y="27.0" width="11.3" height="11.3" fill="#444444" rx="1.1">
<title>2024-09-09</title>
</rect>
<rect x="452.3" y="39.3" width="11.3" height="11.3" fill="#444444" rx="1.1">
<title>2024-09-10</title>
</rect>
<rect x="452.3" y="51.6" width="11.3" height="11.3" fill="#444444" rx="1.1">
<title>2024-09-11</title>
</rect>
<rect x="452.3" y="63.9" width="11.3" height="11.3" fill="#444444" rx="1.1">
<title>2024-09-12</title>
</rect>
<rect x="452.3" y="76.1" width="11.3" height="11.3" fill="#444444" rx="1.1">
<title>2024-09-13</title>
</rect>
<rect x="452.3" y="88.4" width="11.3" height="11.3" fill="#444444" rx="1.1">
<title>2024-09-14</title>
</rect>
<rect x="452.3" y="100.7" width="11.3" height="11.3" fill="#444444" rx="1.1">
<title>2024-09-15</title>
</rect>
<rect x="464.6" y="27.0" width="11.3" height="11.3" fill="#444444" rx="1.1">
<title>2024-09-16</title>
</rect>
<rect x="464.6" y="39.3" width="11.3" height="11.3" fill="#444444" rx="1.1">
<title>2024-09-17</title>
</rect>
<rect x="464.6" y="51.6" width="11.3" height="11.3" fill="#444444" rx="1.1">
<title>2024-09-18</title>
</rect>
<rect x="464.6" y="63.9" width="11.3" height="11.3" fill="#444444" rx="1.1">
<title>2024-09-19</title>
</rect>
<rect x="464.6" y="76.1" width="11.3" height="11.3" fill="#444444" rx="1.1">
<title>2024-09-20</title>
</rect>
<rect x="464.6" y="88.4" width="11.3" height="11.3" fill="#444444" rx="1.1">
<title>2024-09-21</title>
</rect>
<rect x="464.6" y="100.7" width="11.3" height="11.3" fill="#444444" rx="1.1">
<title>2024-09-22</title>
</rect>
<rect x="476.9" y="27.0" width="11.3" height="11.3" fill="#444444" rx="1.1">
<title>2024-09-23</title>
</rect>
<rect x="476.9" y="39.3" width="11.3" height="11.3" fill="#444444" rx="1.1">
<title>2024-09-24</title>
</rect>
<rect x="476.9" y="51.6" width="11.3" height="11.3" fill="#444444" rx="1.1">
<title>2024-09-25</title>
</rect>
<rect x="476.9" y="63.9" width="11.3" height="11.3" fill="#444444" rx="1.1">
<title>2024-09-26</title>
</rect>
<rect x="476.9" y="76.1" width="11.3" height="11.3" fill="#444444" rx="1.1">
<title>2024-09-27</title>
</rect>
<rect x="476.9" y="88.4" width="11.3" height="11.3" fill="#444444" rx="1.1">
<title>2024-09-28</title>
</rect>
<rect x="476.9" y="100.7" width="11.3" height="11.3" fill="#444444" rx="1.1">
<title>2024-09-29</title>
</rect>
<rect x="489.1" y="27.0" width="11.3" height="11.3" fill="#444444" rx="1.1">
<title>2024-09-30</title>
</rect>
<rect x="489.1" y="39.3" width="11.3" height="11.3" fill="#444444" rx="1.1">
<title>2024-10-01</title>
</rect>
<rect x="489.1" y="51.6" width="11.3" height="11.3" fill="#444444" rx="1.1">
<title>2024-10-02</title>
</rect>
<rect x="489.1" y="63.9" width="11.3" height="11.3" fill="#444444" rx="1.1">
<title>2024-10-03</title>
</rect>
<rect x="489.1" y="76.1" width="11.3" height="11.3" fill="#444444" rx="1.1">
<title>2024-10-04</title>
</rect>
<rect x="489.1" y="88.4" width="11.3" height="11.3" fill="#444444" rx="1.1">
<title>2024-10-05</title>
</rect>
<rect x="489.1" y="100.7" width="11.3" height="11.3" fill="#444444" rx="1.1">
<title>2024-10-06</title>
</rect>
<rect x="501.4" y="27.0" width="11.3" height="11.3" fill="#444444" rx="1.1">
<title>2024-10-07</title>
</rect>
<rect x="501.4" y="39.3" width="11.3" height="11.3" fill="#444444" rx="1.1">
<title>2024-10-08</title>
</rect>
<rect x="501.4" y="51.6" width="11.3" height="11.3" fill="#444444" rx="1.1">
<title>2024-10-09</title>
</rect>
<rect x="501.4" y="63.9" width="11.3" height="11.3" fill="#444444" rx="1.1">
<title>2024-10-10</title>
</rect>
<rect x="501.4" y="76.1" width="11.3" height="11.3" fill="#444444" rx="1.1">
<title>2024-10-11</title>
</rect>
<rect x="501.4" y="88.4" width="11.3" height="11.3" fill="#444444" rx="1.1">
<title>2024-10-12</title>
</rect>
<rect x="501.4" y="100.7" width="11.3" height="11.3" fill="#444444" rx="1.1">
<title>2024-10-13</title>
</rect>
<rect x="513.7" y="27.0" width="11.3" height="11.3" fill="#444444" rx="1.1">
<title>2024-10-14</title>
</rect>
<rect x="513.7" y="39.3" width="11.3" height="11.3" fill="#444444" rx="1.1">
<title>2024-10-15</title>
</rect>
<rect x="513.7" y="51.6" width="11.3" height="11.3" fill="#444444" rx="1.1">
<title>2024-10-16</title>
</rect>
<rect x="513.7" y="63.9" width="11.3" height="11.3" fill="#444444" rx="1.1">
<title>2024-10-17</title>
</rect>
<rect x="513.7" y="76.1" width="11.3" height="11.3" fill="#ffeb00" rx="1.1">
<title>2024-10-18: 5.60 km (2 activities)</title>
</rect>
<rect x="513.7" y="88.4" width="11.3" height="11.3" fill="#ffeb00" rx="1.1">
<title>2024-10-19: 6.87 km (3 activities)</title>
</rect>
<rect x="513.7" y="100.7" width="11.3" height="11.3" fill="#ffeb00" rx="1.1">
<title>2024-10-20: 6.30 km (2 activities)</title>
</rect>
<rect x="526.0" y="27.0" width="11.3" height="11.3" fill="#444444" rx="1.1">
<title>2024-10-21</title>
</rect>
<rect x="526.0" y="39.3" width="11.3" height="11.3" fill="#ffef00" rx="1.1">
<title>2024-10-22: 3.82 km (1 activities)</title>
</rect>
<rect x="526.0" y="51.6" width="11.3" height="11.3" fill="#444444" rx="1.1">
<title>2024-10-23</title>
</rect>
<rect x="526.0" y="63.9" width="11.3" height="11.3" fill="#ffef00" rx="1.1">
<title>2024-10-24: 3.14 km (2 activities)</title>
</rect>
<rect x="526.0" y="76.1" width="11.3" height="11.3" fill="#ffeb00" rx="1.1">
<title>2024-10-25: 5.25 km (3 activities)</title>
</rect>
<rect x="526.0" y="88.4" width="11.3" height="11.3" fill="#444444" rx="1.1">
<title>2024-10-26</title>
</rect>
<rect x="526.0" y="100.7" width="11.3" height="11.3" fill="#f4ea5c" rx="1.1">
<title>2024-10-27: 1.21 km (1 activities)</title>
</rect>
<rect x="538.3" y="27.0" width="11.3" height="11.3" fill="#f4ea5c" rx="1.1">
<title>2024-10-28: 1.77 km (1 activities)</title>
</rect>
<rect x="538.3" y="39.3" width="11.3" height="11.3" fill="red" rx="1.1">
<title>2024-10-29: 10.44 km (3 activities)</title>
</rect>
<rect x="538.3" y="51.6" width="11.3" height="11.3" fill="#fff300" rx="1.1">
<title>2024-10-30: 2.13 km (3 activities)</title>
</rect>
<rect x="538.3" y="63.9" width="11.3" height="11.3" fill="#ffeb00" rx="1.1">
<title>2024-10-31: 5.23 km (2 activities)</title>
</rect>
<rect x="538.3" y="76.1" width="11.3" height="11.3" fill="#fff300" rx="1.1">
<title>2024-11-01: 2.36 km (2 activities)</title>
</rect>
<rect x="538.3" y="88.4" width="11.3" height="11.3" fill="#fff300" rx="1.1">
<title>2024-11-02: 2.94 km (3 activities)</title>
</rect>
<rect x="538.3" y="100.7" width="11.3" height="11.3" fill="#444444" rx="1.1">
<title>2024-11-03</title>
</rect>
<rect x="550.6" y="27.0" width="11.3" height="11.3" fill="red" rx="1.1">
<title>2024-11-04: 10.12 km (2 activities)</title>
</rect>
<rect x="550.6" y="39.3" width="11.3" height="11.3" fill="red" rx="1.1">
<title>2024-11-05: 7.89 km (3 activities)</title>
</rect>
<rect x="550.6" y="51.6" width="11.3" height="11.3" fill="red" rx="1.1">
<title>2024-11-06: 11.33 km (4 activities)</title>
</rect>
<rect x="550.6" y="63.9" width="11.3" height="11.3" fill="#ffe900" rx="1.1">
<title>2024-11-07: 4.50 km (3 activities)</title>
</rect>
<rect x="550.6" y="76.1" width="11.3" height="11.3" fill="red" rx="1.1">
<title>2024-11-08: 9.45 km (6 activities)</title>
</rect>
<rect x="550.6" y="88.4" width="11.3" height="11.3" fill="red" rx="1.1">
<title>2024-11-09: 20.05 km (8 activities)</title>
</rect>
<rect x="550.6" y="100.7" width="11.3" height="11.3" fill="#444444" rx="1.1">
<title>2024-11-10</title>
</rect>
<rect x="562.9" y="27.0" width="11.3" height="11.3" fill="#ffeb00" rx="1.1">
<title>2024-11-11: 5.31 km (3 activities)</title>
</rect>
<rect x="562.9" y="39.3" width="11.3" height="11.3" fill="#ffeb00" rx="1.1">
<title>2024-11-12: 6.85 km (6 activities)</title>
</rect>
<rect x="562.9" y="51.6" width="11.3" height="11.3" fill="#fff300" rx="1.1">
<title>2024-11-13: 2.14 km (1 activities)</title>
</rect>
<rect x="562.9" y="63.9" width="11.3" height="11.3" fill="red" rx="1.1">
<title>2024-11-14: 9.06 km (4 activities)</title>
</rect>
<rect x="562.9" y="76.1" width="11.3" height="11.3" fill="#ffef00" rx="1.1">
<title>2024-11-15: 3.00 km (1 activities)</title>
</rect>
<rect x="562.9" y="88.4" width="11.3" height="11.3" fill="#ffeb00" rx="1.1">
<title>2024-11-16: 5.64 km (2 activities)</title>
</rect>
<rect x="562.9" y="100.7" width="11.3" height="11.3" fill="red" rx="1.1">
<title>2024-11-17: 17.15 km (3 activities)</title>
</rect>
<rect x="575.1" y="27.0" width="11.3" height="11.3" fill="#444444" rx="1.1">
<title>2024-11-18</title>
</rect>
<rect x="575.1" y="39.3" width="11.3" height="11.3" fill="#fff300" rx="1.1">
<title>2024-11-19: 2.69 km (3 activities)</title>
</rect>
<rect x="575.1" y="51.6" width="11.3" height="11.3" fill="#444444" rx="1.1">
<title>2024-11-20</title>
</rect>
<rect x="575.1" y="63.9" width="11.3" height="11.3" fill="#444444" rx="1.1">
<title>2024-11-21</title>
</rect>
<rect x="575.1" y="76.1" width="11.3" height="11.3" fill="#ffeb00" rx="1.1">
<title>2024-11-22: 5.21 km (2 activities)</title>
</rect>
<rect x="575.1" y="88.4" width="11.3" height="11.3" fill="red" rx="1.1">
<title>2024-11-23: 11.36 km (3 activities)</title>
</rect>
<rect x="575.1" y="100.7" width="11.3" height="11.3" fill="red" rx="1.1">
<title>2024-11-24: 21.07 km (1 activities)</title>
</rect>
<rect x="587.4" y="27.0" width="11.3" height="11.3" fill="#444444" rx="1.1">
<title>2024-11-25</title>
</rect>
<rect x="587.4" y="39.3" width="11.3" height="11.3" fill="#ffeb00" rx="1.1">
<title>2024-11-26: 5.21 km (1 activities)</title>
</rect>
<rect x="587.4" y="51.6" width="11.3" height="11.3" fill="#fff300" rx="1.1">
<title>2024-11-27: 2.73 km (3 activities)</title>
</rect>
<rect x="587.4" y="63.9" width="11.3" height="11.3" fill="red" rx="1.1">
<title>2024-11-28: 7.09 km (2 activities)</title>
</rect>
<rect x="587.4" y="76.1" width="11.3" height="11.3" fill="#ffeb00" rx="1.1">
<title>2024-11-29: 5.45 km (1 activities)</title>
</rect>
<rect x="587.4" y="88.4" width="11.3" height="11.3" fill="#ffeb00" rx="1.1">
<title>2024-11-30: 6.12 km (1 activities)</title>
</rect>
<rect x="587.4" y="100.7" width="11.3" height="11.3" fill="red" rx="1.1">
<title>2024-12-01: 11.33 km (2 activities)</title>
</rect>
<rect x="599.7" y="27.0" width="11.3" height="11.3" fill="red" rx="1.1">
<title>2024-12-02: 8.84 km (3 activities)</title>
</rect>
<rect x="599.7" y="39.3" width="11.3" height="11.3" fill="#ffeb00" rx="1.1">
<title>2024-12-03: 5.19 km (1 activities)</title>
</rect>
<rect x="599.7" y="51.6" width="11.3" height="11.3" fill="#ffeb00" rx="1.1">
<title>2024-12-04: 5.26 km (2 activities)</title>
</rect>
<rect x="599.7" y="63.9" width="11.3" height="11.3" fill="#444444" rx="1.1">
<title>2024-12-05</title>
</rect>
<rect x="599.7" y="76.1" width="11.3" height="11.3" fill="#ffeb00" rx="1.1">
<title>2024-12-06: 6.34 km (2 activities)</title>
</rect>
<rect x="599.7" y="88.4" width="11.3" height="11.3" fill="#ffeb00" rx="1.1">
<title>2024-12-07: 5.80 km (1 activities)</title>
</rect>
<rect x="599.7" y="100.7" width="11.3" height="11.3" fill="#444444" rx="1.1">
<title>2024-12-08</title>
</rect>
<rect x="612.0" y="27.0" width="11.3" height="11.3" fill="red" rx="1.1">
<title>2024-12-09: 11.20 km (1 activities)</title>
</rect>
<rect x="612.0" y="39.3" width="11.3" height="11.3" fill="#ffeb00" rx="1.1">
<title>2024-12-10: 5.55 km (2 activities)</title>
</rect>
<rect x="612.0" y="51.6" width="11.3" height="11.3" fill="#ffeb00" rx="1.1">
<title>2024-12-11: 5.24 km (3 activities)</title>
</rect>
<rect x="612.0" y="63.9" width="11.3" height="11.3" fill="#444444" rx="1.1">
<title>2024-12-12</title>
</rect>
<rect x="612.0" y="76.1" width="11.3" height="11.3" fill="#444444" rx="1.1">
<title>2024-12-13</title>
</rect>
<rect x="612.0" y="88.4" width="11.3" height="11.3" fill="red" rx="1.1">
<title>2024-12-14: 10.77 km (3 activities)</title>
</rect>
<rect x="612.0" y="100.7" width="11.3" height="11.3" fill="red" rx="1.1">
<title>2024-12-15: 13.75 km (2 activities)</title>
</rect>
<rect x="624.3" y="27.0" width="11.3" height="11.3" fill="#444444" rx="1.1">
<title>2024-12-16</title>
</rect>
<rect x="624.3" y="39.3" width="11.3" height="11.3" fill="#ffeb00" rx="1.1">
<title>2024-12-17: 5.21 km (3 activities)</title>
</rect>
<rect x="624.3" y="51.6" width="11.3" height="11.3" fill="#f4ec5e" rx="1.1">
<title>2024-12-18: 0.03 km (3 activities)</title>
</rect>
<rect x="624.3" y="63.9" width="11.3" height="11.3" fill="#ffeb00" rx="1.1">
<title>2024-12-19: 5.23 km (1 activities)</title>
</rect>
<rect x="624.3" y="76.1" width="11.3" height="11.3" fill="#444444" rx="1.1">
<title>2024-12-20</title>
</rect>
<rect x="624.3" y="88.4" width="11.3" height="11.3" fill="red" rx="1.1">
<title>2024-12-21: 8.29 km (1 activities)</title>
</rect>
<rect x="624.3" y="100.7" width="11.3" height="11.3" fill="#444444" rx="1.1">
<title>2024-12-22</title>
</rect>
<rect x="636.6" y="27.0" width="11.3" height="11.3" fill="red" rx="1.1">
<title>2024-12-23: 10.32 km (1 activities)</title>
</rect>
<rect x="636.6" y="39.3" width="11.3" height="11.3" fill="red" rx="1.1">
<title>2024-12-24: 8.13 km (2 activities)</title>
</rect>
<rect x="636.6" y="51.6" width="11.3" height="11.3" fill="red" rx="1.1">
<title>2024-12-25: 8.50 km (2 activities)</title>
</rect>
<rect x="636.6" y="63.9" width="11.3" height="11.3" fill="#ffeb00" rx="1.1">
<title>2024-12-26: 5.46 km (1 activities)</title>
</rect>
<rect x="636.6" y="76.1" width="11.3" height="11.3" fill="#444444" rx="1.1">
<title>2024-12-27</title>
</rect>
<rect x="636.6" y="88.4" width="11.3" height="11.3" fill="red" rx="1.1">
<title>2024-12-28: 11.04 km (2 activities)</title>
</rect>
<rect x="636.6" y="100.7" width="11.3" height="11.3" fill="red" rx="1.1">
<title>2024-12-29: 21.17 km (1 activities)</title>
</rect>
<rect x="648.9" y="27.0" width="11.3" height="11.3" fill="#444444" rx="1.1">
<title>2024-12-30</title>
</rect>
<rect x="648.9" y="39.3" width="11.3" height="11.3" fill="red" rx="1.1">
<title>2024-12-31: 9.75 km (2 activities)</title>
</rect>
</svg>