<?xml version="1.0" encoding="utf-8" ?>
<svg baseProfile="full" height="120" version="1.1" viewBox="0,0,670.1428571428572,120" width="670.1428571428572" xmlns="http://www.w3.org/2000/svg">
<defs />
<rect fill="#222222" height="120" width="670.1428571428572" x="0" y="0" />
<text fill="#FFFFFF" style="font-size:11px; font-family:Arial; font-weight:bold;" text-anchor="start" x="10" y="12">6 km</text>
<text fill="#8b949e" style="font-size:9px; font-family:Arial;" text-anchor="start" x="10.0" y="25">Jan</text>
<text fill="#8b949e" style="font-size:9px; font-family:Arial;" text-anchor="start" x="59.1" y="25">Feb</text>
<text fill="#8b949e" style="font-size:9px; font-family:Arial;" text-anchor="start" x="108.3" y="25">Mar</text>
<text fill="#8b949e" style="font-size:9px; font-family:Arial;" text-anchor="start" x="169.7" y="25">Apr</text>
<text fill="#8b949e" style="font-size:9px; font-family:Arial;" text-anchor="start" x="218.9" y="25">May</text>
<text fill="#8b949e" style="font-size:9px; font-family:Arial;" text-anchor="start" x="280.3" y="25">Jun</text>
<text fill="#8b949e" style="font-size:9px; font-family:Arial;" text-anchor="start" x="329.4" y="25">Jul</text>
<text fill="#8b949e" style="font-size:9px; font-family:Arial;" text-anchor="start" x="378.6" y="25">Aug</text>
<text fill="#8b949e" style="font-size:9px; font-family:Arial;" text-anchor="start" x="440.0" y="25">Sep</text>
<text fill="#8b949e" style="font-size:9px; font-family:Arial;" text-anchor="start" x="489.1" y="25">Oct</text>
<text fill="#8b949e" style="font-size:9px; font-family:Arial;" text-anchor="start" x="538.3" y="25">Nov</text>
<text fill="#8b949e" style="font-size:9px; font-family:Arial;" text-anchor="start" x="599.7" y="25">Dec</text>
<rect x="10.0" y="27.0" width="11.3" height="11.3" fill="#444444" rx="1.1">
<title>2026-01-01</title>
</rect>
<rect x="10.0" y="39.3" width="11.3" height="11.3" fill="#ffeb00" rx="1.1">
<title>2026-01-02: 5.62 km (2 activities)</title>
</rect>
<rect x="10.0" y="51.6" width="11.3" height="11.3" fill="#444444" rx="1.1">
<title>2026-01-03</title>
</rect>
<rect x="10.0" y="63.9" width="11.3" height="11.3" fill="#444444" rx="1.1">
<title>2026-01-04</title>
</rect>
<rect x="22.3" y="27.0" width="11.3" height="11.3" fill="#444444" rx="1.1">
<title>2026-01-05</title>
</rect>
<rect x="22.3" y="39.3" width="11.3" height="11.3" fill="#444444" rx="1.1">
<title>2026-01-06</title>
</rect>
<rect x="22.3" y="51.6" width="11.3" height="11.3" fill="#444444" rx="1.1">
<title>2026-01-07</title>
</rect>
<rect x="22.3" y="63.9" width="11.3" height="11.3" fill="#444444" rx="1.1">
<title>2026-01-08</title>
</rect>
<rect x="22.3" y="76.1" width="11.3" height="11.3" fill="#444444" rx="1.1">
<title>2026-01-09</title>
</rect>
<rect x="22.3" y="88.4" width="11.3" height="11.3" fill="#444444" rx="1.1">
<title>2026-01-10</title>
</rect>
<rect x="22.3" y="100.7" width="11.3" height="11.3" fill="#444444" rx="1.1">
<title>2026-01-11</title>
</rect>
<rect x="34.6" y="27.0" width="11.3" height="11.3" fill="#444444" rx="1.1">
<title>2026-01-12</title>
</rect>
<rect x="34.6" y="39.3" width="11.3" height="11.3" fill="#444444" rx="1.1">
<title>2026-01-13</title>
</rect>
<rect x="34.6" y="51.6" width="11.3" height="11.3" fill="#444444" rx="1.1">
<title>2026-01-14</title>
</rect>
<rect x="34.6" y="63.9" width="11.3" height="11.3" fill="#444444" rx="1.1">
<title>2026-01-15</title>
</rect>
<rect x="34.6" y="76.1" width="11.3" height="11.3" fill="#444444" rx="1.1">
<title>2026-01-16</title>
</rect>
<rect x="34.6" y="88.4" width="11.3" height="11.3" fill="#444444" rx="1.1">
<title>2026-01-17</title>
</rect>
<rect x="34.6" y="100.7" width="11.3" height="11.3" fill="#444444" rx="1.1">
<title>2026-01-18</title>
</rect>
<rect x="46.9" y="27.0" width="11.3" height="11.3" fill="#444444" rx="1.1">
<title>2026-01-19</title>
</rect>
<rect x="46.9" y="39.3" width="11.3" height="11.3" fill="#444444" rx="1.1">
<title>2026-01-20</title>
</rect>
<rect x="46.9" y="51.6" width="11.3" height="11.3" fill="#444444" rx="1.1">
<title>2026-01-21</title>
</rect>
<rect x="46.9" y="63.9" width="11.3" height="11.3" fill="#444444" rx="1.1">
<title>2026-01-22</title>
</rect>
<rect x="46.9" y="76.1" width="11.3" height="11.3" fill="#444444" rx="1.1">
<title>2026-01-23</title>
</rect>
<rect x="46.9" y="88.4" width="11.3" height="11.3" fill="#444444" rx="1.1">
<title>2026-01-24</title>
</rect>
<rect x="46.9" y="100.7" width="11.3" height="11.3" fill="#444444" rx="1.1">
<title>2026-01-25</title>
</rect>
<rect x="59.1" y="27.0" width="11.3" height="11.3" fill="#444444" rx="1.1">
<title>2026-01-26</title>
</rect>
<rect x="59.1" y="39.3" width="11.3" height="11.3" fill="#444444" rx="1.1">
<title>2026-01-27</title>
</rect>
<rect x="59.1" y="51.6" width="11.3" height="11.3" fill="#444444" rx="1.1">
<title>2026-01-28</title>
</rect>
<rect x="59.1" y="63.9" width="11.3" height="11.3" fill="#444444" rx="1.1">
<title>2026-01-29</title>
</rect>
<rect x="59.1" y="76.1" width="11.3" height="11.3" fill="#444444" rx="1.1">
<title>2026-01-30</title>
</rect>
<rect x="59.1" y="88.4" width="11.3" height="11.3" fill="#444444" rx="1.1">
<title>2026-01-31</title>
</rect>
<rect x="59.1" y="100.7" width="11.3" height="11.3" fill="#444444" rx="1.1">
<title>2026-02-01</title>
</rect>
<rect x="71.4" y="27.0" width="11.3" height="11.3" fill="#444444" rx="1.1">
<title>2026-02-02</title>
</rect>
<rect x="71.4" y="39.3" width="11.3" height="11.3" fill="#444444" rx="1.1">
<title>2026-02-03</title>
</rect>
<rect x="71.4" y="51.6" width="11.3" height="11.3" fill="#444444" rx="1.1">
<title>2026-02-04</title>
</rect>
<rect x="71.4" y="63.9" width="11.3" height="11.3" fill="#444444" rx="1.1">
<title>2026-02-05</title>
</rect>
<rect x="71.4" y="76.1" width="11.3" height="11.3" fill="#444444" rx="1.1">
<title>2026-02-06</title>
</rect>
<rect x="71.4" y="88.4" width="11.3" height="11.3" fill="#444444" rx="1.1">
<title>2026-02-07</title>
</rect>
<rect x="71.4" y="100.7" width="11.3" height="11.3" fill="#444444" rx="1.1">
<title>2026-02-08</title>
</rect>
<rect x="83.7" y="27.0" width="11.3" height="11.3" fill="#444444" rx="1.1">
<title>2026-02-09</title>
</rect>
<rect x="83.7" y="39.3" width="11.3" height="11.3" fill="#444444" rx="1.1">
<title>2026-02-10</title>
</rect>
<rect x="83.7" y="51.6" width="11.3" height="11.3" fill="#444444" rx="1.1">
<title>2026-02-11</title>
</rect>
<rect x="83.7" y="63.9" width="11.3" height="11.3" fill="#444444" rx="1.1">
<title>2026-02-12</title>
</rect>
<rect x="83.7" y="76.1" width="11.3" height="11.3" fill="#444444" rx="1.1">
<title>2026-02-13</title>
</rect>
<rect x="83.7" y="88.4" width="11.3" height="11.3" fill="#444444" rx="1.1">
<title>2026-02-14</title>
</rect>
<rect x="83.7" y="100.7" width="11.3" height="11.3" fill="#444444" rx="1.1">
<title>2026-02-15</title>
</rect>
<rect x="96.0" y="27.0" width="11.3" height="11.3" fill="#444444" rx="1.1">
<title>2026-02-16</title>
</rect>
<rect x="96.0" y="39.3" width="11.3" height="11.3" fill="#444444" rx="1.1">
<title>2026-02-17</title>
</rect>
<rect x="96.0" y="51.6" width="11.3" height="11.3" fill="#444444" rx="1.1">
<title>2026-02-18</title>
</rect>
<rect x="96.0" y="63.9" width="11.3" height="11.3" fill="#444444" rx="1.1">
<title>2026-02-19</title>
</rect>
<rect x="96.0" y="76.1" width="11.3" height="11.3" fill="#444444" rx="1.1">
<title>2026-02-20</title>
</rect>
<rect x="96.0" y="88.4" width="11.3" height="11.3" fill="#444444" rx="1.1">
<title>2026-02-21</title>
</rect>
<rect x="96.0" y="100.7" width="11.3" height="11.3" fill="#444444" rx="1.1">
<title>2026-02-22</title>
</rect>
<rect x="108.3" y="27.0" width="11.3" height="11.3" fill="#444444" rx="1.1">
<title>2026-02-23</title>
</rect>
<rect x="108.3" y="39.3" width="11.3" height="11.3" fill="#444444" rx="1.1">
<title>2026-02-24</title>
</rect>
<rect x="108.3" y="51.6" width="11.3" height="11.3" fill="#444444" rx="1.1">
<title>2026-02-25</title>
</rect>
<rect x="108.3" y="63.9" width="11.3" height="11.3" fill="#444444" rx="1.1">
<title>2026-02-26</title>
</rect>
<rect x="108.3" y="76.1" width="11.3" height="11.3" fill="#444444" rx="1.1">
<title>2026-02-27</title>
</rect>
<rect x="108.3" y="88.4" width="11.3" height="11.3" fill="#444444" rx="1.1">
<title>2026-02-28</title>
</rect>
<rect x="108.3" y="100.7" width="11.3" height="11.3" fill="#444444" rx="1.1">
<title>2026-03-01</title>
</rect>
<rect x="120.6" y="27.0" width="11.3" height="11.3" fill="#444444" rx="1.1">
<title>2026-03-02</title>
</rect>
<rect x="120.6" y="39.3" width="11.3" height="11.3" fill="#444444" rx="1.1">
<title>2026-03-03</title>
</rect>
<rect x="120.6" y="51.6" width="11.3" height="11.3" fill="#444444" rx="1.1">
<title>2026-03-04</title>
</rect>
<rect x="120.6" y="63.9" width="11.3" height="11.3" fill="#444444" rx="1.1">
<title>2026-03-05</title>
</rect>
<rect x="120.6" y="76.1" width="11.3" height="11.3" fill="#444444" rx="1.1">
<title>2026-03-06</title>
</rect>
<rect x="120.6" y="88.4" width="11.3" height="11.3" fill="#444444" rx="1.1">
<title>2026-03-07</title>
</rect>
<rect x="120.6" y="100.7" width="11.3" height="11.3" fill="#444444" rx="1.1">
<title>2026-03-08</title>
</rect>
<rect x="132.9" y="27.0" width="11.3" height="11.3" fill="#444444" rx="1.1">
<title>2026-03-09</title>
</rect>
<rect x="132.9" y="39.3" width="11.3" height="11.3" fill="#444444" rx="1.1">
<title>2026-03-10</title>
</rect>
<rect x="132.9" y="51.6" width="11.3" height="11.3" fill="#444444" rx="1.1">
<title>2026-03-11</title>
</rect>
<rect x="132.9" y="63.9" width="11.3" height="11.3" fill="#444444" rx="1.1">
<title>2026-03-12</title>
</rect>
<rect x="132.9" y="76.1" width="11.3" height="11.3" fill="#444444" rx="1.1">
<title>2026-03-13</title>
</rect>
<rect x="132.9" y="88.4" width="11.3" height="11.3" fill="#444444" rx="1.1">
<title>2026-03-14</title>
</rect>
<rect x="132.9" y="100.7" width="11.3" height="11.3" fill="#444444" rx="1.1">
<title>2026-03-15</title>
</rect>
<rect x="145.1" y="27.0" width="11.3" height="11.3" fill="#444444" rx="1.1">
<title>2026-03-16</title>
</rect>
<rect x="145.1" y="39.3" width="11.3" height="11.3" fill="#444444" rx="1.1">
<title>2026-03-17</title>
</rect>
<rect x="145.1" y="51.6" width="11.3" height="11.3" fill="#444444" rx="1.1">
<title>2026-03-18</title>
</rect>
<rect x="145.1" y="63.9" width="11.3" height="11.3" fill="#444444" rx="1.1">
<title>2026-03-19</title>
</rect>
<rect x="145.1" y="76.1" width="11.3" height="11.3" fill="#444444" rx="1.1">
<title>2026-03-20</title>
</rect>
<rect x="145.1" y="88.4" width="11.3" height="11.3" fill="#444444" rx="1.1">
<title>2026-03-21</title>
</rect>
<rect x="145.1" y="100.7" width="11.3" height="11.3" fill="#444444" rx="1.1">
<title>2026-03-22</title>
</rect>
<rect x="157.4" y="27.0" width="11.3" height="11.3" fill="#444444" rx="1.1">
<title>2026-03-23</title>
</rect>
<rect x="157.4" y="39.3" width="11.3" height="11.3" fill="#444444" rx="1.1">
<title>2026-03-24</title>
</rect>
<rect x="157.4" y="51.6" width="11.3" height="11.3" fill="#444444" rx="1.1">
<title>2026-03-25</title>
</rect>
<rect x="157.4" y="63.9" width="11.3" height="11.3" fill="#444444" rx="1.1">
<title>2026-03-26</title>
</rect>
<rect x="157.4" y="76.1" width="11.3" height="11.3" fill="#444444" rx="1.1">
<title>2026-03-27</title>
</rect>
<rect x="157.4" y="88.4" width="11.3" height="11.3" fill="#444444" rx="1.1">
<title>2026-03-28</title>
</rect>
<rect x="157.4" y="100.7" width="11.3" height="11.3" fill="#444444" rx="1.1">
<title>2026-03-29</title>
</rect>
<rect x="169.7" y="27.0" width="11.3" height="11.3" fill="#444444" rx="1.1">
<title>2026-03-30</title>
</rect>
<rect x="169.7" y="39.3" width="11.3" height="11.3" fill="#444444" rx="1.1">
<title>2026-03-31</title>
</rect>
<rect x="169.7" y="51.6" width="11.3" height="11.3" fill="#444444" rx="1.1">
<title>2026-04-01</title>
</rect>
<rect x="169.7" y="63.9" width="11.3" height="11.3" fill="#444444" rx="1.1">
<title>2026-04-02</title>
</rect>
<rect x="169.7" y="76.1" width="11.3" height="11.3" fill="#444444" rx="1.1">
<title>2026-04-03</title>
</rect>
<rect x="169.7" y="88.4" width="11.3" height="11.3" fill="#444444" rx="1.1">
<title>2026-04-04</title>
</rect>
<rect x="169.7" y="100.7" width="11.3" height="11.3" fill="#444444" rx="1.1">
<title>2026-04-05</title>
</rect>
<rect x="182.0" y="27.0" width="11.3" height="11.3" fill="#444444" rx="1.1">
<title>2026-04-06</title>
</rect>
<rect x="182.0" y="39.3" width="11.3" height="11.3" fill="#444444" rx="1.1">
<title>2026-04-07</title>
</rect>
<rect x="182.0" y="51.6" width="11.3" height="11.3" fill="#444444" rx="1.1">
<title>2026-04-08</title>
</rect>
<rect x="182.0" y="63.9" width="11.3" height="11.3" fill="#444444" rx="1.1">
<title>2026-04-09</title>
</rect>
<rect x="182.0" y="76.1" width="11.3" height="11.3" fill="#444444" rx="1.1">
<title>2026-04-10</title>
</rect>
<rect x="182.0" y="88.4" width="11.3" height="11.3" fill="#444444" rx="1.1">
<title>2026-04-11</title>
</rect>
<rect x="182.0" y="100.7" width="11.3" height="11.3" fill="#444444" rx="1.1">
<title>2026-04-12</title>
</rect>
<rect x="194.3" y="27.0" width="11.3" height="11.3" fill="#444444" rx="1.1">
<title>2026-04-13</title>
</rect>
<rect x="194.3" y="39.3" width="11.3" height="11.3" fill="#444444" rx="1.1">
<title>2026-04-14</title>
</rect>
<rect x="194.3" y="51.6" width="11.3" height="11.3" fill="#444444" rx="1.1">
<title>2026-04-15</title>
</rect>
<rect x="194.3" y="63.9" width="11.3" height="11.3" fill="#444444" rx="1.1">
<title>2026-04-16</title>
</rect>
<rect x="194.3" y="76.1" width="11.3" height="11.3" fill="#444444" rx="1.1">
<title>2026-04-17</title>
</rect>
<rect x="194.3" y="88.4" width="11.3" height="11.3" fill="#444444" rx="1.1">
<title>2026-04-18</title>
</rect>
<rect x="194.3" y="100.7" width="11.3" height="11.3" fill="#444444" rx="1.1">
<title>2026-04-19</title>
</rect>
<rect x="206.6" y="27.0" width="11.3" height="11.3" fill="#444444" rx="1.1">
<title>2026-04-20</title>
</rect>
<rect x="206.6" y="39.3" width="11.3" height="11.3" fill="#444444" rx="1.1">
<title>2026-04-21</title>
</rect>
<rect x="206.6" y="51.6" width="11.3" height="11.3" fill="#444444" rx="1.1">
<title>2026-04-22</title>
</rect>
<rect x="206.6" y="63.9" width="11.3" height="11.3" fill="#444444" rx="1.1">
<title>2026-04-23</title>
</rect>
<rect x="206.6" y="76.1" width="11.3" height="11.3" fill="#444444" rx="1.1">
<title>2026-04-24</title>
</rect>
<rect x="206.6" y="88.4" width="11.3" height="11.3" fill="#444444" rx="1.1">
<title>2026-04-25</title>
</rect>
<rect x="206.6" y="100.7" width="11.3" height="11.3" fill="#444444" rx="1.1">
<title>2026-04-26</title>
</rect>
<rect x="218.9" y="27.0" width="11.3" height="11.3" fill="#444444" rx="1.1">
<title>2026-04-27</title>
</rect>
<rect x="218.9" y="39.3" width="11.3" height="11.3" fill="#444444" rx="1.1">
<title>2026-04-28</title>
</rect>
<rect x="218.9" y="51.6" width="11.3" height="11.3" fill="#444444" rx="1.1">
<title>2026-04-29</title>
</rect>
<rect x="218.9" y="63.9" width="11.3" height="11.3" fill="#444444" rx="1.1">
<title>2026-04-30</title>
</rect>
<rect x="218.9" y="76.1" width="11.3" height="11.3" fill="#444444" rx="1.1">
<title>2026-05-01</title>
</rect>
<rect x="218.9" y="88.4" width="11.3" height="11.3" fill="#444444" rx="1.1">
<title>2026-05-02</title>
</rect>
<rect x="218.9" y="100.7" width="11.3" height="11.3" fill="#444444" rx="1.1">
<title>2026-05-03</title>
</rect>
<rect x="231.1" y="27.0" width="11.3" height="11.3" fill="#444444" rx="1.1">
<title>2026-05-04</title>
</rect>
<rect x="231.1" y="39.3" width="11.3" height="11.3" fill="#444444" rx="1.1">
<title>2026-05-05</title>
</rect>
<rect x="231.1" y="51.6" width="11.3" height="11.3" fill="#444444" rx="1.1">
<title>2026-05-06</title>
</rect>
<rect x="231.1" y="63.9" width="11.3" height="11.3" fill="#444444" rx="1.1">
<title>2026-05-07</title>
</rect>
<rect x="231.1" y="76.1" width="11.3" height="11.3" fill="#444444" rx="1.1">
<title>2026-05-08</title>
</rect>
<rect x="231.1" y="88.4" width="11.3" height="11.3" fill="#444444" rx="1.1">
<title>2026-05-09</title>
</rect>
<rect x="231.1" y="100.7" width="11.3" height="11.3" fill="#444444" rx="1.1">
<title>2026-05-10</title>
</rect>
<rect x="243.4" y="27.0" width="11.3" height="11.3" fill="#444444" rx="1.1">
<title>2026-05-11</title>
</rect>
<rect x="243.4" y="39.3" width="11.3" height="11.3" fill="#444444" rx="1.1">
<title>2026-05-12</title>
</rect>
<rect x="243.4" y="51.6" width="11.3" height="11.3" fill="#444444" rx="1.1">
<title>2026-05-13</title>
</rect>
<rect x="243.4" y="63.9" width="11.3" height="11.3" fill="#444444" rx="1.1">
<title>2026-05-14</title>
</rect>
<rect x="243.4" y="76.1" width="11.3" height="11.3" fill="#444444" rx="1.1">
<title>2026-05-15</title>
</rect>
<rect x="243.4" y="88.4" width="11.3" height="11.3" fill="#444444" rx="1.1">
<title>2026-05-16</title>
</rect>
<rect x="243.4" y="100.7" width="11.3" height="11.3" fill="#444444" rx="1.1">
<title>2026-05-17</title>
</rect>
<rect x="255.7" y="27.0" width="11.3" height="11.3" fill="#444444" rx="1.1">
<title>2026-05-18</title>
</rect>
<rect x="255.7" y="39.3" width="11.3" height="11.3" fill="#444444" rx="1.1">
<title>2026-05-19</title>
</rect>
<rect x="255.7" y="51.6" width="11.3" height="11.3" fill="#444444" rx="1.1">
<title>2026-05-20</title>
</rect>
<rect x="255.7" y="63.9" width="11.3" height="11.3" fill="#444444" rx="1.1">
<title>2026-05-21</title>
</rect>
<rect x="255.7" y="76.1" width="11.3" height="11.3" fill="#444444" rx="1.1">
<title>2026-05-22</title>
</rect>
<rect x="255.7" y="88.4" width="11.3" height="11.3" fill="#444444" rx="1.1">
<title>2026-05-23</title>
</rect>
<rect x="255.7" y="100.7" width="11.3" height="11.3" fill="#444444" rx="1.1">
<title>2026-05-24</title>
</rect>
<rect x="268.0" y="27.0" width="11.3" height="11.3" fill="#444444" rx="1.1">
<title>2026-05-25</title>
</rect>
<rect x="268.0" y="39.3" width="11.3" height="11.3" fill="#444444" rx="1.1">
<title>2026-05-26</title>
</rect>
<rect x="268.0" y="51.6" width="11.3" height="11.3" fill="#444444" rx="1.1">
<title>2026-05-27</title>
</rect>
<rect x="268.0" y="63.9" width="11.3" height="11.3" fill="#444444" rx="1.1">
<title>2026-05-28</title>
</rect>
<rect x="268.0" y="76.1" width="11.3" height="11.3" fill="#444444" rx="1.1">
<title>2026-05-29</title>
</rect>
<rect x="268.0" y="88.4" width="11.3" height="11.3" fill="#444444" rx="1.1">
<title>2026-05-30</title>
</rect>
<rect x="268.0" y="100.7" width="11.3" height="11.3" fill="#444444" rx="1.1">
<title>2026-05-31</title>
</rect>
<rect x="280.3" y="27.0" width="11.3" height="11.3" fill="#444444" rx="1.1">
<title>2026-06-01</title>
</rect>
<rect x="280.3" y="39.3" width="11.3" height="11.3" fill="#444444" rx="1.1">
<title>2026-06-02</title>
</rect>
<rect x="280.3" y="51.6" width="11.3" height="11.3" fill="#444444" rx="1.1">
<title>2026-06-03</title>
</rect>
<rect x="280.3" y="63.9" width="11.3" height="11.3" fill="#444444" rx="1.1">
<title>2026-06-04</title>
</rect>
<rect x="280.3" y="76.1" width="11.3" height="11.3" fill="#444444" rx="1.1">
<title>2026-06-05</title>
</rect>
<rect x="280.3" y="88.4" width="11.3" height="11.3" fill="#444444" rx="1.1">
<title>2026-06-06</title>
</rect>
<rect x="280.3" y="100.7" width="11.3" height="11.3" fill="#444444" rx="1.1">
<title>2026-06-07</title>
</rect>
<rect x="292.6" y="27.0" width="11.3" height="11.3" fill="#444444" rx="1.1">
<title>2026-06-08</title>
</rect>
<rect x="292.6" y="39.3" width="11.3" height="11.3" fill="#444444" rx="1.1">
<title>2026-06-09</title>
</rect>
<rect x="292.6" y="51.6" width="11.3" height="11.3" fill="#444444" rx="1.1">
<title>2026-06-10</title>
</rect>
<rect x="292.6" y="63.9" width="11.3" height="11.3" fill="#444444" rx="1.1">
<title>2026-06-11</title>
</rect>
<rect x="292.6" y="76.1" width="11.3" height="11.3" fill="#444444" rx="1.1">
<title>2026-06-12</title>
</rect>
<rect x="292.6" y="88.4" width="11.3" height="11.3" fill="#444444" rx="1.1">
<title>2026-06-13</title>
</rect>
<rect x="292.6" y="100.7" width="11.3" height="11.3" fill="#444444" rx="1.1">
<title>2026-06-14</title>
</rect>
<rect x="304.9" y="27.0" width="11.3" height="11.3" fill="#444444" rx="1.1">
<title>2026-06-15</title>
</rect>
<rect x="304.9" y="39.3" width="11.3" height="11.3" fill="#444444" rx="1.1">
<title>2026-06-16</title>
</rect>
<rect x="304.9" y="51.6" width="11.3" height="11.3" fill="#444444" rx="1.1">
<title>2026-06-17</title>
</rect>
<rect x="304.9" y="63.9" width="11.3" height="11.3" fill="#444444" rx="1.1">
<title>2026-06-18</title>
</rect>
<rect x="304.9" y="76.1" width="11.3" height="11.3" fill="#444444" rx="1.1">
<title>2026-06-19</title>
</rect>
<rect x="304.9" y="88.4" width="11.3" height="11.3" fill="#444444" rx="1.1">
<title>2026-06-20</title>
</rect>
<rect x="304.9" y="100.7" width="11.3" height="11.3" fill="#444444" rx="1.1">
<title>2026-06-21</title>
</rect>
<rect x="317.1" y="27.0" width="11.3" height="11.3" fill="#444444" rx="1.1">
<title>2026-06-22</title>
</rect>
<rect x="317.1" y="39.3" width="11.3" height="11.3" fill="#444444" rx="1.1">
<title>2026-06-23</title>
</rect>
<rect x="317.1" y="51.6" width="11.3" height="11.3" fill="#444444" rx="1.1">
<title>2026-06-24</title>
</rect>
<rect x="317.1" y="63.9" width="11.3" height="11.3" fill="#444444" rx="1.1">
<title>2026-06-25</title>
</rect>
<rect x="317.1" y="76.1" width="11.3" height="11.3" fill="#444444" rx="1.1">
<title>2026-06-26</title>
</rect>
<rect x="317.1" y="88.4" width="11.3" height="11.3" fill="#444444" rx="1.1">
<title>2026-06-27</title>
</rect>
<rect x="317.1" y="100.7" width="11.3" height="11.3" fill="#444444" rx="1.1">
<title>2026-06-28</title>
</rect>
<rect x="329.4" y="27.0" width="11.3" height="11.3" fill="#444444" rx="1.1">
<title>2026-06-29</title>
</rect>
<rect x="329.4" y="39.3" width="11.3" height="11.3" fill="#444444" rx="1.1">
<title>2026-06-30</title>
</rect>
<rect x="329.4" y="51.6" width="11.3" height="11.3" fill="#444444" rx="1.1">
<title>2026-07-01</title>
</rect>
<rect x="329.4" y="63.9" width="11.3" height="11.3" fill="#444444" rx="1.1">
<title>2026-07-02</title>
</rect>
<rect x="329.4" y="76.1" width="11.3" height="11.3" fill="#444444" rx="1.1">
<title>2026-07-03</title>
</rect>
<rect x="329.4" y="88.4" width="11.3" height="11.3" fill="#444444" rx="1.1">
<title>2026-07-04</title>
</rect>
<rect x="329.4" y="100.7" width="11.3" height="11.3" fill="#444444" rx="1.1">
<title>2026-07-05</title>
</rect>
<rect x="341.7" y="27.0" width="11.3" height="11.3" fill="#444444" rx="1.1">
<title>2026-07-06</title>
</rect>
<rect x="341.7" y="39.3" width="11.3" height="11.3" fill="#444444" rx="1.1">
<title>2026-07-07</title>
</rect>
<rect x="341.7" y="51.6" width="11.3" height="11.3" fill="#444444" rx="1.1">
<title>2026-07-08</title>
</rect>
<rect x="341.7" y="63.9" width="11.3" height="11.3" fill="#444444" rx="1.1">
<title>2026-07-09</title>
</rect>
<rect x="341.7" y="76.1" width="11.3" height="11.3" fill="#444444" rx="1.1">
<title>2026-07-10</title>
</rect>
<rect x="341.7" y="88.4" width="11.3" height="11.3" fill="#444444" rx="1.1">
<title>2026-07-11</title>
</rect>
<rect x="341.7" y="100.7" width="11.3" height="11.3" fill="#444444" rx="1.1">
<title>2026-07-12</title>
</rect>
<rect x="354.0" y="27.0" width="11.3" height="11.3" fill="#444444" rx="1.1">
<title>2026-07-13</title>
</rect>
<rect x="354.0" y="39.3" width="11.3" height="11.3" fill="#444444" rx="1.1">
<title>2026-07-14</title>
</rect>
<rect x="354.0" y="51.6" width="11.3" height="11.3" fill="#444444" rx="1.1">
<title>2026-07-15</title>
</rect>
<rect x="354.0" y="63.9" width="11.3" height="11.3" fill="#444444" rx="1.1">
<title>2026-07-16</title>
</rect>
<rect x="354.0" y="76.1" width="11.3" height="11.3" fill="#444444" rx="1.1">
<title>2026-07-17</title>
</rect>
<rect x="354.0" y="88.4" width="11.3" height="11.3" fill="#444444" rx="1.1">
<title>2026-07-18</title>
</rect>
<rect x="354.0" y="100.7" width="11.3" height="11.3" fill="#444444" rx="1.1">
<title>2026-07-19</title>
</rect>
<rect x="366.3" y="27.0" width="11.3" height="11.3" fill="#444444" rx="1.1">
<title>2026-07-20</title>
</rect>
<rect x="366.3" y="39.3" width="11.3" height="11.3" fill="#444444" rx="1.1">
<title>2026-07-21</title>
</rect>
<rect x="366.3" y="51.6" width="11.3" height="11.3" fill="#444444" rx="1.1">
<title>2026-07-22</title>
</rect>
<rect x="366.3" y="63.9" width="11.3" height="11.3" fill="#444444" rx="1.1">
<title>2026-07-23</title>
</rect>
<rect x="366.3" y="76.1" width="11.3" height="11.3" fill="#444444" rx="1.1">
<title>2026-07-24</title>
</rect>
<rect x="366.3" y="88.4" width="11.3" height="11.3" fill="#444444" rx="1.1">
<title>2026-07-25</title>
</rect>
<rect x="366.3" y="100.7" width="11.3" height="11.3" fill="#444444" rx="1.1">
<title>2026-07-26</title>
</rect>
<rect x="378.6" y="27.0" width="11.3" height="11.3" fill="#444444" rx="1.1">
<title>2026-07-27</title>
</rect>
<rect x="378.6" y="39.3" width="11.3" height="11.3" fill="#444444" rx="1.1">
<title>2026-07-28</title>
</rect>
<rect x="378.6" y="51.6" width="11.3" height="11.3" fill="#444444" rx="1.1">
<title>2026-07-29</title>
</rect>
<rect x="378.6" y="63.9" width="11.3" height="11.3" fill="#444444" rx="1.1">
<title>2026-07-30</title>
</rect>
<rect x="378.6" y="76.1" width="11.3" height="11.3" fill="#444444" rx="1.1">
<title>2026-07-31</title>
</rect>
<rect x="378.6" y="88.4" width="11.3" height="11.3" fill="#444444" rx="1.1">
<title>2026-08-01</title>
</rect>
<rect x="378.6" y="100.7" width="11.3" height="11.3" fill="#444444" rx="1.1">
<title>2026-08-02</title>
</rect>
<rect x="390.9" y="27.0" width="11.3" height="11.3" fill="#444444" rx="1.1">
<title>2026-08-03</title>
</rect>
<rect x="390.9" y="39.3" width="11.3" height="11.3" fill="#444444" rx="1.1">
<title>2026-08-04</title>
</rect>
<rect x="390.9" y="51.6" width="11.3" height="11.3" fill="#444444" rx="1.1">
<title>2026-08-05</title>
</rect>
<rect x="390.9" y="63.9" width="11.3" height="11.3" fill="#444444" rx="1.1">
<title>2026-08-06</title>
</rect>
<rect x="390.9" y="76.1" width="11.3" height="11.3" fill="#444444" rx="1.1">
<title>2026-08-07</title>
</rect>
<rect x="390.9" y="88.4" width="11.3" height="11.3" fill="#444444" rx="1.1">
<title>2026-08-08</title>
</rect>
<rect x="390.9" y="100.7" width="11.3" height="11.3" fill="#444444" rx="1.1">
<title>2026-08-09</title>
</rect>
<rect x="403.1" y="27.0" width="11.3" height="11.3" fill="#444444" rx="1.1">
<title>2026-08-10</title>
</rect>
<rect x="403.1" y="39.3" width="11.3" height="11.3" fill="#444444" rx="1.1">
<title>2026-08-11</title>
</rect>
<rect x="403.1" y="51.6" width="11.3" height="11.3" fill="#444444" rx="1.1">
<title>2026-08-12</title>
</rect>
<rect x="403.1" y="63.9" width="11.3" height="11.3" fill="#444444" rx="1.1">
<title>2026-08-13</title>
</rect>
<rect x="403.1" y="76.1" width="11.3" height="11.3" fill="#444444" rx="1.1">
<title>2026-08-14</title>
</rect>
<rect x="403.1" y="88.4" width="11.3" height="11.3" fill="#444444" rx="1.1">
<title>2026-08-15</title>
</rect>
<rect x="403.1" y="100.7" width="11.3" height="11.3" fill="#444444" rx="1.1">
<title>2026-08-16</title>
</rect>
<rect x="415.4" y="27.0" width="11.3" height="11.3" fill="#444444" rx="1.1">
<title>2026-08-17</title>
</rect>
<rect x="415.4" y="39.3" width="11.3" height="11.3" fill="#444444" rx="1.1">
<title>2026-08-18</title>
</rect>
<rect x="415.4" y="51.6" width="11.3" height="11.3" fill="#444444" rx="1.1">
<title>2026-08-19</title>
</rect>
<rect x="415.4" y="63.9" width="11.3" height="11.3" fill="#444444" rx="1.1">
<title>2026-08-20</title>
</rect>
<rect x="415.4" y="76.1" width="11.3" height="11.3" fill="#444444" rx="1.1">
<title>2026-08-21</title>
</rect>
<rect x="415.4" y="88.4" width="11.3" height="11.3" fill="#444444" rx="1.1">
<title>2026-08-22</title>
</rect>
<rect x="415.4" y="100.7" width="11.3" height="11.3" fill="#444444" rx="1.1">
<title>2026-08-23</title>
</rect>
<rect x="427.7" y="27.0" width="11.3" height="11.3" fill="#444444" rx="1.1">
<title>2026-08-24</title>
</rect>
<rect x="427.7" y="39.3" width="11.3" height="11.3" fill="#444444" rx="1.1">
<title>2026-08-25</title>
</rect>
<rect x="427.7" y="51.6" width="11.3" height="11.3" fill="#444444" rx="1.1">
<title>2026-08-26</title>
</rect>
<rect x="427.7" y="63.9" width="11.3" height="11.3" fill="#444444" rx="1.1">
<title>2026-08-27</title>
</rect>
<rect x="427.7" y="76.1" width="11.3" height="11.3" fill="#444444" rx="1.1">
<title>2026-08-28</title>
</rect>
<rect x="427.7" y="88.4" width="11.3" height="11.3" fill="#444444" rx="1.1">
<title>2026-08-29</title>
</rect>
<rect x="427.7" y="100.7" width="11.3" height="11.3" fill="#444444" rx="1.1">
<title>2026-08-30</title>
</rect>
<rect x="440.0" y="27.0" width="11.3" height="11.3" fill="#444444" rx="1.1">
<title>2026-08-31</title>
</rect>
<rect x="440.0" y="39.3" width="11.3" height="11.3" fill="#444444" rx="1.1">
<title>2026-09-01</title>
</rect>
<rect x="440.0" y="51.6" width="11.3" height="11.3" fill="#444444" rx="1.1">
<title>2026-09-02</title>
</rect>
<rect x="440.0" y="63.9" width="11.3" height="11.3" fill="#444444" rx="1.1">
<title>2026-09-03</title>
</rect>
<rect x="440.0" y="76.1" width="11.3" height="11.3" fill="#444444" rx="1.1">
<title>2026-09-04</title>
</rect>
<rect x="440.0" y="88.4" width="11.3" height="11.3" fill="#444444" rx="1.1">
<title>2026-09-05</title>
</rect>
<rect x="440.0" y="100.7" width="11.3" height="11.3" fill="#444444" rx="1.1">
<title>2026-09-06</title>
</rect>
<rect x="452.3" y="27.0" width="11.3" height="11.3" fill="#444444" rx="1.1">
<title>2026-09-07</title>
</rect>
<rect x="452.3" y="39.3" width="11.3" height="11.3" fill="#444444" rx="1.1">
<title>2026-09-08</title>
</rect>
<rect x="452.3" y="51.6" width="11.3" height="11.3" fill="#444444" rx="1.1">
<title>2026-09-09</title>
</rect>
<rect x="452.3" y="63.9" width="11.3" height="11.3" fill="#444444" rx="1.1">
<title>2026-09-10</title>
</rect>
<rect x="452.3" y="76.1" width="11.3" height="11.3" fill="#444444" rx="1.1">
<title>2026-09-11</title>
</rect>
<rect x="452.3" y="88.4" width="11.3" height="11.3" fill="#444444" rx="1.1">
<title>2026-09-12</title>
</rect>
<rect x="452.3" y="100.7" width="11.3" height="11.3" fill="#444444" rx="1.1">
<title>2026-09-13</title>
</rect>
<rect x="464.6" y="27.0" width="11.3" height="11.3" fill="#444444" rx="1.1">
<title>2026-09-14</title>
</rect>
<rect x="464.6" y="39.3" width="11.3" height="11.3" fill="#444444" rx="1.1">
<title>2026-09-15</title>
</rect>
<rect x="464.6" y="51.6" width="11.3" height="11.3" fill="#444444" rx="1.1">
<title>2026-09-16</title>
</rect>
<rect x="464.6" y="63.9" width="11.3" height="11.3" fill="#444444" rx="1.1">
<title>2026-09-17</title>
</rect>
<rect x="464.6" y="76.1" width="11.3" height="11.3" fill="#444444" rx="1.1">
<title>2026-09-18</title>
</rect>
<rect x="464.6" y="88.4" width="11.3" height="11.3" fill="#444444" rx="1.1">
<title>2026-09-19</title>
</rect>
<rect x="464.6" y="100.7" width="11.3" height="11.3" fill="#444444" rx="1.1">
<title>2026-09-20</title>
</rect>
<rect x="476.9" y="27.0" width="11.3" height="11.3" fill="#444444" rx="1.1">
<title>2026-09-21</title>
</rect>
<rect x="476.9" y="39.3" width="11.3" height="11.3" fill="#444444" rx="1.1">
<title>2026-09-22</title>
</rect>
<rect x="476.9" y="51.6" width="11.3" height="11.3" fill="#444444" rx="1.1">
<title>2026-09-23</title>
</rect>
<rect x="476.9" y="63.9" width="11.3" height="11.3" fill="#444444" rx="1.1">
<title>2026-09-24</title>
</rect>
<rect x="476.9" y="76.1" width="11.3" height="11.3" fill="#444444" rx="1.1">
<title>2026-09-25</title>
</rect>
<rect x="476.9" y="88.4" width="11.3" height="11.3" fill="#444444" rx="1.1">
<title>2026-09-26</title>
</rect>
<rect x="476.9" y="100.7" width="11.3" height="11.3" fill="#444444" rx="1.1">
<title>2026-09-27</title>
</rect>
<rect x="489.1" y="27.0" width="11.3" height="11.3" fill="#444444" rx="1.1">
<title>2026-09-28</title>
</rect>
<rect x="489.1" y="39.3" width="11.3" height="11.3" fill="#444444" rx="1.1">
<title>2026-09-29</title>
</rect>
<rect x="489.1" y="51.6" width="11.3" height="11.3" fill="#444444" rx="1.1">
<title>2026-09-30</title>
</rect>
<rect x="489.1" y="63.9" width="11.3" height="11.3" fill="#444444" rx="1.1">
<title>2026-10-01</title>
</rect>
<rect x="489.1" y="76.1" width="11.3" height="11.3" fill="#444444" rx="1.1">
<title>2026-10-02</title>
</rect>
<rect x="489.1" y="88.4" width="11.3" height="11.3" fill="#444444" rx="1.1">
<title>2026-10-03</title>
</rect>
<rect x="489.1" y="100.7" width="11.3" height="11.3" fill="#444444" rx="1.1">
<title>2026-10-04</title>
</rect>
<rect x="501.4" y="27.0" width="11.3" height="11.3" fill="#444444" rx="1.1">
<title>2026-10-05</title>
</rect>
<rect x="501.4" y="39.3" width="11.3" height="11.3" fill="#444444" rx="1.1">
<title>2026-10-06</title>
</rect>
<rect x="501.4" y="51.6" width="11.3" height="11.3" fill="#444444" rx="1.1">
<title>2026-10-07</title>
</rect>
<rect x="501.4" y="63.9" width="11.3" height="11.3" fill="#444444" rx="1.1">
<title>2026-10-08</title>
</rect>
<rect x="501.4" y="76.1" width="11.3" height="11.3" fill="#444444" rx="1.1">
<title>2026-10-09</title>
</rect>
<rect x="501.4" y="88.4" width="11.3" height="11.3" fill="#444444" rx="1.1">
<title>2026-10-10</title>
</rect>
<rect x="501.4" y="100.7" width="11.3" height="11.3" fill="#444444" rx="1.1">
<title>2026-10-11</title>
</rect>
<rect x="513.7" y="27.0" width="11.3" height="11.3" fill="#444444" rx="1.1">
<title>2026-10-12</title>
</rect>
<rect x="513.7" y="39.3" width="11.3" height="11.3" fill="#444444" rx="1.1">
<title>2026-10-13</title>
</rect>
<rect x="513.7" y="51.6" width="11.3" height="11.3" fill="#444444" rx="1.1">
<title>2026-10-14</title>
</rect>
<rect x="513.7" y="63.9" width="11.3" height="11.3" fill="#444444" rx="1.1">
<title>2026-10-15</title>
</rect>
<rect x="513.7" y="76.1" width="11.3" height="11.3" fill="#444444" rx="1.1">
<title>2026-10-16</title>
</rect>
<rect x="513.7" y="88.4" width="11.3" height="11.3" fill="#444444" rx="1.1">
<title>2026-10-17</title>
</rect>
<rect x="513.7" y="100.7" width="11.3" height="11.3" fill="#444444" rx="1.1">
<title>2026-10-18</title>
</rect>
<rect x="526.0" y="27.0" width="11.3" height="11.3" fill="#444444" rx="1.1">
<title>2026-10-19</title>
</rect>
<rect x="526.0" y="39.3" width="11.3" height="11.3" fill="#444444" rx="1.1">
<title>2026-10-20</title>
</rect>
<rect x="526.0" y="51.6" width="11.3" height="11.3" fill="#444444" rx="1.1">
<title>2026-10-21</title>
</rect>
<rect x="526.0" y="63.9" width="11.3" height="11.3" fill="#444444" rx="1.1">
<title>2026-10-22</title>
</rect>
<rect x="526.0" y="76.1" width="11.3" height="11.3" fill="#444444" rx="1.1">
<title>2026-10-23</title>
</rect>
<rect x="526.0" y="88.4" width="11.3" height="11.3" fill="#444444" rx="1.1">
<title>2026-10-24</title>
</rect>
<rect x="526.0" y="100.7" width="11.3" height="11.3" fill="#444444" rx="1.1">
<title>2026-10-25</title>
</rect>
<rect x="538.3" y="27.0" width="11.3" height="11.3" fill="#444444" rx="1.1">
<title>2026-10-26</title>
</rect>
<rect x="538.3" y="39.3" width="11.3" height="11.3" fill="#444444" rx="1.1">
<title>2026-10-27</title>
</rect>
<rect x="538.3" y="51.6" width="11.3" height="11.3" fill="#444444" rx="1.1">
<title>2026-10-28</title>
</rect>
<rect x="538.3" y="63.9" width="11.3" height="11.3" fill="#444444" rx="1.1">
<title>2026-10-29</title>
</rect>
<rect x="538.3" y="76.1" width="11.3" height="11.3" fill="#444444" rx="1.1">
<title>2026-10-30</title>
</rect>
<rect x="538.3" y="88.4" width="11.3" height="11.3" fill="#444444" rx="1.1">
<title>2026-10-31</title>
</rect>
<rect x="538.3" y="100.7" width="11.3" height="11.3" fill="#444444" rx="1.1">
<title>2026-11-01</title>
</rect>
<rect x="550.6" y="27.0" width="11.3" height="11.3" fill="#444444" rx="1.1">
<title>2026-11-02</title>
</rect>
<rect x="550.6" y="39.3" width="11.3" height="11.3" fill="#444444" rx="1.1">
<title>2026-11-03</title>
</rect>
<rect x="550.6" y="51.6" width="11.3" height="11.3" fill="#444444" rx="1.1">
<title>2026-11-04</title>
</rect>
<rect x="550.6" y="63.9" width="11.3" height="11.3" fill="#444444" rx="1.1">
<title>2026-11-05</title>
</rect>
<rect x="550.6" y="76.1" width="11.3" height="11.3" fill="#444444" rx="1.1">
<title>2026-11-06</title>
</rect>
<rect x="550.6" y="88.4" width="11.3" height="11.3" fill="#444444" rx="1.1">
<title>2026-11-07</title>
</rect>
<rect x="550.6" y="100.7" width="11.3" height="11.3" fill="#444444" rx="1.1">
<title>2026-11-08</title>
</rect>
<rect x="562.9" y="27.0" width="11.3" height="11.3" fill="#444444" rx="1.1">
<title>2026-11-09</title>
</rect>
<rect x="562.9" y="39.3" width="11.3" height="11.3" fill="#444444" rx="1.1">
<title>2026-11-10</title>
</rect>
<rect x="562.9" y="51.6" width="11.3" height="11.3" fill="#444444" rx="1.1">
<title>2026-11-11</title>
</rect>
<rect x="562.9" y="63.9" width="11.3" height="11.3" fill="#444444" rx="1.1">
<title>2026-11-12</title>
</rect>
<rect x="562.9" y="76.1" width="11.3" height="11.3" fill="#444444" rx="1.1">
<title>2026-11-13</title>
</rect>
<rect x="562.9" y="88.4" width="11.3" height="11.3" fill="#444444" rx="1.1">
<title>2026-11-14</title>
</rect>
<rect x="562.9" y="100.7" width="11.3" height="11.3" fill="#444444" rx="1.1">
<title>2026-11-15</title>
</rect>
<rect x="575.1" y="27.0" width="11.3" height="11.3" fill="#444444" rx="1.1">
<title>2026-11-16</title>
</rect>
<rect x="575.1" y="39.3" width="11.3" height="11.3" fill="#444444" rx="1.1">
<title>2026-11-17</title>
</rect>
<rect x="575.1" y="51.6" width="11.3" height="11.3" fill="#444444" rx="1.1">
<title>2026-11-18</title>
</rect>
<rect x="575.1" y="63.9" width="11.3" height="11.3" fill="#444444" rx="1.1">
<title>2026-11-19</title>
</rect>
<rect x="575.1" y="76.1" width="11.3" height="11.3" fill="#444444" rx="1.1">
<title>2026-11-20</title>
</rect>
<rect x="575.1" y="88.4" width="11.3" height="11.3" fill="#444444" rx="1.1">
<title>2026-11-21</title>
</rect>
<rect x="575.1" y="100.7" width="11.3" height="11.3" fill="#444444" rx="1.1">
<title>2026-11-22</title>
</rect>
<rect x="587.4" y="27.0" width="11.3" height="11.3" fill="#444444" rx="1.1">
<title>2026-11-23</title>
</rect>
<rect x="587.4" y="39.3" width="11.3" height="11.3" fill="#444444" rx="1.1">
<title>2026-11-24</title>
</rect>
<rect x="587.4" y="51.6" width="11.3" height="11.3" fill="#444444" rx="1.1">
<title>2026-11-25</title>
</rect>
<rect x="587.4" y="63.9" width="11.3" height="11.3" fill="#444444" rx="1.1">
<title>2026-11-26</title>
</rect>
<rect x="587.4" y="76.1" width="11.3" height="11.3" fill="#444444" rx="1.1">
<title>2026-11-27</title>
</rect>
<rect x="587.4" y="88.4" width="11.3" height="11.3" fill="#444444" rx="1.1">
<title>2026-11-28</title>
</rect>
<rect x="587.4" y="100.7" width="11.3" height="11.3" fill="#444444" rx="1.1">
<title>2026-11-29</title>
</rect>
<rect x="599.7" y="27.0" width="11.3" height="11.3" fill="#444444" rx="1.1">
<title>2026-11-30</title>
</rect>
<rect x="599.7" y="39.3" width="11.3" height="11.3" fill="#444444" rx="1.1">
<title>2026-12-01</title>
</rect>
<rect x="599.7" y="51.6" width="11.3" height="11.3" fill="#444444" rx="1.1">
<title>2026-12-02</title>
</rect>
<rect x="599.7" y="63.9" width="11.3" height="11.3" fill="#444444" rx="1.1">
<title>2026-12-03</title>
</rect>
<rect x="599.7" y="76.1" width="11.3" height="11.3" fill="#444444" rx="1.1">
<title>2026-12-04</title>
</rect>
<rect x="599.7" y="88.4" width="11.3" height="11.3" fill="#444444" rx="1.1">
<title>2026-12-05</title>
</rect>
<rect x="599.7" y="100.7" width="11.3" height="11.3" fill="#444444" rx="1.1">
<title>2026-12-06</title>
</rect>
<rect x="612.0" y="27.0" width="11.3" height="11.3" fill="#444444" rx="1.1">
<title>2026-12-07</title>
</rect>
<rect x="612.0" y="39.3" width="11.3" height="11.3" fill="#444444" rx="1.1">
<title>2026-12-08</title>
</rect>
<rect x="612.0" y="51.6" width="11.3" height="11.3" fill="#444444" rx="1.1">
<title>2026-12-09</title>
</rect>
<rect x="612.0" y="63.9" width="11.3" height="11.3" fill="#444444" rx="1.1">
<title>2026-12-10</title>
</rect>
<rect x="612.0" y="76.1" width="11.3" height="11.3" fill="#444444" rx="1.1">
<title>2026-12-11</title>
</rect>
<rect x="612.0" y="88.4" width="11.3" height="11.3" fill="#444444" rx="1.1">
<title>2026-12-12</title>
</rect>
<rect x="612.0" y="100.7" width="11.3" height="11.3" fill="#444444" rx="1.1">
<title>2026-12-13</title>
</rect>
<rect x="624.3" y="27.0" width="11.3" height="11.3" fill="#444444" rx="1.1">
<title>2026-12-14</title>
</rect>
<rect x="624.3" y="39.3" width="11.3" height="11.3" fill="#444444" rx="1.1">
<title>2026-12-15</title>
</rect>
<rect x="624.3" y="51.6" width="11.3" height="11.3" fill="#444444" rx="1.1">
<title>2026-12-16</title>
</rect>
<rect x="624.3" y="63.9" width="11.3" height="11.3" fill="#444444" rx="1.1">
<title>2026-12-17</title>
</rect>
<rect x="624.3" y="76.1" width="11.3" height="11.3" fill="#444444" rx="1.1">
<title>2026-12-18</title>
</rect>
<rect x="624.3" y="88.4" width="11.3" height="11.3" fill="#444444" rx="1.1">
<title>2026-12-19</title>
</rect>
<rect x="624.3" y="100.7" width="11.3" height="11.3" fill="#444444" rx="1.1">
<title>2026-12-20</title>
</rect>
<rect x="636.6" y="27.0" width="11.3" height="11.3" fill="#444444" rx="1.1">
<title>2026-12-21</title>
</rect>
<rect x="636.6" y="39.3" width="11.3" height="11.3" fill="#444444" rx="1.1">
<title>2026-12-22</title>
</rect>
<rect x="636.6" y="51.6" width="11.3" height="11.3" fill="#444444" rx="1.1">
<title>2026-12-23</title>
</rect>
<rect x="636.6" y="63.9" width="11.3" height="11.3" fill="#444444" rx="1.1">
<title>2026-12-24</title>
</rect>
<rect x="636.6" y="76.1" width="11.3" height="11.3" fill="#444444" rx="1.1">
<title>2026-12-25</title>
</rect>
<rect x="636.6" y="88.4" width="11.3" height="11.3" fill="#444444" rx="1.1">
<title>2026-12-26</title>
</rect>
<rect x="636.6" y="100.7" width="11.3" height="11.3" fill="#444444" rx="1.1">
<title>2026-12-27</title>
</rect>
<rect x="648.9" y="27.0" width="11.3" height="11.3" fill="#444444" rx="1.1">
<title>2026-12-28</title>
</rect>
<rect x="648.9" y="39.3" width="11.3" height="11.3" fill="#444444" rx="1.1">
<title>2026-12-29</title>
</rect>
<rect x="648.9" y="51.6" width="11.3" height="11.3" fill="#444444" rx="1.1">
<title>2026-12-30</title>
</rect>
<rect x="648.9" y="63.9" width="11.3" height="11.3" fill="#444444" rx="1.1">
<title>2026-12-31</title>
</rect>
</svg>