<?xml version="1.0" encoding="utf-8" ?>
<svg baseProfile="full" height="120" version="1.1" viewBox="0,0,670.1428571428572,120" width="670.1428571428572" xmlns="http://www.w3.org/2000/svg">
<defs />
<rect fill="#222222" height="120" width="670.1428571428572" x="0" y="0" />
<text fill="#FFFFFF" style="font-size:11px; font-family:Arial; font-weight:bold;" text-anchor="start" x="10" y="12">1226 km</text>
<text fill="#8b949e" style="font-size:9px; font-family:Arial;" text-anchor="start" x="10.0" y="25">Jan</text>
<text fill="#8b949e" style="font-size:9px; font-family:Arial;" text-anchor="start" x="59.1" y="25">Feb</text>
<text fill="#8b949e" style="font-size:9px; font-family:Arial;" text-anchor="start" x="108.3" y="25">Mar</text>
<text fill="#8b949e" style="font-size:9px; font-family:Arial;" text-anchor="start" x="169.7" y="25">Apr</text>
<text fill="#8b949e" style="font-size:9px; font-family:Arial;" text-anchor="start" x="218.9" y="25">May</text>
<text fill="#8b949e" style="font-size:9px; font-family:Arial;" text-anchor="start" x="268.0" y="25">Jun</text>
<text fill="#8b949e" style="font-size:9px; font-family:Arial;" text-anchor="start" x="329.4" y="25">Jul</text>
<text fill="#8b949e" style="font-size:9px; font-family:Arial;" text-anchor="start" x="378.6" y="25">Aug</text>
<text fill="#8b949e" style="font-size:9px; font-family:Arial;" text-anchor="start" x="440.0" y="25">Sep</text>
<text fill="#8b949e" style="font-size:9px; font-family:Arial;" text-anchor="start" x="489.1" y="25">Oct</text>
<text fill="#8b949e" style="font-size:9px; font-family:Arial;" text-anchor="start" x="538.3" y="25">Nov</text>
<text fill="#8b949e" style="font-size:9px; font-family:Arial;" text-anchor="start" x="599.7" y="25">Dec</text>
<rect x="10.0" y="27.0" width="11.3" height="11.3" fill="#ffe900" rx="1.1">
<title>2025-01-01: 4.08 km (1 activities)</title>
</rect>
<rect x="10.0" y="39.3" width="11.3" height="11.3" fill="red" rx="1.1">
<title>2025-01-02: 16.36 km (2 activities)</title>
</rect>
<rect x="10.0" y="51.6" width="11.3" height="11.3" fill="#444444" rx="1.1">
<title>2025-01-03</title>
</rect>
<rect x="10.0" y="63.9" width="11.3" height="11.3" fill="red" rx="1.1">
<title>2025-01-04: 12.11 km (2 activities)</title>
</rect>
<rect x="10.0" y="76.1" width="11.3" height="11.3" fill="red" rx="1.1">
<title>2025-01-05: 10.13 km (1 activities)</title>
</rect>
<rect x="22.3" y="27.0" width="11.3" height="11.3" fill="#ffeb00" rx="1.1">
<title>2025-01-06: 6.27 km (1 activities)</title>
</rect>
<rect x="22.3" y="39.3" width="11.3" height="11.3" fill="#444444" rx="1.1">
<title>2025-01-07</title>
</rect>
<rect x="22.3" y="51.6" width="11.3" height="11.3" fill="#444444" rx="1.1">
<title>2025-01-08</title>
</rect>
<rect x="22.3" y="63.9" width="11.3" height="11.3" fill="#ffeb00" rx="1.1">
<title>2025-01-09: 6.15 km (1 activities)</title>
</rect>
<rect x="22.3" y="76.1" width="11.3" height="11.3" fill="#444444" rx="1.1">
<title>2025-01-10</title>
</rect>
<rect x="22.3" y="88.4" width="11.3" height="11.3" fill="#ffeb00" rx="1.1">
<title>2025-01-11: 6.26 km (1 activities)</title>
</rect>
<rect x="22.3" y="100.7" width="11.3" height="11.3" fill="#444444" rx="1.1">
<title>2025-01-12</title>
</rect>
<rect x="34.6" y="27.0" width="11.3" height="11.3" fill="#ffeb00" rx="1.1">
<title>2025-01-13: 6.01 km (1 activities)</title>
</rect>
<rect x="34.6" y="39.3" width="11.3" height="11.3" fill="#ffeb00" rx="1.1">
<title>2025-01-14: 6.56 km (2 activities)</title>
</rect>
<rect x="34.6" y="51.6" width="11.3" height="11.3" fill="#ffeb00" rx="1.1">
<title>2025-01-15: 5.85 km (1 activities)</title>
</rect>
<rect x="34.6" y="63.9" width="11.3" height="11.3" fill="#ffeb00" rx="1.1">
<title>2025-01-16: 6.03 km (1 activities)</title>
</rect>
<rect x="34.6" y="76.1" width="11.3" height="11.3" fill="#ffeb00" rx="1.1">
<title>2025-01-17: 6.46 km (2 activities)</title>
</rect>
<rect x="34.6" y="88.4" width="11.3" height="11.3" fill="#ffeb00" rx="1.1">
<title>2025-01-18: 6.03 km (1 activities)</title>
</rect>
<rect x="34.6" y="100.7" width="11.3" height="11.3" fill="#444444" rx="1.1">
<title>2025-01-19</title>
</rect>
<rect x="46.9" y="27.0" width="11.3" height="11.3" fill="#ffeb00" rx="1.1">
<title>2025-01-20: 5.50 km (1 activities)</title>
</rect>
<rect x="46.9" y="39.3" width="11.3" height="11.3" fill="#444444" rx="1.1">
<title>2025-01-21</title>
</rect>
<rect x="46.9" y="51.6" width="11.3" height="11.3" fill="#ffef00" rx="1.1">
<title>2025-01-22: 3.12 km (1 activities)</title>
</rect>
<rect x="46.9" y="63.9" width="11.3" height="11.3" fill="#fff300" rx="1.1">
<title>2025-01-23: 2.65 km (1 activities)</title>
</rect>
<rect x="46.9" y="76.1" width="11.3" height="11.3" fill="#f4ea5c" rx="1.1">
<title>2025-01-24: 1.66 km (1 activities)</title>
</rect>
<rect x="46.9" y="88.4" width="11.3" height="11.3" fill="red" rx="1.1">
<title>2025-01-25: 11.78 km (2 activities)</title>
</rect>
<rect x="46.9" y="100.7" width="11.3" height="11.3" fill="#444444" rx="1.1">
<title>2025-01-26</title>
</rect>
<rect x="59.1" y="27.0" width="11.3" height="11.3" fill="#444444" rx="1.1">
<title>2025-01-27</title>
</rect>
<rect x="59.1" y="39.3" width="11.3" height="11.3" fill="#ffeb00" rx="1.1">
<title>2025-01-28: 5.70 km (1 activities)</title>
</rect>
<rect x="59.1" y="51.6" width="11.3" height="11.3" fill="#444444" rx="1.1">
<title>2025-01-29</title>
</rect>
<rect x="59.1" y="63.9" width="11.3" height="11.3" fill="red" rx="1.1">
<title>2025-01-30: 10.21 km (1 activities)</title>
</rect>
<rect x="59.1" y="76.1" width="11.3" height="11.3" fill="red" rx="1.1">
<title>2025-01-31: 9.20 km (2 activities)</title>
</rect>
<rect x="59.1" y="88.4" width="11.3" height="11.3" fill="#ffeb00" rx="1.1">
<title>2025-02-01: 6.17 km (1 activities)</title>
</rect>
<rect x="59.1" y="100.7" width="11.3" height="11.3" fill="#444444" rx="1.1">
<title>2025-02-02</title>
</rect>
<rect x="71.4" y="27.0" width="11.3" height="11.3" fill="#444444" rx="1.1">
<title>2025-02-03</title>
</rect>
<rect x="71.4" y="39.3" width="11.3" height="11.3" fill="#444444" rx="1.1">
<title>2025-02-04</title>
</rect>
<rect x="71.4" y="51.6" width="11.3" height="11.3" fill="#444444" rx="1.1">
<title>2025-02-05</title>
</rect>
<rect x="71.4" y="63.9" width="11.3" height="11.3" fill="#ffeb00" rx="1.1">
<title>2025-02-06: 6.06 km (1 activities)</title>
</rect>
<rect x="71.4" y="76.1" width="11.3" height="11.3" fill="#444444" rx="1.1">
<title>2025-02-07</title>
</rect>
<rect x="71.4" y="88.4" width="11.3" height="11.3" fill="#444444" rx="1.1">
<title>2025-02-08</title>
</rect>
<rect x="71.4" y="100.7" width="11.3" height="11.3" fill="#f4ea5c" rx="1.1">
<title>2025-02-09: 1.46 km (1 activities)</title>
</rect>
<rect x="83.7" y="27.0" width="11.3" height="11.3" fill="#444444" rx="1.1">
<title>2025-02-10</title>
</rect>
<rect x="83.7" y="39.3" width="11.3" height="11.3" fill="red" rx="1.1">
<title>2025-02-11: 12.34 km (2 activities)</title>
</rect>
<rect x="83.7" y="51.6" width="11.3" height="11.3" fill="#444444" rx="1.1">
<title>2025-02-12</title>
</rect>
<rect x="83.7" y="63.9" width="11.3" height="11.3" fill="#ffeb00" rx="1.1">
<title>2025-02-13: 6.37 km (1 activities)</title>
</rect>
<rect x="83.7" y="76.1" width="11.3" height="11.3" fill="#ffeb00" rx="1.1">
<title>2025-02-14: 6.22 km (1 activities)</title>
</rect>
<rect x="83.7" y="88.4" width="11.3" height="11.3" fill="#444444" rx="1.1">
<title>2025-02-15</title>
</rect>
<rect x="83.7" y="100.7" width="11.3" height="11.3" fill="#ffef00" rx="1.1">
<title>2025-02-16: 3.20 km (1 activities)</title>
</rect>
<rect x="96.0" y="27.0" width="11.3" height="11.3" fill="red" rx="1.1">
<title>2025-02-17: 17.96 km (2 activities)</title>
</rect>
<rect x="96.0" y="39.3" width="11.3" height="11.3" fill="#ffeb00" rx="1.1">
<title>2025-02-18: 6.91 km (1 activities)</title>
</rect>
<rect x="96.0" y="51.6" width="11.3" height="11.3" fill="red" rx="1.1">
<title>2025-02-19: 7.06 km (1 activities)</title>
</rect>
<rect x="96.0" y="63.9" width="11.3" height="11.3" fill="red" rx="1.1">
<title>2025-02-20: 12.02 km (2 activities)</title>
</rect>
<rect x="96.0" y="76.1" width="11.3" height="11.3" fill="red" rx="1.1">
<title>2025-02-21: 7.07 km (1 activities)</title>
</rect>
<rect x="96.0" y="88.4" width="11.3" height="11.3" fill="#444444" rx="1.1">
<title>2025-02-22</title>
</rect>
<rect x="96.0" y="100.7" width="11.3" height="11.3" fill="#ffeb00" rx="1.1">
<title>2025-02-23: 6.99 km (1 activities)</title>
</rect>
<rect x="108.3" y="27.0" width="11.3" height="11.3" fill="#ffeb00" rx="1.1">
<title>2025-02-24: 6.43 km (1 activities)</title>
</rect>
<rect x="108.3" y="39.3" width="11.3" height="11.3" fill="red" rx="1.1">
<title>2025-02-25: 8.37 km (3 activities)</title>
</rect>
<rect x="108.3" y="51.6" width="11.3" height="11.3" fill="#444444" rx="1.1">
<title>2025-02-26</title>
</rect>
<rect x="108.3" y="63.9" width="11.3" height="11.3" fill="red" rx="1.1">
<title>2025-02-27: 13.30 km (2 activities)</title>
</rect>
<rect x="108.3" y="76.1" width="11.3" height="11.3" fill="#444444" rx="1.1">
<title>2025-02-28</title>
</rect>
<rect x="108.3" y="88.4" width="11.3" height="11.3" fill="red" rx="1.1">
<title>2025-03-01: 14.04 km (2 activities)</title>
</rect>
<rect x="108.3" y="100.7" width="11.3" height="11.3" fill="#ffeb00" rx="1.1">
<title>2025-03-02: 6.59 km (1 activities)</title>
</rect>
<rect x="120.6" y="27.0" width="11.3" height="11.3" fill="red" rx="1.1">
<title>2025-03-03: 7.16 km (1 activities)</title>
</rect>
<rect x="120.6" y="39.3" width="11.3" height="11.3" fill="red" rx="1.1">
<title>2025-03-04: 7.17 km (1 activities)</title>
</rect>
<rect x="120.6" y="51.6" width="11.3" height="11.3" fill="#ffeb00" rx="1.1">
<title>2025-03-05: 6.85 km (1 activities)</title>
</rect>
<rect x="120.6" y="63.9" width="11.3" height="11.3" fill="#ffeb00" rx="1.1">
<title>2025-03-06: 6.95 km (1 activities)</title>
</rect>
<rect x="120.6" y="76.1" width="11.3" height="11.3" fill="#444444" rx="1.1">
<title>2025-03-07</title>
</rect>
<rect x="120.6" y="88.4" width="11.3" height="11.3" fill="#ffeb00" rx="1.1">
<title>2025-03-08: 6.84 km (1 activities)</title>
</rect>
<rect x="120.6" y="100.7" width="11.3" height="11.3" fill="red" rx="1.1">
<title>2025-03-09: 21.27 km (1 activities)</title>
</rect>
<rect x="132.9" y="27.0" width="11.3" height="11.3" fill="#444444" rx="1.1">
<title>2025-03-10</title>
</rect>
<rect x="132.9" y="39.3" width="11.3" height="11.3" fill="#ffeb00" rx="1.1">
<title>2025-03-11: 6.02 km (1 activities)</title>
</rect>
<rect x="132.9" y="51.6" width="11.3" height="11.3" fill="#ffe900" rx="1.1">
<title>2025-03-12: 4.79 km (1 activities)</title>
</rect>
<rect x="132.9" y="63.9" width="11.3" height="11.3" fill="red" rx="1.1">
<title>2025-03-13: 7.01 km (1 activities)</title>
</rect>
<rect x="132.9" y="76.1" width="11.3" height="11.3" fill="#f4ea5c" rx="1.1">
<title>2025-03-14: 1.84 km (1 activities)</title>
</rect>
<rect x="132.9" y="88.4" width="11.3" height="11.3" fill="#444444" rx="1.1">
<title>2025-03-15</title>
</rect>
<rect x="132.9" y="100.7" width="11.3" height="11.3" fill="#ffeb00" rx="1.1">
<title>2025-03-16: 6.98 km (1 activities)</title>
</rect>
<rect x="145.1" y="27.0" width="11.3" height="11.3" fill="red" rx="1.1">
<title>2025-03-17: 11.47 km (3 activities)</title>
</rect>
<rect x="145.1" y="39.3" width="11.3" height="11.3" fill="red" rx="1.1">
<title>2025-03-18: 11.39 km (3 activities)</title>
</rect>
<rect x="145.1" y="51.6" width="11.3" height="11.3" fill="#f4ea5c" rx="1.1">
<title>2025-03-19: 1.92 km (1 activities)</title>
</rect>
<rect x="145.1" y="63.9" width="11.3" height="11.3" fill="#ffeb00" rx="1.1">
<title>2025-03-20: 5.38 km (2 activities)</title>
</rect>
<rect x="145.1" y="76.1" width="11.3" height="11.3" fill="red" rx="1.1">
<title>2025-03-21: 10.62 km (2 activities)</title>
</rect>
<rect x="145.1" y="88.4" width="11.3" height="11.3" fill="#ffef00" rx="1.1">
<title>2025-03-22: 3.94 km (1 activities)</title>
</rect>
<rect x="145.1" y="100.7" width="11.3" height="11.3" fill="red" rx="1.1">
<title>2025-03-23: 14.01 km (3 activities)</title>
</rect>
<rect x="157.4" y="27.0" width="11.3" height="11.3" fill="red" rx="1.1">
<title>2025-03-24: 9.77 km (2 activities)</title>
</rect>
<rect x="157.4" y="39.3" width="11.3" height="11.3" fill="#f4ea5c" rx="1.1">
<title>2025-03-25: 1.96 km (1 activities)</title>
</rect>
<rect x="157.4" y="51.6" width="11.3" height="11.3" fill="#444444" rx="1.1">
<title>2025-03-26</title>
</rect>
<rect x="157.4" y="63.9" width="11.3" height="11.3" fill="#ffeb00" rx="1.1">
<title>2025-03-27: 6.72 km (1 activities)</title>
</rect>
<rect x="157.4" y="76.1" width="11.3" height="11.3" fill="#ffeb00" rx="1.1">
<title>2025-03-28: 6.87 km (1 activities)</title>
</rect>
<rect x="157.4" y="88.4" width="11.3" height="11.3" fill="#444444" rx="1.1">
<title>2025-03-29</title>
</rect>
<rect x="157.4" y="100.7" width="11.3" height="11.3" fill="#ffeb00" rx="1.1">
<title>2025-03-30: 6.44 km (1 activities)</title>
</rect>
<rect x="169.7" y="27.0" width="11.3" height="11.3" fill="#444444" rx="1.1">
<title>2025-03-31</title>
</rect>
<rect x="169.7" y="39.3" width="11.3" height="11.3" fill="red" rx="1.1">
<title>2025-04-01: 8.44 km (3 activities)</title>
</rect>
<rect x="169.7" y="51.6" width="11.3" height="11.3" fill="red" rx="1.1">
<title>2025-04-02: 7.80 km (2 activities)</title>
</rect>
<rect x="169.7" y="63.9" width="11.3" height="11.3" fill="#444444" rx="1.1">
<title>2025-04-03</title>
</rect>
<rect x="169.7" y="76.1" width="11.3" height="11.3" fill="red" rx="1.1">
<title>2025-04-04: 7.01 km (2 activities)</title>
</rect>
<rect x="169.7" y="88.4" width="11.3" height="11.3" fill="#444444" rx="1.1">
<title>2025-04-05</title>
</rect>
<rect x="169.7" y="100.7" width="11.3" height="11.3" fill="red" rx="1.1">
<title>2025-04-06: 10.09 km (1 activities)</title>
</rect>
<rect x="182.0" y="27.0" width="11.3" height="11.3" fill="#f4ea5c" rx="1.1">
<title>2025-04-07: 1.46 km (1 activities)</title>
</rect>
<rect x="182.0" y="39.3" width="11.3" height="11.3" fill="#ffef00" rx="1.1">
<title>2025-04-08: 3.27 km (1 activities)</title>
</rect>
<rect x="182.0" y="51.6" width="11.3" height="11.3" fill="red" rx="1.1">
<title>2025-04-09: 7.93 km (2 activities)</title>
</rect>
<rect x="182.0" y="63.9" width="11.3" height="11.3" fill="#444444" rx="1.1">
<title>2025-04-10</title>
</rect>
<rect x="182.0" y="76.1" width="11.3" height="11.3" fill="#444444" rx="1.1">
<title>2025-04-11</title>
</rect>
<rect x="182.0" y="88.4" width="11.3" height="11.3" fill="#ffef00" rx="1.1">
<title>2025-04-12: 3.13 km (1 activities)</title>
</rect>
<rect x="182.0" y="100.7" width="11.3" height="11.3" fill="#f4ea5c" rx="1.1">
<title>2025-04-13: 1.36 km (2 activities)</title>
</rect>
<rect x="194.3" y="27.0" width="11.3" height="11.3" fill="#ffeb00" rx="1.1">
<title>2025-04-14: 5.27 km (2 activities)</title>
</rect>
<rect x="194.3" y="39.3" width="11.3" height="11.3" fill="#ffef00" rx="1.1">
<title>2025-04-15: 3.62 km (2 activities)</title>
</rect>
<rect x="194.3" y="51.6" width="11.3" height="11.3" fill="#ffef00" rx="1.1">
<title>2025-04-16: 3.77 km (1 activities)</title>
</rect>
<rect x="194.3" y="63.9" width="11.3" height="11.3" fill="#ffef00" rx="1.1">
<title>2025-04-17: 3.51 km (2 activities)</title>
</rect>
<rect x="194.3" y="76.1" width="11.3" height="11.3" fill="#444444" rx="1.1">
<title>2025-04-18</title>
</rect>
<rect x="194.3" y="88.4" width="11.3" height="11.3" fill="red" rx="1.1">
<title>2025-04-19: 7.95 km (2 activities)</title>
</rect>
<rect x="194.3" y="100.7" width="11.3" height="11.3" fill="#444444" rx="1.1">
<title>2025-04-20</title>
</rect>
<rect x="206.6" y="27.0" width="11.3" height="11.3" fill="#ffeb00" rx="1.1">
<title>2025-04-21: 5.48 km (1 activities)</title>
</rect>
<rect x="206.6" y="39.3" width="11.3" height="11.3" fill="#ffeb00" rx="1.1">
<title>2025-04-22: 5.12 km (1 activities)</title>
</rect>
<rect x="206.6" y="51.6" width="11.3" height="11.3" fill="#444444" rx="1.1">
<title>2025-04-23</title>
</rect>
<rect x="206.6" y="63.9" width="11.3" height="11.3" fill="#444444" rx="1.1">
<title>2025-04-24</title>
</rect>
<rect x="206.6" y="76.1" width="11.3" height="11.3" fill="#444444" rx="1.1">
<title>2025-04-25</title>
</rect>
<rect x="206.6" y="88.4" width="11.3" height="11.3" fill="#ffeb00" rx="1.1">
<title>2025-04-26: 5.48 km (1 activities)</title>
</rect>
<rect x="206.6" y="100.7" width="11.3" height="11.3" fill="#444444" rx="1.1">
<title>2025-04-27</title>
</rect>
<rect x="218.9" y="27.0" width="11.3" height="11.3" fill="#444444" rx="1.1">
<title>2025-04-28</title>
</rect>
<rect x="218.9" y="39.3" width="11.3" height="11.3" fill="#444444" rx="1.1">
<title>2025-04-29</title>
</rect>
<rect x="218.9" y="51.6" width="11.3" height="11.3" fill="red" rx="1.1">
<title>2025-04-30: 10.63 km (3 activities)</title>
</rect>
<rect x="218.9" y="63.9" width="11.3" height="11.3" fill="#ffeb00" rx="1.1">
<title>2025-05-01: 5.53 km (1 activities)</title>
</rect>
<rect x="218.9" y="76.1" width="11.3" height="11.3" fill="#ffeb00" rx="1.1">
<title>2025-05-02: 6.25 km (5 activities)</title>
</rect>
<rect x="218.9" y="88.4" width="11.3" height="11.3" fill="#444444" rx="1.1">
<title>2025-05-03</title>
</rect>
<rect x="218.9" y="100.7" width="11.3" height="11.3" fill="#ffef00" rx="1.1">
<title>2025-05-04: 3.09 km (1 activities)</title>
</rect>
<rect x="231.1" y="27.0" width="11.3" height="11.3" fill="#ffeb00" rx="1.1">
<title>2025-05-05: 5.96 km (1 activities)</title>
</rect>
<rect x="231.1" y="39.3" width="11.3" height="11.3" fill="#ffef00" rx="1.1">
<title>2025-05-06: 3.49 km (1 activities)</title>
</rect>
<rect x="231.1" y="51.6" width="11.3" height="11.3" fill="#ffef00" rx="1.1">
<title>2025-05-07: 3.62 km (1 activities)</title>
</rect>
<rect x="231.1" y="63.9" width="11.3" height="11.3" fill="#444444" rx="1.1">
<title>2025-05-08</title>
</rect>
<rect x="231.1" y="76.1" width="11.3" height="11.3" fill="#444444" rx="1.1">
<title>2025-05-09</title>
</rect>
<rect x="231.1" y="88.4" width="11.3" height="11.3" fill="#ffeb00" rx="1.1">
<title>2025-05-10: 6.00 km (1 activities)</title>
</rect>
<rect x="231.1" y="100.7" width="11.3" height="11.3" fill="#f4ec5e" rx="1.1">
<title>2025-05-11: 0.38 km (1 activities)</title>
</rect>
<rect x="243.4" y="27.0" width="11.3" height="11.3" fill="#ffeb00" rx="1.1">
<title>2025-05-12: 6.05 km (1 activities)</title>
</rect>
<rect x="243.4" y="39.3" width="11.3" height="11.3" fill="#ffef00" rx="1.1">
<title>2025-05-13: 3.44 km (2 activities)</title>
</rect>
<rect x="243.4" y="51.6" width="11.3" height="11.3" fill="#f4ea5c" rx="1.1">
<title>2025-05-14: 1.81 km (1 activities)</title>
</rect>
<rect x="243.4" y="63.9" width="11.3" height="11.3" fill="#444444" rx="1.1">
<title>2025-05-15</title>
</rect>
<rect x="243.4" y="76.1" width="11.3" height="11.3" fill="#444444" rx="1.1">
<title>2025-05-16</title>
</rect>
<rect x="243.4" y="88.4" width="11.3" height="11.3" fill="red" rx="1.1">
<title>2025-05-17: 8.43 km (2 activities)</title>
</rect>
<rect x="243.4" y="100.7" width="11.3" height="11.3" fill="red" rx="1.1">
<title>2025-05-18: 8.78 km (2 activities)</title>
</rect>
<rect x="255.7" y="27.0" width="11.3" height="11.3" fill="red" rx="1.1">
<title>2025-05-19: 10.42 km (2 activities)</title>
</rect>
<rect x="255.7" y="39.3" width="11.3" height="11.3" fill="#fff300" rx="1.1">
<title>2025-05-20: 2.58 km (1 activities)</title>
</rect>
<rect x="255.7" y="51.6" width="11.3" height="11.3" fill="#ffeb00" rx="1.1">
<title>2025-05-21: 5.53 km (1 activities)</title>
</rect>
<rect x="255.7" y="63.9" width="11.3" height="11.3" fill="red" rx="1.1">
<title>2025-05-22: 8.64 km (2 activities)</title>
</rect>
<rect x="255.7" y="76.1" width="11.3" height="11.3" fill="#444444" rx="1.1">
<title>2025-05-23</title>
</rect>
<rect x="255.7" y="88.4" width="11.3" height="11.3" fill="#ffeb00" rx="1.1">
<title>2025-05-24: 6.15 km (1 activities)</title>
</rect>
<rect x="255.7" y="100.7" width="11.3" height="11.3" fill="#fff300" rx="1.1">
<title>2025-05-25: 2.39 km (1 activities)</title>
</rect>
<rect x="268.0" y="27.0" width="11.3" height="11.3" fill="#444444" rx="1.1">
<title>2025-05-26</title>
</rect>
<rect x="268.0" y="39.3" width="11.3" height="11.3" fill="#444444" rx="1.1">
<title>2025-05-27</title>
</rect>
<rect x="268.0" y="51.6" width="11.3" height="11.3" fill="red" rx="1.1">
<title>2025-05-28: 11.28 km (3 activities)</title>
</rect>
<rect x="268.0" y="63.9" width="11.3" height="11.3" fill="#ffeb00" rx="1.1">
<title>2025-05-29: 5.29 km (1 activities)</title>
</rect>
<rect x="268.0" y="76.1" width="11.3" height="11.3" fill="#f4ea5c" rx="1.1">
<title>2025-05-30: 1.91 km (1 activities)</title>
</rect>
<rect x="268.0" y="88.4" width="11.3" height="11.3" fill="red" rx="1.1">
<title>2025-05-31: 11.15 km (1 activities)</title>
</rect>
<rect x="268.0" y="100.7" width="11.3" height="11.3" fill="#f4ea5c" rx="1.1">
<title>2025-06-01: 1.41 km (1 activities)</title>
</rect>
<rect x="280.3" y="27.0" width="11.3" height="11.3" fill="#f4ea5c" rx="1.1">
<title>2025-06-02: 1.68 km (1 activities)</title>
</rect>
<rect x="280.3" y="39.3" width="11.3" height="11.3" fill="#444444" rx="1.1">
<title>2025-06-03</title>
</rect>
<rect x="280.3" y="51.6" width="11.3" height="11.3" fill="#444444" rx="1.1">
<title>2025-06-04</title>
</rect>
<rect x="280.3" y="63.9" width="11.3" height="11.3" fill="#ffeb00" rx="1.1">
<title>2025-06-05: 5.75 km (2 activities)</title>
</rect>
<rect x="280.3" y="76.1" width="11.3" height="11.3" fill="#444444" rx="1.1">
<title>2025-06-06</title>
</rect>
<rect x="280.3" y="88.4" width="11.3" height="11.3" fill="#ffeb00" rx="1.1">
<title>2025-06-07: 6.12 km (2 activities)</title>
</rect>
<rect x="280.3" y="100.7" width="11.3" height="11.3" fill="#444444" rx="1.1">
<title>2025-06-08</title>
</rect>
<rect x="292.6" y="27.0" width="11.3" height="11.3" fill="#ffeb00" rx="1.1">
<title>2025-06-09: 6.13 km (3 activities)</title>
</rect>
<rect x="292.6" y="39.3" width="11.3" height="11.3" fill="#ffeb00" rx="1.1">
<title>2025-06-10: 6.14 km (1 activities)</title>
</rect>
<rect x="292.6" y="51.6" width="11.3" height="11.3" fill="#444444" rx="1.1">
<title>2025-06-11</title>
</rect>
<rect x="292.6" y="63.9" width="11.3" height="11.3" fill="#ffef00" rx="1.1">
<title>2025-06-12: 3.29 km (1 activities)</title>
</rect>
<rect x="292.6" y="76.1" width="11.3" height="11.3" fill="#f4ea5c" rx="1.1">
<title>2025-06-13: 1.68 km (1 activities)</title>
</rect>
<rect x="292.6" y="88.4" width="11.3" height="11.3" fill="#ffef00" rx="1.1">
<title>2025-06-14: 3.90 km (1 activities)</title>
</rect>
<rect x="292.6" y="100.7" width="11.3" height="11.3" fill="#444444" rx="1.1">
<title>2025-06-15</title>
</rect>
<rect x="304.9" y="27.0" width="11.3" height="11.3" fill="#444444" rx="1.1">
<title>2025-06-16</title>
</rect>
<rect x="304.9" y="39.3" width="11.3" height="11.3" fill="#ffeb00" rx="1.1">
<title>2025-06-17: 6.65 km (1 activities)</title>
</rect>
<rect x="304.9" y="51.6" width="11.3" height="11.3" fill="#ffef00" rx="1.1">
<title>2025-06-18: 3.47 km (1 activities)</title>
</rect>
<rect x="304.9" y="63.9" width="11.3" height="11.3" fill="#ffeb00" rx="1.1">
<title>2025-06-19: 6.12 km (1 activities)</title>
</rect>
<rect x="304.9" y="76.1" width="11.3" height="11.3" fill="#fff300" rx="1.1">
<title>2025-06-20: 2.62 km (1 activities)</title>
</rect>
<rect x="304.9" y="88.4" width="11.3" height="11.3" fill="#444444" rx="1.1">
<title>2025-06-21</title>
</rect>
<rect x="304.9" y="100.7" width="11.3" height="11.3" fill="red" rx="1.1">
<title>2025-06-22: 14.16 km (2 activities)</title>
</rect>
<rect x="317.1" y="27.0" width="11.3" height="11.3" fill="#444444" rx="1.1">
<title>2025-06-23</title>
</rect>
<rect x="317.1" y="39.3" width="11.3" height="11.3" fill="#ffef00" rx="1.1">
<title>2025-06-24: 3.46 km (1 activities)</title>
</rect>
<rect x="317.1" y="51.6" width="11.3" height="11.3" fill="#444444" rx="1.1">
<title>2025-06-25</title>
</rect>
<rect x="317.1" y="63.9" width="11.3" height="11.3" fill="red" rx="1.1">
<title>2025-06-26: 10.37 km (2 activities)</title>
</rect>
<rect x="317.1" y="76.1" width="11.3" height="11.3" fill="#444444" rx="1.1">
<title>2025-06-27</title>
</rect>
<rect x="317.1" y="88.4" width="11.3" height="11.3" fill="#ffef00" rx="1.1">
<title>2025-06-28: 3.11 km (2 activities)</title>
</rect>
<rect x="317.1" y="100.7" width="11.3" height="11.3" fill="#ffeb00" rx="1.1">
<title>2025-06-29: 6.05 km (2 activities)</title>
</rect>
<rect x="329.4" y="27.0" width="11.3" height="11.3" fill="#fff300" rx="1.1">
<title>2025-06-30: 2.97 km (2 activities)</title>
</rect>
<rect x="329.4" y="39.3" width="11.3" height="11.3" fill="#444444" rx="1.1">
<title>2025-07-01</title>
</rect>
<rect x="329.4" y="51.6" width="11.3" height="11.3" fill="#ffeb00" rx="1.1">
<title>2025-07-02: 6.22 km (1 activities)</title>
</rect>
<rect x="329.4" y="63.9" width="11.3" height="11.3" fill="#ffef00" rx="1.1">
<title>2025-07-03: 3.15 km (1 activities)</title>
</rect>
<rect x="329.4" y="76.1" width="11.3" height="11.3" fill="#444444" rx="1.1">
<title>2025-07-04</title>
</rect>
<rect x="329.4" y="88.4" width="11.3" height="11.3" fill="#ffeb00" rx="1.1">
<title>2025-07-05: 5.93 km (1 activities)</title>
</rect>
<rect x="329.4" y="100.7" width="11.3" height="11.3" fill="#ffeb00" rx="1.1">
<title>2025-07-06: 5.97 km (1 activities)</title>
</rect>
<rect x="341.7" y="27.0" width="11.3" height="11.3" fill="#ffeb00" rx="1.1">
<title>2025-07-07: 6.13 km (1 activities)</title>
</rect>
<rect x="341.7" y="39.3" width="11.3" height="11.3" fill="#444444" rx="1.1">
<title>2025-07-08</title>
</rect>
<rect x="341.7" y="51.6" width="11.3" height="11.3" fill="#444444" rx="1.1">
<title>2025-07-09</title>
</rect>
<rect x="341.7" y="63.9" width="11.3" height="11.3" fill="red" rx="1.1">
<title>2025-07-10: 8.70 km (2 activities)</title>
</rect>
<rect x="341.7" y="76.1" width="11.3" height="11.3" fill="#444444" rx="1.1">
<title>2025-07-11</title>
</rect>
<rect x="341.7" y="88.4" width="11.3" height="11.3" fill="#fff300" rx="1.1">
<title>2025-07-12: 2.01 km (1 activities)</title>
</rect>
<rect x="341.7" y="100.7" width="11.3" height="11.3" fill="red" rx="1.1">
<title>2025-07-13: 10.10 km (1 activities)</title>
</rect>
<rect x="354.0" y="27.0" width="11.3" height="11.3" fill="#ffef00" rx="1.1">
<title>2025-07-14: 3.56 km (1 activities)</title>
</rect>
<rect x="354.0" y="39.3" width="11.3" height="11.3" fill="#ffeb00" rx="1.1">
<title>2025-07-15: 6.02 km (1 activities)</title>
</rect>
<rect x="354.0" y="51.6" width="11.3" height="11.3" fill="#f4ea5c" rx="1.1">
<title>2025-07-16: 1.63 km (1 activities)</title>
</rect>
<rect x="354.0" y="63.9" width="11.3" height="11.3" fill="#ffeb00" rx="1.1">
<title>2025-07-17: 6.11 km (1 activities)</title>
</rect>
<rect x="354.0" y="76.1" width="11.3" height="11.3" fill="#ffef00" rx="1.1">
<title>2025-07-18: 3.07 km (1 activities)</title>
</rect>
<rect x="354.0" y="88.4" width="11.3" height="11.3" fill="#444444" rx="1.1">
<title>2025-07-19</title>
</rect>
<rect x="354.0" y="100.7" width="11.3" height="11.3" fill="red" rx="1.1">
<title>2025-07-20: 9.63 km (2 activities)</title>
</rect>
<rect x="366.3" y="27.0" width="11.3" height="11.3" fill="#ffeb00" rx="1.1">
<title>2025-07-21: 6.40 km (1 activities)</title>
</rect>
<rect x="366.3" y="39.3" width="11.3" height="11.3" fill="#ffef00" rx="1.1">
<title>2025-07-22: 3.65 km (1 activities)</title>
</rect>
<rect x="366.3" y="51.6" width="11.3" height="11.3" fill="#fff300" rx="1.1">
<title>2025-07-23: 2.04 km (1 activities)</title>
</rect>
<rect x="366.3" y="63.9" width="11.3" height="11.3" fill="#444444" rx="1.1">
<title>2025-07-24</title>
</rect>
<rect x="366.3" y="76.1" width="11.3" height="11.3" fill="#444444" rx="1.1">
<title>2025-07-25</title>
</rect>
<rect x="366.3" y="88.4" width="11.3" height="11.3" fill="red" rx="1.1">
<title>2025-07-26: 7.13 km (1 activities)</title>
</rect>
<rect x="366.3" y="100.7" width="11.3" height="11.3" fill="red" rx="1.1">
<title>2025-07-27: 7.55 km (1 activities)</title>
</rect>
<rect x="378.6" y="27.0" width="11.3" height="11.3" fill="#ffef00" rx="1.1">
<title>2025-07-28: 3.79 km (1 activities)</title>
</rect>
<rect x="378.6" y="39.3" width="11.3" height="11.3" fill="red" rx="1.1">
<title>2025-07-29: 8.29 km (1 activities)</title>
</rect>
<rect x="378.6" y="51.6" width="11.3" height="11.3" fill="#ffef00" rx="1.1">
<title>2025-07-30: 3.37 km (1 activities)</title>
</rect>
<rect x="378.6" y="63.9" width="11.3" height="11.3" fill="#444444" rx="1.1">
<title>2025-07-31</title>
</rect>
<rect x="378.6" y="76.1" width="11.3" height="11.3" fill="#444444" rx="1.1">
<title>2025-08-01</title>
</rect>
<rect x="378.6" y="88.4" width="11.3" height="11.3" fill="#ffeb00" rx="1.1">
<title>2025-08-02: 6.66 km (1 activities)</title>
</rect>
<rect x="378.6" y="100.7" width="11.3" height="11.3" fill="#444444" rx="1.1">
<title>2025-08-03</title>
</rect>
<rect x="390.9" y="27.0" width="11.3" height="11.3" fill="#444444" rx="1.1">
<title>2025-08-04</title>
</rect>
<rect x="390.9" y="39.3" width="11.3" height="11.3" fill="#444444" rx="1.1">
<title>2025-08-05</title>
</rect>
<rect x="390.9" y="51.6" width="11.3" height="11.3" fill="#444444" rx="1.1">
<title>2025-08-06</title>
</rect>
<rect x="390.9" y="63.9" width="11.3" height="11.3" fill="#444444" rx="1.1">
<title>2025-08-07</title>
</rect>
<rect x="390.9" y="76.1" width="11.3" height="11.3" fill="#444444" rx="1.1">
<title>2025-08-08</title>
</rect>
<rect x="390.9" y="88.4" width="11.3" height="11.3" fill="#ffeb00" rx="1.1">
<title>2025-08-09: 6.36 km (1 activities)</title>
</rect>
<rect x="390.9" y="100.7" width="11.3" height="11.3" fill="#ffef00" rx="1.1">
<title>2025-08-10: 3.98 km (1 activities)</title>
</rect>
<rect x="403.1" y="27.0" width="11.3" height="11.3" fill="red" rx="1.1">
<title>2025-08-11: 10.07 km (2 activities)</title>
</rect>
<rect x="403.1" y="39.3" width="11.3" height="11.3" fill="#444444" rx="1.1">
<title>2025-08-12</title>
</rect>
<rect x="403.1" y="51.6" width="11.3" height="11.3" fill="#ffeb00" rx="1.1">
<title>2025-08-13: 6.56 km (1 activities)</title>
</rect>
<rect x="403.1" y="63.9" width="11.3" height="11.3" fill="#f4ea5c" rx="1.1">
<title>2025-08-14: 1.55 km (1 activities)</title>
</rect>
<rect x="403.1" y="76.1" width="11.3" height="11.3" fill="#444444" rx="1.1">
<title>2025-08-15</title>
</rect>
<rect x="403.1" y="88.4" width="11.3" height="11.3" fill="#444444" rx="1.1">
<title>2025-08-16</title>
</rect>
<rect x="403.1" y="100.7" width="11.3" height="11.3" fill="red" rx="1.1">
<title>2025-08-17: 12.86 km (3 activities)</title>
</rect>
<rect x="415.4" y="27.0" width="11.3" height="11.3" fill="red" rx="1.1">
<title>2025-08-18: 10.18 km (2 activities)</title>
</rect>
<rect x="415.4" y="39.3" width="11.3" height="11.3" fill="#444444" rx="1.1">
<title>2025-08-19</title>
</rect>
<rect x="415.4" y="51.6" width="11.3" height="11.3" fill="#ffef00" rx="1.1">
<title>2025-08-20: 3.61 km (1 activities)</title>
</rect>
<rect x="415.4" y="63.9" width="11.3" height="11.3" fill="#ffef00" rx="1.1">
<title>2025-08-21: 3.56 km (1 activities)</title>
</rect>
<rect x="415.4" y="76.1" width="11.3" height="11.3" fill="#ffeb00" rx="1.1">
<title>2025-08-22: 6.03 km (1 activities)</title>
</rect>
<rect x="415.4" y="88.4" width="11.3" height="11.3" fill="#ffeb00" rx="1.1">
<title>2025-08-23: 5.90 km (1 activities)</title>
</rect>
<rect x="415.4" y="100.7" width="11.3" height="11.3" fill="#f4ea5c" rx="1.1">
<title>2025-08-24: 1.40 km (1 activities)</title>
</rect>
<rect x="427.7" y="27.0" width="11.3" height="11.3" fill="#ffeb00" rx="1.1">
<title>2025-08-25: 6.10 km (1 activities)</title>
</rect>
<rect x="427.7" y="39.3" width="11.3" height="11.3" fill="#444444" rx="1.1">
<title>2025-08-26</title>
</rect>
<rect x="427.7" y="51.6" width="11.3" height="11.3" fill="#fff300" rx="1.1">
<title>2025-08-27: 2.76 km (2 activities)</title>
</rect>
<rect x="427.7" y="63.9" width="11.3" height="11.3" fill="red" rx="1.1">
<title>2025-08-28: 9.19 km (2 activities)</title>
</rect>
<rect x="427.7" y="76.1" width="11.3" height="11.3" fill="#444444" rx="1.1">
<title>2025-08-29</title>
</rect>
<rect x="427.7" y="88.4" width="11.3" height="11.3" fill="red" rx="1.1">
<title>2025-08-30: 7.11 km (2 activities)</title>
</rect>
<rect x="427.7" y="100.7" width="11.3" height="11.3" fill="#444444" rx="1.1">
<title>2025-08-31</title>
</rect>
<rect x="440.0" y="27.0" width="11.3" height="11.3" fill="#ffeb00" rx="1.1">
<title>2025-09-01: 5.07 km (2 activities)</title>
</rect>
<rect x="440.0" y="39.3" width="11.3" height="11.3" fill="red" rx="1.1">
<title>2025-09-02: 11.52 km (2 activities)</title>
</rect>
<rect x="440.0" y="51.6" width="11.3" height="11.3" fill="#ffeb00" rx="1.1">
<title>2025-09-03: 5.80 km (1 activities)</title>
</rect>
<rect x="440.0" y="63.9" width="11.3" height="11.3" fill="red" rx="1.1">
<title>2025-09-04: 14.34 km (2 activities)</title>
</rect>
<rect x="440.0" y="76.1" width="11.3" height="11.3" fill="#ffeb00" rx="1.1">
<title>2025-09-05: 5.16 km (1 activities)</title>
</rect>
<rect x="440.0" y="88.4" width="11.3" height="11.3" fill="#444444" rx="1.1">
<title>2025-09-06</title>
</rect>
<rect x="440.0" y="100.7" width="11.3" height="11.3" fill="#ffeb00" rx="1.1">
<title>2025-09-07: 5.11 km (1 activities)</title>
</rect>
<rect x="452.3" y="27.0" width="11.3" height="11.3" fill="#ffef00" rx="1.1">
<title>2025-09-08: 3.08 km (2 activities)</title>
</rect>
<rect x="452.3" y="39.3" width="11.3" height="11.3" fill="#444444" rx="1.1">
<title>2025-09-09</title>
</rect>
<rect x="452.3" y="51.6" width="11.3" height="11.3" fill="#444444" rx="1.1">
<title>2025-09-10</title>
</rect>
<rect x="452.3" y="63.9" width="11.3" height="11.3" fill="#444444" rx="1.1">
<title>2025-09-11</title>
</rect>
<rect x="452.3" y="76.1" width="11.3" height="11.3" fill="#444444" rx="1.1">
<title>2025-09-12</title>
</rect>
<rect x="452.3" y="88.4" width="11.3" height="11.3" fill="#444444" rx="1.1">
<title>2025-09-13</title>
</rect>
<rect x="452.3" y="100.7" width="11.3" height="11.3" fill="#444444" rx="1.1">
<title>2025-09-14</title>
</rect>
<rect x="464.6" y="27.0" width="11.3" height="11.3" fill="#ffeb00" rx="1.1">
<title>2025-09-15: 5.43 km (1 activities)</title>
</rect>
<rect x="464.6" y="39.3" width="11.3" height="11.3" fill="#444444" rx="1.1">
<title>2025-09-16</title>
</rect>
<rect x="464.6" y="51.6" width="11.3" height="11.3" fill="#444444" rx="1.1">
<title>2025-09-17</title>
</rect>
<rect x="464.6" y="63.9" width="11.3" height="11.3" fill="#444444" rx="1.1">
<title>2025-09-18</title>
</rect>
<rect x="464.6" y="76.1" width="11.3" height="11.3" fill="#444444" rx="1.1">
<title>2025-09-19</title>
</rect>
<rect x="464.6" y="88.4" width="11.3" height="11.3" fill="#444444" rx="1.1">
<title>2025-09-20</title>
</rect>
<rect x="464.6" y="100.7" width="11.3" height="11.3" fill="red" rx="1.1">
<title>2025-09-21: 7.92 km (2 activities)</title>
</rect>
<rect x="476.9" y="27.0" width="11.3" height="11.3" fill="#444444" rx="1.1">
<title>2025-09-22</title>
</rect>
<rect x="476.9" y="39.3" width="11.3" height="11.3" fill="#444444" rx="1.1">
<title>2025-09-23</title>
</rect>
<rect x="476.9" y="51.6" width="11.3" height="11.3" fill="#444444" rx="1.1">
<title>2025-09-24</title>
</rect>
<rect x="476.9" y="63.9" width="11.3" height="11.3" fill="#444444" rx="1.1">
<title>2025-09-25</title>
</rect>
<rect x="476.9" y="76.1" width="11.3" height="11.3" fill="#ffef00" rx="1.1">
<title>2025-09-26: 3.39 km (1 activities)</title>
</rect>
<rect x="476.9" y="88.4" width="11.3" height="11.3" fill="#444444" rx="1.1">
<title>2025-09-27</title>
</rect>
<rect x="476.9" y="100.7" width="11.3" height="11.3" fill="#ffeb00" rx="1.1">
<title>2025-09-28: 5.45 km (1 activities)</title>
</rect>
<rect x="489.1" y="27.0" width="11.3" height="11.3" fill="#444444" rx="1.1">
<title>2025-09-29</title>
</rect>
<rect x="489.1" y="39.3" width="11.3" height="11.3" fill="#444444" rx="1.1">
<title>2025-09-30</title>
</rect>
<rect x="489.1" y="51.6" width="11.3" height="11.3" fill="#ffeb00" rx="1.1">
<title>2025-10-01: 5.53 km (1 activities)</title>
</rect>
<rect x="489.1" y="63.9" width="11.3" height="11.3" fill="#ffe900" rx="1.1">
<title>2025-10-02: 4.81 km (1 activities)</title>
</rect>
<rect x="489.1" y="76.1" width="11.3" height="11.3" fill="#444444" rx="1.1">
<title>2025-10-03</title>
</rect>
<rect x="489.1" y="88.4" width="11.3" height="11.3" fill="#ffeb00" rx="1.1">
<title>2025-10-04: 5.28 km (1 activities)</title>
</rect>
<rect x="489.1" y="100.7" width="11.3" height="11.3" fill="#fff300" rx="1.1">
<title>2025-10-05: 2.35 km (1 activities)</title>
</rect>
<rect x="501.4" y="27.0" width="11.3" height="11.3" fill="#444444" rx="1.1">
<title>2025-10-06</title>
</rect>
<rect x="501.4" y="39.3" width="11.3" height="11.3" fill="red" rx="1.1">
<title>2025-10-07: 16.26 km (3 activities)</title>
</rect>
<rect x="501.4" y="51.6" width="11.3" height="11.3" fill="#444444" rx="1.1">
<title>2025-10-08</title>
</rect>
<rect x="501.4" y="63.9" width="11.3" height="11.3" fill="#444444" rx="1.1">
<title>2025-10-09</title>
</rect>
<rect x="501.4" y="76.1" width="11.3" height="11.3" fill="#444444" rx="1.1">
<title>2025-10-10</title>
</rect>
<rect x="501.4" y="88.4" width="11.3" height="11.3" fill="#444444" rx="1.1">
<title>2025-10-11</title>
</rect>
<rect x="501.4" y="100.7" width="11.3" height="11.3" fill="#444444" rx="1.1">
<title>2025-10-12</title>
</rect>
<rect x="513.7" y="27.0" width="11.3" height="11.3" fill="#444444" rx="1.1">
<title>2025-10-13</title>
</rect>
<rect x="513.7" y="39.3" width="11.3" height="11.3" fill="#444444" rx="1.1">
<title>2025-10-14</title>
</rect>
<rect x="513.7" y="51.6" width="11.3" height="11.3" fill="#444444" rx="1.1">
<title>2025-10-15</title>
</rect>
<rect x="513.7" y="63.9" width="11.3" height="11.3" fill="#444444" rx="1.1">
<title>2025-10-16</title>
</rect>
<rect x="513.7" y="76.1" width="11.3" height="11.3" fill="#444444" rx="1.1">
<title>2025-10-17</title>
</rect>
<rect x="513.7" y="88.4" width="11.3" height="11.3" fill="#ffeb00" rx="1.1">
<title>2025-10-18: 5.66 km (1 activities)</title>
</rect>
<rect x="513.7" y="100.7" width="11.3" height="11.3" fill="#444444" rx="1.1">
<title>2025-10-19</title>
</rect>
<rect x="526.0" y="27.0" width="11.3" height="11.3" fill="red" rx="1.1">
<title>2025-10-20: 11.76 km (2 activities)</title>
</rect>
<rect x="526.0" y="39.3" width="11.3" height="11.3" fill="#444444" rx="1.1">
<title>2025-10-21</title>
</rect>
<rect x="526.0" y="51.6" width="11.3" height="11.3" fill="#444444" rx="1.1">
<title>2025-10-22</title>
</rect>
<rect x="526.0" y="63.9" width="11.3" height="11.3" fill="#ffeb00" rx="1.1">
<title>2025-10-23: 5.80 km (1 activities)</title>
</rect>
<rect x="526.0" y="76.1" width="11.3" height="11.3" fill="#444444" rx="1.1">
<title>2025-10-24</title>
</rect>
<rect x="526.0" y="88.4" width="11.3" height="11.3" fill="#ffeb00" rx="1.1">
<title>2025-10-25: 5.35 km (2 activities)</title>
</rect>
<rect x="526.0" y="100.7" width="11.3" height="11.3" fill="#ffeb00" rx="1.1">
<title>2025-10-26: 5.65 km (1 activities)</title>
</rect>
<rect x="538.3" y="27.0" width="11.3" height="11.3" fill="#ffef00" rx="1.1">
<title>2025-10-27: 3.01 km (1 activities)</title>
</rect>
<rect x="538.3" y="39.3" width="11.3" height="11.3" fill="#f4ec5e" rx="1.1">
<title>2025-10-28: 0.83 km (1 activities)</title>
</rect>
<rect x="538.3" y="51.6" width="11.3" height="11.3" fill="red" rx="1.1">
<title>2025-10-29: 8.29 km (2 activities)</title>
</rect>
<rect x="538.3" y="63.9" width="11.3" height="11.3" fill="#444444" rx="1.1">
<title>2025-10-30</title>
</rect>
<rect x="538.3" y="76.1" width="11.3" height="11.3" fill="#444444" rx="1.1">
<title>2025-10-31</title>
</rect>
<rect x="538.3" y="88.4" width="11.3" height="11.3" fill="red" rx="1.1">
<title>2025-11-01: 7.88 km (2 activities)</title>
</rect>
<rect x="538.3" y="100.7" width="11.3" height="11.3" fill="#ffeb00" rx="1.1">
<title>2025-11-02: 5.89 km (1 activities)</title>
</rect>
<rect x="550.6" y="27.0" width="11.3" height="11.3" fill="#444444" rx="1.1">
<title>2025-11-03</title>
</rect>
<rect x="550.6" y="39.3" width="11.3" height="11.3" fill="#444444" rx="1.1">
<title>2025-11-04</title>
</rect>
<rect x="550.6" y="51.6" width="11.3" height="11.3" fill="#444444" rx="1.1">
<title>2025-11-05</title>
</rect>
<rect x="550.6" y="63.9" width="11.3" height="11.3" fill="#444444" rx="1.1">
<title>2025-11-06</title>
</rect>
<rect x="550.6" y="76.1" width="11.3" height="11.3" fill="#444444" rx="1.1">
<title>2025-11-07</title>
</rect>
<rect x="550.6" y="88.4" width="11.3" height="11.3" fill="#ffeb00" rx="1.1">
<title>2025-11-08: 5.79 km (1 activities)</title>
</rect>
<rect x="550.6" y="100.7" width="11.3" height="11.3" fill="red" rx="1.1">
<title>2025-11-09: 7.40 km (2 activities)</title>
</rect>
<rect x="562.9" y="27.0" width="11.3" height="11.3" fill="#ffeb00" rx="1.1">
<title>2025-11-10: 5.92 km (1 activities)</title>
</rect>
<rect x="562.9" y="39.3" width="11.3" height="11.3" fill="#ffeb00" rx="1.1">
<title>2025-11-11: 6.37 km (1 activities)</title>
</rect>
<rect x="562.9" y="51.6" width="11.3" height="11.3" fill="#444444" rx="1.1">
<title>2025-11-12</title>
</rect>
<rect x="562.9" y="63.9" width="11.3" height="11.3" fill="#ffeb00" rx="1.1">
<title>2025-11-13: 6.08 km (1 activities)</title>
</rect>
<rect x="562.9" y="76.1" width="11.3" height="11.3" fill="#444444" rx="1.1">
<title>2025-11-14</title>
</rect>
<rect x="562.9" y="88.4" width="11.3" height="11.3" fill="#444444" rx="1.1">
<title>2025-11-15</title>
</rect>
<rect x="562.9" y="100.7" width="11.3" height="11.3" fill="#ffeb00" rx="1.1">
<title>2025-11-16: 5.88 km (1 activities)</title>
</rect>
<rect x="575.1" y="27.0" width="11.3" height="11.3" fill="#fff300" rx="1.1">
<title>2025-11-17: 2.60 km (1 activities)</title>
</rect>
<rect x="575.1" y="39.3" width="11.3" height="11.3" fill="#444444" rx="1.1">
<title>2025-11-18</title>
</rect>
<rect x="575.1" y="51.6" width="11.3" height="11.3" fill="#444444" rx="1.1">
<title>2025-11-19</title>
</rect>
<rect x="575.1" y="63.9" width="11.3" height="11.3" fill="#444444" rx="1.1">
<title>2025-11-20</title>
</rect>
<rect x="575.1" y="76.1" width="11.3" height="11.3" fill="#444444" rx="1.1">
<title>2025-11-21</title>
</rect>
<rect x="575.1" y="88.4" width="11.3" height="11.3" fill="#444444" rx="1.1">
<title>2025-11-22</title>
</rect>
<rect x="575.1" y="100.7" width="11.3" height="11.3" fill="#444444" rx="1.1">
<title>2025-11-23</title>
</rect>
<rect x="587.4" y="27.0" width="11.3" height="11.3" fill="#444444" rx="1.1">
<title>2025-11-24</title>
</rect>
<rect x="587.4" y="39.3" width="11.3" height="11.3" fill="#444444" rx="1.1">
<title>2025-11-25</title>
</rect>
<rect x="587.4" y="51.6" width="11.3" height="11.3" fill="#444444" rx="1.1">
<title>2025-11-26</title>
</rect>
<rect x="587.4" y="63.9" width="11.3" height="11.3" fill="#444444" rx="1.1">
<title>2025-11-27</title>
</rect>
<rect x="587.4" y="76.1" width="11.3" height="11.3" fill="#444444" rx="1.1">
<title>2025-11-28</title>
</rect>
<rect x="587.4" y="88.4" width="11.3" height="11.3" fill="#444444" rx="1.1">
<title>2025-11-29</title>
</rect>
<rect x="587.4" y="100.7" width="11.3" height="11.3" fill="#444444" rx="1.1">
<title>2025-11-30</title>
</rect>
<rect x="599.7" y="27.0" width="11.3" height="11.3" fill="#444444" rx="1.1">
<title>2025-12-01</title>
</rect>
<rect x="599.7" y="39.3" width="11.3" height="11.3" fill="#444444" rx="1.1">
<title>2025-12-02</title>
</rect>
<rect x="599.7" y="51.6" width="11.3" height="11.3" fill="#444444" rx="1.1">
<title>2025-12-03</title>
</rect>
<rect x="599.7" y="63.9" width="11.3" height="11.3" fill="#444444" rx="1.1">
<title>2025-12-04</title>
</rect>
<rect x="599.7" y="76.1" width="11.3" height="11.3" fill="#444444" rx="1.1">
<title>2025-12-05</title>
</rect>
<rect x="599.7" y="88.4" width="11.3" height="11.3" fill="#444444" rx="1.1">
<title>2025-12-06</title>
</rect>
<rect x="599.7" y="100.7" width="11.3" height="11.3" fill="#444444" rx="1.1">
<title>2025-12-07</title>
</rect>
<rect x="612.0" y="27.0" width="11.3" height="11.3" fill="#444444" rx="1.1">
<title>2025-12-08</title>
</rect>
<rect x="612.0" y="39.3" width="11.3" height="11.3" fill="#444444" rx="1.1">
<title>2025-12-09</title>
</rect>
<rect x="612.0" y="51.6" width="11.3" height="11.3" fill="#444444" rx="1.1">
<title>2025-12-10</title>
</rect>
<rect x="612.0" y="63.9" width="11.3" height="11.3" fill="#444444" rx="1.1">
<title>2025-12-11</title>
</rect>
<rect x="612.0" y="76.1" width="11.3" height="11.3" fill="#444444" rx="1.1">
<title>2025-12-12</title>
</rect>
<rect x="612.0" y="88.4" width="11.3" height="11.3" fill="#444444" rx="1.1">
<title>2025-12-13</title>
</rect>
<rect x="612.0" y="100.7" width="11.3" height="11.3" fill="#444444" rx="1.1">
<title>2025-12-14</title>
</rect>
<rect x="624.3" y="27.0" width="11.3" height="11.3" fill="#444444" rx="1.1">
<title>2025-12-15</title>
</rect>
<rect x="624.3" y="39.3" width="11.3" height="11.3" fill="#444444" rx="1.1">
<title>2025-12-16</title>
</rect>
<rect x="624.3" y="51.6" width="11.3" height="11.3" fill="#444444" rx="1.1">
<title>2025-12-17</title>
</rect>
<rect x="624.3" y="63.9" width="11.3" height="11.3" fill="#444444" rx="1.1">
<title>2025-12-18</title>
</rect>
<rect x="624.3" y="76.1" width="11.3" height="11.3" fill="#444444" rx="1.1">
<title>2025-12-19</title>
</rect>
<rect x="624.3" y="88.4" width="11.3" height="11.3" fill="#444444" rx="1.1">
<title>2025-12-20</title>
</rect>
<rect x="624.3" y="100.7" width="11.3" height="11.3" fill="#444444" rx="1.1">
<title>2025-12-21</title>
</rect>
<rect x="636.6" y="27.0" width="11.3" height="11.3" fill="#444444" rx="1.1">
<title>2025-12-22</title>
</rect>
<rect x="636.6" y="39.3" width="11.3" height="11.3" fill="#444444" rx="1.1">
<title>2025-12-23</title>
</rect>
<rect x="636.6" y="51.6" width="11.3" height="11.3" fill="#444444" rx="1.1">
<title>2025-12-24</title>
</rect>
<rect x="636.6" y="63.9" width="11.3" height="11.3" fill="#444444" rx="1.1">
<title>2025-12-25</title>
</rect>
<rect x="636.6" y="76.1" width="11.3" height="11.3" fill="#444444" rx="1.1">
<title>2025-12-26</title>
</rect>
<rect x="636.6" y="88.4" width="11.3" height="11.3" fill="#444444" rx="1.1">
<title>2025-12-27</title>
</rect>
<rect x="636.6" y="100.7" width="11.3" height="11.3" fill="#444444" rx="1.1">
<title>2025-12-28</title>
</rect>
<rect x="648.9" y="27.0" width="11.3" height="11.3" fill="#444444" rx="1.1">
<title>2025-12-29</title>
</rect>
<rect x="648.9" y="39.3" width="11.3" height="11.3" fill="#444444" rx="1.1">
<title>2025-12-30</title>
</rect>
<rect x="648.9" y="51.6" width="11.3" height="11.3" fill="#444444" rx="1.1">
<title>2025-12-31</title>
</rect>
</svg>